/* XPM */
static char *result[] = {
/* columns rows colors chars-per-pixel */
"60 60 246 2 ",
"   c #030404",
".  c #070604",
"X  c #040606",
"o  c #060806",
"O  c #090A06",
"+  c #0A0B06",
"@  c #0B0B06",
"#  c #0D0906",
"$  c #0D0A06",
"%  c #0E0A06",
"&  c #0F0A06",
"*  c #0D0D06",
"=  c #0D0D07",
"-  c #0C0E07",
";  c #0D0E0A",
":  c #0D0F0F",
">  c #1C1007",
",  c #1C1A08",
"<  c #312A09",
"1  c #312B09",
"2  c #39310A",
"3  c #4E240B",
"4  c #59280C",
"5  c #7B360E",
"6  c #51450C",
"7  c #57490C",
"8  c #584A0D",
"9  c #594B0D",
"0  c #574B18",
"q  c #62520E",
"w  c #6A590E",
"e  c #6B5A0E",
"r  c #725F0F",
"t  c #615314",
"y  c #7E6910",
"u  c #5A5C5C",
"i  c #80380E",
"p  c #853A0F",
"a  c #8F3E0F",
"s  c #8E4910",
"d  c #A34611",
"f  c #AD4A12",
"g  c #BC5013",
"h  c #BD5D14",
"j  c #867010",
"k  c #877010",
"l  c #887111",
"z  c #897211",
"x  c #8B7411",
"c  c #907611",
"v  c #917811",
"b  c #937A11",
"n  c #D55B15",
"m  c #F36717",
"M  c #F36817",
"N  c #F36A17",
"B  c #F36C18",
"V  c #F37017",
"C  c #F47617",
"Z  c #F47717",
"A  c #F47B17",
"S  c #F47318",
"D  c #F47F19",
"F  c #F57E1A",
"G  c #F57F1A",
"H  c #A78013",
"J  c #A78A13",
"K  c #A98C13",
"L  c #F48518",
"P  c #F58818",
"I  c #F68C1C",
"U  c #F68D1C",
"Y  c #F68E1C",
"T  c #F68F1C",
"R  c #F6921B",
"E  c #F6931B",
"W  c #F59418",
"Q  c #F6941B",
"!  c #F6951B",
"~  c #F6961B",
"^  c #F6971C",
"/  c #F69A18",
"(  c #F6981B",
")  c #F69B1A",
"_  c #F69B1B",
"`  c #F79D1B",
"'  c #F69E1B",
"]  c #F79E1B",
"[  c #F79F1B",
"{  c #F59B1E",
"}  c #D2AE17",
"|  c #D3AE17",
" . c #D8B217",
".. c #F6A218",
"X. c #F7A11B",
"o. c #F7A21B",
"O. c #F7A31B",
"+. c #F7A51B",
"@. c #F7A61A",
"#. c #F7A61B",
"$. c #F7A919",
"%. c #F7AA19",
"&. c #F7A81B",
"*. c #F7A91B",
"=. c #F7AA1B",
"-. c #F7AC1B",
";. c #F7AF1A",
":. c #F7AE1B",
">. c #F6AE1D",
",. c #E6BD18",
"<. c #F7B11A",
"1. c #F8B31A",
"2. c #F8B51A",
"3. c #F8B61A",
"4. c #F8B71A",
"5. c #F6BE1E",
"6. c #F8BB19",
"7. c #F8BA1A",
"8. c #F8BB1A",
"9. c #F8BE1A",
"0. c #F68F21",
"q. c #F69023",
"w. c #F79C36",
"e. c #F79D3F",
"r. c #D6B322",
"t. c #D1B234",
"y. c #F5AC21",
"u. c #F5AD21",
"i. c #F4B021",
"p. c #F5BB21",
"a. c #F4B823",
"s. c #F4B923",
"d. c #F4BA23",
"f. c #F6B83B",
"g. c #F7C11C",
"h. c #F8C219",
"j. c #F8C11A",
"k. c #F8C21A",
"l. c #F8C31B",
"z. c #F8C41A",
"x. c #F8C61A",
"c. c #F8C71A",
"v. c #F9C91A",
"b. c #F8CA1A",
"n. c #F9CA1A",
"m. c #F9CB1A",
"M. c #F8CB1B",
"N. c #F9CC1A",
"B. c #F9CD1A",
"V. c #F9CE1A",
"C. c #F7D51E",
"Z. c #F7D71F",
"A. c #F8D01B",
"S. c #F8D31D",
"D. c #CECC26",
"F. c #F4CB26",
"G. c #F4CD26",
"H. c #F9CF22",
"J. c #F9CF26",
"K. c #F3D227",
"L. c #F8D523",
"P. c #F7D820",
"I. c #F7D920",
"U. c #F6DA20",
"Y. c #F6DC21",
"T. c #F6DC22",
"R. c #F6DE23",
"E. c #F4DB26",
"W. c #F3DB28",
"Q. c #F7DA2B",
"!. c #F3DD29",
"~. c #F3DF29",
"^. c #F9D335",
"/. c #F9D337",
"(. c #F5D73C",
"). c #F6E023",
"_. c #F5E325",
"`. c #F4E426",
"'. c #F5E426",
"]. c #F4E626",
"[. c #F3E129",
"{. c #F3EB29",
"}. c #F4E928",
"|. c #F4EA29",
" X c #F3ED2B",
".X c #F3F02C",
"XX c #F3F033",
"oX c #F8A854",
"OX c #F8AA58",
"+X c #C6B367",
"@X c #F9AF62",
"#X c #F8BC62",
"$X c #FAD84C",
"%X c #F5ED44",
"&X c #F5F24C",
"*X c #F7E751",
"=X c #F5F356",
"-X c #FAD269",
";X c #FBDE69",
":X c #F7EE61",
">X c #F6EF6A",
",X c #F7F570",
"<X c #F7F572",
"1X c #F7F576",
"2X c #F7F67E",
"3X c #FAC48B",
"4X c #ECD780",
"5X c #EBD784",
"6X c #FBCB98",
"7X c #FBE483",
"8X c #FBE485",
"9X c #FAEA81",
"0X c #F8F78D",
"qX c #F8F78E",
"wX c #EAE59D",
"eX c #FCE793",
"rX c #FAE19D",
"tX c #F9F89B",
"yX c #F9F89F",
"uX c #FBD6A8",
"iX c #FDEEB2",
"pX c #FAF9B3",
"aX c #FBFAB6",
"sX c #FCF4BA",
"dX c #FDF0BE",
"fX c #FBFABA",
"gX c #D8D8D8",
"hX c #FCE7C9",
"jX c #FDF7D6",
"kX c #FCFBD0",
"lX c #F4F0DB",
"zX c #FEF7DB",
"xX c #FDFCDA",
"cX c #FDFCDB",
"vX c #FDFCDC",
"bX c #FEF8E1",
"nX c #FEF9E3",
"mX c #FDFDE1",
"MX c #FDFDE3",
"NX c #FEFAF6",
"BX c #FEFEF5",
"VX c #FEFDF7",
"CX c #FEFEF7",
"ZX c #FEFEFC",
"AX c white",
"SX c None",
/* pixels */
"SXSXSXSXSXSXSXSXSXSXSXSXSXSXSXSXSXSXSXSXSXSXSXSXSXSXSXSXSXSXSXSXSXSXSXSXSXSXSXSXSXSXSXSXSXSXSXSXSXSXSXSXSXSXSXSXSXSXSXSX",
"SXSXSXSXSXSXSXSXSXSXSXSXSXSXSXSXSXSXSXSXSXSXSXSXSXSXSXSXSXSXSXSXSXSXSXSXSXSXSXSXSXSXSXSXSXSXSXSXSXSXSXSXSXSXSXSXSXSXSXSX",
"SXSXSXSXSXSXSXSXSXSXSXSXSXSXSXSXSXSXSXSXSXSXSXSXSXSXSXSXSXSXSXSXSXSXSXSXSXSXSXSXSXSXSXSXSXSXSXSXSXSXSXSXSXSXSXSXSXSXSXSX",
"SXSXSXSXSXSXSXSXSXSXSXSXSXSXSXSXSXSXSXSXSXSXSXSXSXSXSXSXSXSXSXSXSXSXSXSXSXSXSXSXSXSXSXSXSXSXSXSXSXSXSXSXSXSXSXSXSXSXSXSX",
"SXSXSXSXSXSXSXSXSXSXSXSXSXSXSXSXSXSXSXSXSXSXSXSXSXSXSXSXSXSXSXSXSXSXSXSXSXSXSXSXSXSXSXSXSXSXSXSXSXSXSXSXSXSXSXSXSXSXSXSX",
"SXSXSXSXSXSXSXSXSXSXSXSXSXSXSXSXSXSXSXSXSXSXSXSXSXSXSXSXSXSXSXSXSXSXSXSXSXSXSXSXSXSXSXSXSXSXSXSXSXSXSXSXSXSXSXSXSXSXSXSX",
"SXSXSXSXSXSXSXSXSXSXSXSXSXSXSXSXSXSXSXSXSXSXSXSXSXSXSXSXSXSXSXSXSXSXSXSXSXSXSXSXSXSXSXSXSXSXSXSXSXSXSXSXSXSXSXSXSXSXSXSX",
"SXSXSXSXSXSXSXSXSXSXSXSXSXSXSXSXSXSXSXSXSXSXSXSXSXSXSXSXSXSXSXSXSXSXSXSXSXSXSXSXSXSXSXSXSXSXSXSXSXSXSXSXSXSXSXSXSXSXSXSX",
"SXSXSXSXSXSXSXSXSXSXSXSXSXSXSXSXSXSXSXSXSXSXSXSXSXSXSXSXSXSXSXSXSXSXSXSXSXSXSXSXSXSXSXSXSXSXSXSXSXSXSXSXSXSXSXSXSXSXSXSX",
"SXSXSXSXSXSXSXSXSXSXSXSXSXSXSXSXSXSXSXSXSXSXX X X X X X X X X X X X X X SXSXSXSXSXSXSXSXSXSXSXSXSXSXSXSXSXSXSXSXSXSXSXSX",
"SXSXSXSXSXSXSXSXSXSXSXSXSXSXSXSXSXSXSXSXSX  X 2 8 8 8 8 8 8 8 8 8 8 8 o X SXSXSXSXSXSXSXSXSXSXSXSXSXSXSXSXSXSXSXSXSXSXSX",
"SXSXSXSXSXSXSXSXSXSXSXSXSXSXSXSXSXSXSXX X X X J B.B.B.B.B.B.B.B.B.B.B.= X X X X SXSXSXSXSXSXSXSXSXSXSXSXSXSXSXSXSXSXSXSX",
"SXSXSXSXSXSXSXSXSXSXSXSXSXSXSXSXX X X X k t.gXlXzXzX:XE.~ ~ p.|.V.B.B. .| | @ X X SXSXSXSXSXSXSXSXSXSXSXSXSXSXSXSXSXSXSX",
"SXSXSXSXSXSXSXSXSXSXSXSXSXSXSXSXX 1 0 u +X7XAXkXaXaX=X~.I I d..XU.I.I.B.B.B.q 8 8 SXSXSXSXSXSXSXSXSXSXSXSXSXSXSXSXSXSXSX",
"SXSXSXSXSXSXSXSXSXSXSXSXSXSXX X X x ^.AXAXAXAX<X.X.X.X~.I I d..X.X.X.XV.B.B.B.B.B.X SXSXSXSXSXSXSXSXSXSXSXSXSXSXSXSXSXSX",
"SXSXSXSXSXSXSXSXSXSXSXSXSXX X - D.wXnXAXqX&X&XL.V.V.V.l.I I =.V.V.V.V.B.B.B.B.B.B.| e X SXSXSXSXSXSXSXSXSXSXSXSXSXSXSXSX",
"SXSXSXSXSXSXSXSXSXSXSXSXSXX < t 0XxXCXaX*X).).g.3.3.3.:.I I ] 3.3.3.3.N.B.B.B.B.B.4.H 9 SXSXSXSXSXSXSXSXSXSXSXSXSXSXSXSX",
"SXSXSXSXSXSXSXSXSXSXSXX X X z J.AXAXmX.XC.B.B.o.I I I I I I I I I I I n.B.B.B.B.B.I -.B.X SXSXSXSXSXSXSXSXSXSXSXSXSXSXSX",
"SXSXSXSXSXSXSXSXSXSXSXX @ | 5XbXAX6Xw.{ ^ ~ ~ Y I I 9.n.n.n.n.n.Q I I Q ;.B.[ ~ ~ n.m.B.| e X SXSXSXSXSXSXSXSXSXSXSXSXSX",
"SXSXSXSXSXSXSXSXSXSXSXX ; ;XdXZXaX#XI I I I I O.=.=.c.B.B.B.B.B.;.=.=.T ] 3.R I I B.B.B.B.y X SXSXSXSXSXSXSXSXSXSXSXSXSX",
"SXSXSXSXSXSXSXSXSXSXX X : AXAXBX.Xa.I I I I I k.B.B.B.B.B.B.B.B.B.B.B.~ I I I I I B.B.B.B.y X X SXSXSXSXSXSXSXSXSXSXSXSX",
"SXSXSXSXSXSXSXSXSXSXX r r.AXyX%XV.=.I I I ' n.N./.zXzXsX|.|.|.|.|.T.B.m.1.I I &.n.B.B.B.B.,.} X X X SXSXSXSXSXSXSXSXSXSX",
"SXSXSXSXSXSXSXSXSXSXX l H.AX0X|.B.=.I I O.2.B.$X8XAXkXfX0X(.!..X.X].I.B.j.=.T [ 3.B.B.B.B.B.B.X X X SXSXSXSXSXSXSXSXSXSX",
"SXSXSXSXSXSXSXSXX X X l H.AX0X|.B.=.I I k.B.B.iXAXAX,X2XAXoXs..X.X.X.XV.B.B.~ I I B.B.B.B.B.B.X X X SXSXSXSXSXSXSXSXSXSX",
"SXSXSXSXSXSXSXSXX O | 4XjX&XQ.M.~ T ' n.N./.zXVXMX&XcXhXe.0.s..X.X.X.X{.T.B.m.1.I ! <.B.B.B.B.| w X X SXSXSXSXSXSXSXSXSX",
"SXSXSXSXSXSXSXSXX @ B.eXCX.XP.v.I I X.B.$X8XAXkXtX.XrX3XI I s..X.X.X.X.X].I.B.3.I I -.B.B.B.B.B.K 7 X SXSXSXSXSXSXSXSXSX",
"SXSXSXSXSXSXSXSXX @ B.eXCX.XP.v.I I X.B.iXAXAX<X.X.Xy.I I I s..X.X.X.X.X.X.XV.3.I I -.B.B.B.B.B.B.B.X SXSXSXSXSXSXSXSXSX",
"SXSXSXSXSXSXSXSXX @ B.eXCX.XP.v.I 1.m.B.iXMX&XXX.X.X X>XNXOXs..X.X.X.X.X.X.XV.N.n.I -.B.B.B.B.B.B.B.X SXSXSXSXSXSXSXSXSX",
"SXSXSXSXSXSXSXSXX @ B.-XuXG.5.1.I 3.B.B.iXvX.X.X.X.X.X<XAX@Xs..X.X.X.X.X.X.XV.B.B.I X.3.3.3.4.B.B.B.X SXSXSXSXSXSXSXSXSX",
"SXSXSXSXSXSXSXSXX @ B.=.I I I I I 3.B.B.iXvX.X.X.X.X.X<XAX@Xs..X.X.X.X.X.X.XV.B.B.I I I I I U B.B.B.X SXSXSXSXSXSXSXSXSX",
"SXSXSXSXSXSXSXSXX @ B.=.I I I I I 3.B.B.iXvX.X.X.X.X.X<XAX@Xs..X.X.X.X.X.X.XV.B.B.I I I I I I Z Z C X SXSXSXSXSXSXSXSXSX",
"SXSXSXSXSXSXSXSXX + B.7.=.d.>.#.I 3.B.B.9XtX.X.X.X.X.X<XAX@Xs..X.X.X.X.X.X.XV.B.B.I _ =.=.=.=.m m m X SXSXSXSXSXSXSXSXSX",
"SXSXSXSXSXSXSXSXX @ B.B.V..XP.v.I 3.B.B.'..X.X.X.X.X.X<XAX@Xs..X.X.X.X.X.X.XV.B.B.I -.B.B.B.B.m m m X SXSXSXSXSXSXSXSXSX",
"SXSXSXSXSXSXSXSXX @ B.B.V..XP.v.I R *.B.'..X.X.X.X.X.X<XAX@Xs..X.X.X.X.X.X.XV.8.~ I -.B.B.B.B.m m m X SXSXSXSXSXSXSXSXSX",
"SXSXSXSXSXSXSXSXX @ B.B.V..XP.v.I I X.B.I._..X.X.X.X1XpXAX@Xs..X.X.X.X.X}.).B.3.I I -.B.B.6.%.m g p X SXSXSXSXSXSXSXSXSX",
"SXSXSXSXSXSXSXSXX @ B.B.V..XP.v.I I X.B.B.S..X.X.X.XvXAXAX@Xs..X.X.X.X.X).B.B.3.I I -.B.B./ m m 5 X SXSXSXSXSXSXSXSXSXSX",
"SXSXSXSXSXSXSXSXX X = v B.V.R.`.n.+.Y ~ z.B.V.]..X.Xf.e.e.q.s..X.X.X.XA.B.B.[ R I n.m.B.B./ m $ . SXSXSXSXSXSXSXSXSXSXSX",
"SXSXSXSXSXSXSXSXSXX X j B.B.Z.Y.B.&.I I :.9.B.I._..XF.d.d.d.K..X.X}.).B.x.3.R ( =.B.B.B.%.P m X SXSXSXSXSXSXSXSXSXSXSXSX",
"SXSXSXSXSXSXSXSXSXSXX j B.B.B.B.B.&.I I I X.B.B.S..X.X.X.X.X.X.X.X).B.B.3.I I =.B.B.B.B.m m m X SXSXSXSXSXSXSXSXSXSXSXSX",
"SXSXSXSXSXSXSXSXSXSXX O , B.B.B.B.&.I I I Y ~ z.B.V.V.V.V.V.V.V.V.B.B.[ R I I T ~ B...Z m i $ X SXSXSXSXSXSXSXSXSXSXSXSX",
"SXSXSXSXSXSXSXSXSXSXX X * B.B.N.3.` I I u.i.I :.3.3.b.B.B.B.B.B.8.3.3.R ( =.T I I B./ m m 5 X X SXSXSXSXSXSXSXSXSXSXSXSX",
"SXSXSXSXSXSXSXSXSXSXSXX * B.B.v.I I I I W.[.I I I I k.B.B.B.B.B.~ I I I =.B.~ I I B./ m m 5 X SXSXSXSXSXSXSXSXSXSXSXSXSX",
"SXSXSXSXSXSXSXSXSXSXSXX X = b v.I I ' n.B.B.n.' I I E ~ ~ ~ ~ ~ U I I x.m.B.m.n.n.~ D m $ . SXSXSXSXSXSXSXSXSXSXSXSXSXSX",
"SXSXSXSXSXSXSXSXSXSXSXSXX X 6 c =.=.2.B.B.B.B.2.=.=.=.O.I I ( =.=.=.=.m.h.%.%.%.%.F h p X SXSXSXSXSXSXSXSXSXSXSXSXSXSXSX",
"SXSXSXSXSXSXSXSXSXSXSXSXSXSXX = B.B.B.B.B.B.B.B.B.B.B.k.I I =.B.B.B.B.B.$.m m m m m 5 X SXSXSXSXSXSXSXSXSXSXSXSXSXSXSXSX",
"SXSXSXSXSXSXSXSXSXSXSXSXSXSXSXSX= s Z Z Z W B.B.B.B.B.k.I I =.B.L Z Z Z V m m m m $ . SXSXSXSXSXSXSXSXSXSXSXSXSXSXSXSXSX",
"SXSXSXSXSXSXSXSXSXSXSXSXSXSXSXSXX 3 p p n A %.%.%.%.%.@.I I ) %.V m m m m m a p p X SXSXSXSXSXSXSXSXSXSXSXSXSXSXSXSXSXSX",
"SXSXSXSXSXSXSXSXSXSXSXSXSXSXSXSXSXX X X d m m m m m m S I I G m m m m m m m # X X SXSXSXSXSXSXSXSXSXSXSXSXSXSXSXSXSXSXSX",
"SXSXSXSXSXSXSXSXSXSXSXSXSXSXSXSXSXSXSXSX& $ $ f m m m M B B N m m m m > $ $ SXSXSXSXSXSXSXSXSXSXSXSXSXSXSXSXSXSXSXSXSXSX",
"SXSXSXSXSXSXSXSXSXSXSXSXSXSXSXSXSXSXSXSXSXX X 4 p p p p p p p p p p p % X X SXSXSXSXSXSXSXSXSXSXSXSXSXSXSXSXSXSXSXSXSXSX",
"SXSXSXSXSXSXSXSXSXSXSXSXSXSXSXSXSXSXSXSXSXSXX X X X X X X X X X X X X SXSXSXSXSXSXSXSXSXSXSXSXSXSXSXSXSXSXSXSXSXSXSXSXSX",
"SXSXSXSXSXSXSXSXSXSXSXSXSXSXSXSXSXSXSXSXSXSXSXSXSXSXSXSXSXSXSXSXSXSXSXSXSXSXSXSXSXSXSXSXSXSXSXSXSXSXSXSXSXSXSXSXSXSXSXSX",
"SXSXSXSXSXSXSXSXSXSXSXSXSXSXSXSXSXSXSXSXSXSXSXSXSXSXSXSXSXSXSXSXSXSXSXSXSXSXSXSXSXSXSXSXSXSXSXSXSXSXSXSXSXSXSXSXSXSXSXSX",
"SXSXSXSXSXSXSXSXSXSXSXSXSXSXSXSXSXSXSXSXSXSXSXSXSXSXSXSXSXSXSXSXSXSXSXSXSXSXSXSXSXSXSXSXSXSXSXSXSXSXSXSXSXSXSXSXSXSXSXSX",
"SXSXSXSXSXSXSXSXSXSXSXSXSXSXSXSXSXSXSXSXSXSXSXSXSXSXSXSXSXSXSXSXSXSXSXSXSXSXSXSXSXSXSXSXSXSXSXSXSXSXSXSXSXSXSXSXSXSXSXSX",
"SXSXSXSXSXSXSXSXSXSXSXSXSXSXSXSXSXSXSXSXSXSXSXSXSXSXSXSXSXSXSXSXSXSXSXSXSXSXSXSXSXSXSXSXSXSXSXSXSXSXSXSXSXSXSXSXSXSXSXSX",
"SXSXSXSXSXSXSXSXSXSXSXSXSXSXSXSXSXSXSXSXSXSXSXSXSXSXSXSXSXSXSXSXSXSXSXSXSXSXSXSXSXSXSXSXSXSXSXSXSXSXSXSXSXSXSXSXSXSXSXSX",
"SXSXSXSXSXSXSXSXSXSXSXSXSXSXSXSXSXSXSXSXSXSXSXSXSXSXSXSXSXSXSXSXSXSXSXSXSXSXSXSXSXSXSXSXSXSXSXSXSXSXSXSXSXSXSXSXSXSXSXSX",
"SXSXSXSXSXSXSXSXSXSXSXSXSXSXSXSXSXSXSXSXSXSXSXSXSXSXSXSXSXSXSXSXSXSXSXSXSXSXSXSXSXSXSXSXSXSXSXSXSXSXSXSXSXSXSXSXSXSXSXSX",
"SXSXSXSXSXSXSXSXSXSXSXSXSXSXSXSXSXSXSXSXSXSXSXSXSXSXSXSXSXSXSXSXSXSXSXSXSXSXSXSXSXSXSXSXSXSXSXSXSXSXSXSXSXSXSXSXSXSXSXSX"
};
