/* XPM */
static char *result[] = {
/* columns rows colors chars-per-pixel */
"60 60 189 2 ",
"   c #2D0B0E",
".  c #27191B",
"X  c #341215",
"o  c #3F1215",
"O  c #231F20",
"+  c #341D20",
"@  c #4A070C",
"#  c #49090E",
"$  c #51080E",
"%  c #480D11",
"&  c #550D13",
"*  c #5C0B12",
"=  c #481015",
"-  c #5B151C",
";  c #610C12",
":  c #6B0D15",
">  c #770E18",
",  c #7D0F1A",
"<  c #700D16",
"1  c #671113",
"2  c #6B1314",
"3  c #6C1D14",
"4  c #66141C",
"5  c #661F12",
"6  c #791515",
"7  c #74151E",
"8  c #7F101B",
"9  c #711C18",
"0  c #741A15",
"q  c #5F2817",
"w  c #622019",
"e  c #782316",
"r  c #7B301C",
"t  c #421F22",
"y  c #4B1C22",
"u  c #5A1D23",
"i  c #6B1C25",
"p  c #741720",
"a  c #721D26",
"s  c #7C1C26",
"d  c #7D1520",
"f  c #462E22",
"g  c #463322",
"h  c #7C5824",
"j  c #82111C",
"k  c #8D121E",
"l  c #93171F",
"z  c #882717",
"x  c #8A251A",
"c  c #872919",
"v  c #8D2C1A",
"b  c #822D17",
"n  c #97271E",
"m  c #952F1A",
"M  c #8D341A",
"N  c #833618",
"B  c #95331B",
"V  c #9C361C",
"C  c #933B1B",
"Z  c #A23C1E",
"A  c #881621",
"S  c #881B26",
"D  c #921320",
"F  c #9B1522",
"G  c #9C1920",
"H  c #941D29",
"J  c #A41625",
"K  c #AB1726",
"L  c #A21822",
"P  c #AD1A26",
"I  c #B31929",
"U  c #BE1B2C",
"Y  c #9E2521",
"T  c #942827",
"R  c #8E3F20",
"E  c #853B20",
"W  c #9F3C20",
"Q  c #9E2E3A",
"!  c #A12921",
"~  c #AD2D24",
"^  c #A12222",
"/  c #B92728",
"(  c #AB3322",
")  c #AA3C20",
"_  c #B63626",
"`  c #BF3828",
"'  c #B83926",
"]  c #C01E2C",
"[  c #C3242C",
"{  c #C52B2B",
"}  c #C92D2C",
"|  c #CB342C",
" . c #C53B29",
".. c #CE3F2B",
"X. c #D03A2C",
"o. c #98431C",
"O. c #A5421E",
"+. c #AC421F",
"@. c #A84E1E",
"#. c #AC591E",
"$. c #AD561F",
"%. c #B75C1F",
"&. c #8F4322",
"*. c #984C25",
"=. c #815624",
"-. c #9D5A25",
";. c #AB4520",
":. c #AA4821",
">. c #B34422",
",. c #BB4325",
"<. c #B24A21",
"1. c #BA4C22",
"2. c #AA5627",
"3. c #A35828",
"4. c #AE5D29",
"5. c #BB5123",
"6. c #B75D22",
"7. c #BB5C22",
"8. c #BA6120",
"9. c #BA6821",
"0. c #B36823",
"q. c #B97221",
"w. c #BA7D20",
"e. c #BA7B28",
"r. c #C24527",
"t. c #C34A27",
"y. c #CC452A",
"u. c #D3452C",
"i. c #D34B2B",
"p. c #DA4E2C",
"a. c #C25625",
"s. c #C45B25",
"d. c #CA5D25",
"f. c #DA552C",
"g. c #D65B2A",
"h. c #DA5D2B",
"j. c #D7552B",
"k. c #C66623",
"l. c #C56527",
"z. c #D36327",
"x. c #DD632B",
"c. c #DE6A2A",
"v. c #D16D27",
"b. c #CD7524",
"n. c #CF7A24",
"m. c #C17029",
"M. c #C47022",
"N. c #D47526",
"B. c #D37D25",
"V. c #DB7C25",
"C. c #D8772A",
"Z. c #E9672D",
"A. c #E26D2B",
"S. c #E4652C",
"D. c #E4722B",
"F. c #EA752C",
"G. c #ED792C",
"H. c #E67A2B",
"J. c #F57D2E",
"K. c #F0752D",
"L. c #A43A45",
"P. c #B13743",
"I. c #9C454E",
"U. c #D98118",
"Y. c #DD8626",
"T. c #D08324",
"R. c #DE9429",
"E. c #E18D27",
"W. c #EA822B",
"Q. c #E48C28",
"!. c #ED8B2B",
"~. c #F4832D",
"^. c #F68B2D",
"/. c #E49426",
"(. c #E39529",
"). c #EB9529",
"_. c #EE9A2A",
"`. c #EA9522",
"'. c #F09E26",
"]. c #F6932C",
"[. c #F49B2B",
"{. c #F89C2B",
"}. c #F4A12A",
"|. c #F9A62B",
" X c #D47A83",
".X c #DEAEB3",
"XX c #E6AAB0",
"oX c #FBF6F7",
"OX c None",
/* pixels */
"OXOXOXOXOXOXOXOXOXOXOXOXOXOXOXOXOXOXOXOXOXOXOXOXOXOXOXOXOXOXOXOXOXOXOXOXOXOXOXOXOXOXOXOXOXOXOXOXOXOXOXOXOXOXOXOXOXOXOXOX",
"OXOXOXOXOXOXOXOXOXOXOXOXOXOXOXOXOXOXOXOXOXOXOXOXOXOXOXOXOXOXOXOXOXOXOXOXOXOXOXOXOXOXOXOXOXOXOXOXOXOXOXOXOXOXOXOXOXOXOXOX",
"OXOXOXOXOXOXOXOXOXOXOXOXOXOXOXOXOXOXOXOXOXOXOXOXOXOXOXOXOXOXOXOXOXOXOXOXOXOXOXOXOXOXOXOXOXOXOXOXOXOXOXOXOXOXOXOXOXOXOXOX",
"OXOXOXOXOXOXOXOXOXOXOXOXOXOXOXOXOXOXOXOXOXOXO OXOXOXOXOXOX@ @ OXOXOXOXOXOXOXOXOXOXOXOXOXOXOXOXOXOXOXOXOXOXOXOXOXOXOXOXOX",
"OXOXOXOXOXOXOXOXOXOXOXOXOXOXOXOXOXOXOXOXOXy U s OXOXOX. # ] I % + OXOXOXOXOXOXOXOXOXOXOXOXOXOXOXOXOXOXOXOXOXOXOXOXOXOXOX",
"OXOXOXOXOXOXOXOXOXOXOXOXOXOXOXOXOXOXOXOXOXU U U a o $ @ k ] U I j ; OXOXOXOXOXOXOXOXOXOXOXOXOXOXOXOXOXOXOXOXOXOXOXOXOXOX",
"OXOXOXOXOXOXOXOXOXOXOXOXOXOXOXOXOXOXOXOXOXI ] U J J U U U U U K F U s OXOXOXOXOXOXOXOXOXOXOXOXOXOXOXOXOXOXOXOXOXOXOXOXOX",
"OXOXOXOXOXOXOXOXOXOXOXOXOXOXOXOXOXOXOXOXOXA H J D D J U J I K D D J I S OXOXOXOXOXOXOXOXOXOXOXOXOXOXOXOXOXOXOXOXOXOXOXOX",
"OXOXOXOXOXOXOXOXOXOXOXOXOXOXOXOXOXOXOXOXOXOX- l D D D I U J D D D F K U OXOXOXO OXOXOXOXOXOXOXOXOXOXOXOXOXOXOXOXOXOXOXOX",
"OXOXOXOXOXOXOXOXOXOXOXOXOXOXOXOXOXOXOXOXOXOX% k F D F U U U J D D K ] ] > , U X OXOXOXOXOXOXOXOXOXOXOXOXOXOXOXOXOXOXOXOX",
"OXOXOXOXOXOXOXOXOXOXOXOXOXOXOXOXOXOXOXOXOXOX; k I K U U U U U K K I ] U F U U @ OXOXOXOXOXOXJ.OXOXOXOXOXOXOXOXOXOXOXOXOX",
"OXOXOXOXOXOXOXOXOXOXOXOXOXOXOXOXOXOXOXOXOXOX- J u.x.| U ] x.x.U U ] U ] K J , OXOXOXOXOXOXOXJ.OXOXOXOXOXOXOXOXOXOXOXOXOX",
"OXOXOXOXOXOXOXOXOXOXOXOXOXOXOXOXOXOXOXOXOXOX4 u.V.`.V.{ D.U.}.a.K U U U J : OXOXOXOXOXOXOXOXJ.OXOXOXOXOXOXOXOXOXOXOXOXOX",
"OXOXOXOXOXOXOXOXOXOXOXOXOXOXOXOXOXOX|.OXOXOX< [ c.(.<.I } _.T.Y U ] U ] I ; OXOXOXOXOXOXOXJ.J.OXOXOXOXOXOXOXOXOXOXOXOXOX",
"OXOXOXOXOXOXOXOXOXOXOXOXOXOXOXOXOXO (.OXOXOXu U ~ Y P U U ^ Y I ] U ] K F * OXOXOXOXOXOXOXJ.[.OXOXOXOXOXOXOXOXOXOXOXOXOX",
"OXOXOXOXOXOXOXOXOXOXOXOXOXOXOXOXOXO O OXOXOXOXi U U U ] ] ] ] U U U J k * OXOXOXOXOXOXOXOXJ.OXOXOXOXOXOXOXOXOXOXOXOXOXOX",
"OXOXOXOXOXOXOXOXOXOXOXOXOXOXOXOXOXOXOXOXOXOXOXA J D K U U U U D J K D : @ OXOXOXOXOXOXOXF.J.OXOXOXOXOXOXOXOXOXOXOXOXOXOX",
"OXOXOXOXOXOXOXOXOXOXOXOXOXOX2 OXOXOXOXOXOXOXOXO a J Q H A L.D F I J J ; OXOXOXOXOXOXOX7.z.F.].OXOXOXOXOXOXOXOXOXOXOXOXOX",
"OXOXOXOXOXOXOXOXOXOXOXOXOXOXs.OXOXOXOXOXOXOXOXOXp J .XI., oXD K U K 8 & OXOXOXOXOXOX|.6.1.d.E.OXOXOXOXOXOXOXOXOXOXOXOXOX",
"OXOXOXOXOXOXOXOXOXOXOXOXOXOXl.8.OXOXOXOXOXOXOX  * H  XP.J XXJ U I J i . OXOXOXOXOXOXOXOXZ +.V.~.OXOXOXOXOXOXOXOXOXOXOXOX",
"OXOXOXOXOXOXOXOXOXOXOXOXOXq q.~.OXOXOXOXOXOX% p 7 D K U U ] ] U K K D > 7 X OXOXOXOXOXm 6 x OXOXOXOXOXOXOXOXOXOXOXOXOXOX",
"OXOXOXOXOXOXOXOXOXOX; ; : +.~.~.OXOXOXOXOX: F U I I F F J J J J K U I I I s j @ OXOXOX1.6 3 OXOXOXOXOXOXOXOXOXOXOXOXOXOX",
"OXOXOXOXOXOXOXOXOXOX4 ) : +.J.J.OX* OXOXOXF I U I U I K K F J K U ] U U I I I , f J.J.o.OXY.OXOXOXOXOXOXOXOXOXOXOXOXOXOX",
"OXOXOXOXOXOXOXOXOXOX1 c.* ) ^.^.OX; OXOX: ] ] u.X.] ] U ] U U I U U U ] ] U I U T J.J.OXOX|.OXOXOXOXOXOXOXOXOXOXOXOXOXOX",
"OXOXOXOXOXOXOXOXOXOX; v 2.=.|.^.OX; (.OX) ] U g.h.] ] U ] U U U ] ] ] U ] U ] t [ Z.h.OXOX~.OXOXOXOXOXOXOXOXOXOXOXOXOXOX",
"OXOXOXOXOXOXOXOXOXOX1 D.e.h |.].OX; (.OX;.] | ~.h.] U ] U ] U ] P L U ] U ] ] 2 { J.~.].OXJ.OXOXOXOXOXOXOXOXOXOXOXOXOXOX",
"OXOXOXOXOXOXOXOXOXOX1 ~.|.|.].J.OX}.|.OX+ ] ] [ ] ] ] U U ] ] U L l [ U ] U U > OXZ.[ OXOX~.OX|.OXOXOXOXOXOXOXOXOXOXOXOX",
"OXOXOXOXOXOXOXOXOXOX2 ~.|.|.|.^.B B.|.; : ] X.^.h.] ] ] ] ] ] K 6 %.h.U U ] U , } ~.|.OX].OX|.|.OX<.OXOXOXOXOXOXOXOXOXOX",
"OXOXOXOXOXOXOXOXOXOX1 C.^.|.w.^.C B.|.f U ] | J.J.X.] ] U ] ] K 6 %.h.U I U U 9 J.OX|.OX{.OXOXOX}.<.OXOXOXOXOXOXOXOXOXOX",
"OXOXOXOXOXOXOXOXOXOX& g {.|.|.|.9.E.b.F ] U X.p.I I I ] ] K U I l >.y.I J I I u p.} w.].6.OXOXOXOXV OXOXOXOXOXOXOXOXOXOX",
"OXOXOXOXOXOXOXOXOXOXOX-.~.w.|.w.|.|.6.; U ] [ ` F J I ] ] F I U I  . .K F OXI I u.X.|.q.OX^.].}.<.OXOXOXOXOXOXOXOXOXOXOX",
"OXOXOXOXOXOXOXOXOXOXOX6.~.OX|.w.|.|.}.l ] ] ] [ ~ J I U ] J I I I g.W._ ' OXI i.J.A.].q.OX^.d.6.B OXOXOXOXOXOXOXOXOXOXOX",
"OXOXOXOXOXOXOXOXOXOXOXJ.~.|.|.|.|.|.|.] OX] ] } ~ K I U U I K I I ` a.~ g.OXOXu.f.{.J.].^.].N.k.6 OXOXOXOXOXOXOXOXOXOXOX",
"OXOXOXOXOXOXOXOXOXOX2 OX~.^.|.|.|.|.|.] ] [ r.OXOXOX, K U U I I I ..,.D g.OXOXU { {.J.].OX|.OXO.6 OXOXOXOXOXOXOXOXOXOXOX",
"OXOXOXOXOXOXOXOXOXOXOX2 ;.^.|.H.W.|.|.U D.} a.OXOXJ.v K ] U ] U U h.Q.' g.OXOX] } |.D.D.|.OXc 6 OXOXOXOXOXOXOXOXOXOXOXOX",
"OXOXOXOXOXOXOXOXOXOX<.c.a.$.|.[.}.|.|.0 |.OXF.OXOXJ.B K U ] U ] U x.|._.~.J.OX[ F.|.}.[.V.B V O.OXOXOXOXOXOXOXOXOXOXOXOX",
"OXOXOXOXOXOXOXOXOXOX<.J.J.J.].|.|.|.~.; |.).<.OXOXJ.B K U U U U ] U x.|.|.OXJ.J.~.|.|.|.N.v OXOXOXOXOXOXOXOXOXOXOXOXOXOX",
"OXOXOXOXOXOXOXOXOXOXOXJ.K.J.].|.|.~.J.: '.).1.OXOX) : F U U U U U ] S.=.OXJ.J.K.| |.|.|.N.m OXOXOXOXOXOXOXOXOXOXOXOXOXOX",
"OXOXOXOXOXOXOXOXOXOXOXOX<.d.G.J.J.J.J.* 3 }.~.OXOX .I P U U ] U U U f.l.OX~.J.J.OX|.|.].G.D.OXOXOXOXOXOXOXOXOXOXOXOXOXOX",
"OXOXOXOXOXOXOXOXOXOXOXOXOXOXd.K.J.J.J.; 9 |.OXOXOXP U I P U U U I U / t.Y.OXJ.OXOXOXOX~.s.+.<.OXOXOXOXOXOXOXOXOXOXOXOXOX",
"OXOXOXOXOXOXOXOXOXOXOXOXOXOXOXd.F.OXJ.; OXOXOXOXOX_ J I I I U I I G %.|.k.G.OX^.^.J.OXN.V OXOXOXOXOXOXOXOXOXOXOXOXOXOXOX",
"OXOXOXOXOXOXOXOXOXOXOXOXOXOXOX<.s.<.;.OXOX7.|.OXr.x j J I I I P I G 8.|.k.).|.|.{.~.w.q.&.OXOXOXOXOXOXOXOXOXOXOXOXOXOXOX",
"OXOXOXOXOXOXOXOXOXOXOXOXOXOXOX<.<.5 * J.OXOXOXOXJ.Z , D K j I I I I Z Q.k.).|.].].^.|.-.r OXOXOXOXOXOXOXOXOXOXOXOXOXOXOX",
"OXOXOXOXOXOXOXOXOXOXOXOXOXOXOXOXOXOXOX) OXOXOXv <.Z j D D OXOXI I ] r.Q.k.OX].J.J.~.|.#.w OXOXOXOXOXOXOXOXOXOXOXOXOXOXOX",
"OXOXOXOXOXOXOXOXOXOXOXOXOXOXOXOXOXOXOXs.J.OXQ.E *.W : j v.OXOXU I ] x.|.k.D.J.J.J.~.|.#.OXOXOXOXOXOXOXOXOXOXOXOXOXOXOXOX",
"OXOXOXOXOXOXOXOXOXOXOXOXOXOXOXOXOXOXOXJ.~.|.{.s.7.) ; j [.|.OXp.] u.].A.,.F.J.J.J.^.|.#.OXOXOXOXOXOXOXOXOXOXOXOXOXOXOXOX",
"OXOXOXOXOXOXOXOXOXOXOXOXOXOXOXOXOXOXOXJ.OX|.{.z.) D < j OX~.J.~.c.[ A.j.OXOXJ.|.{.~.OX#.OXOXOXOXOXOXOXOXOXOXOXOXOXOXOXOX",
"OXOXOXOXOXOXOXOXOXOXOXOXOXOXOXOXOXOXOXJ.J.~.[.J.r.D C.( OXJ.|.|.|.x.x.j.OXOXJ.|.{.^.9.; OXOXOXOXOXOXOXOXOXOXOXOXOXOXOXOX",
"OXOXOXOXOXOXOXOXOXOXOXOXOXOXOXOXOXOXOX1 J.~.|.|.~.r.C.}.OX|.OX|.|.x.c.^.OXOXJ.~.|.|.R.OXOXOXOXOXOXOXOXOXOXOXOXOXOXOXOXOX",
"OXOXOXOXOXOXOXOXOXOXOXOXOXOXOXOXOXOXe 5.J.J.^.|.!.!.|.,.OXOX|.|.].].[.F.K.OXJ.|.|.{.3.OXOXOXOXOXOXOXOXOXOXOXOXOXOXOXOXOX",
"OXOXOXOXOXOXOXOXOXOXOXOXOXOXOXOXOXOXG.J.J.J.^.|.s.a.[.|.|.~.|.|.[.].h.] OXJ.~.|.}.J.2.OXOXOXOXOXOXOXOXOXOXOXOXOXOXOXOXOX",
"OXOXOXOXOXOXOXOXOXOXOXOXOXOXOXOXOX; 1.c.A.J.OX|.N.n b.|.|.^.|.|.{.].f.OX^.^.|.|.|.6.5.OXOXOXOXOXOXOXOXOXOXOXOXOXOXOXOXOX",
"OXOXOXOXOXOXOXOXOXOXOXOXOXOXOXOXOXOXOXN 1.J.9.[.|.n.Y.|.|.|.|.[.H.G.| W |.|.].|.}.^.1.OXOXOXOXOXOXOXOXOXOXOXOXOXOXOXOXOX",
"OXOXOXOXOXOXOXOXOXOXOXOXOXOXOXOXOXOXOXOX<.l.4.^.|.|.^.{.|.|.|.~.S.F.x.!.|.|.].w.|.R.v OXOXOXOXOXOXOXOXOXOXOXOXOXOXOXOXOX",
"OXOXOXOXOXOXOXOXOXOXOXOXOXOXOXOXOXOXOXOXOX:.&.D.{.|.^.[.|.|.|.].].[.|.[.].^.|.}.@.o.; OXOXOXOXOXOXOXOXOXOXOXOXOXOXOXOXOX",
"OXOXOXOXOXOXOXOXOXOXOXOXOXOXOXOXOXOXOXOXOXOXOX5.@.C OX|.|.|.|.|.|.w.M.B OXOXOXOXOXOXOXOXOXOXOXOXOXOXOXOXOXOXOXOXOXOXOXOX",
"OXOXOXOXOXOXOXOXOXOXOXOXOXOXOXOXOXOXOXOXOXOXOXOXOXOX; M _.|.|.OXb e e OXOXOXOXOXOXOXOXOXOXOXOXOXOXOXOXOXOXOXOXOXOXOXOXOX",
"OXOXOXOXOXOXOXOXOXOXOXOXOXOXOXOXOXOXOXOXOXOXOXOXOXOXOXOXOXOXOXOXOXOXOXOXOXOXOXOXOXOXOXOXOXOXOXOXOXOXOXOXOXOXOXOXOXOXOXOX",
"OXOXOXOXOXOXOXOXOXOXOXOXOXOXOXOXOXOXOXOXOXOXOXOXOXOXOXOXOXOXOXOXOXOXOXOXOXOXOXOXOXOXOXOXOXOXOXOXOXOXOXOXOXOXOXOXOXOXOXOX",
"OXOXOXOXOXOXOXOXOXOXOXOXOXOXOXOXOXOXOXOXOXOXOXOXOXOXOXOXOXOXOXOXOXOXOXOXOXOXOXOXOXOXOXOXOXOXOXOXOXOXOXOXOXOXOXOXOXOXOXOX"
};
