/* XPM */
static char *result[] = {
/* columns rows colors chars-per-pixel */
"60 60 151 2 ",
"   c #2D1722",
".  c #231F20",
"X  c #241E20",
"o  c #251E20",
"O  c #271E22",
"+  c #2A1D22",
"@  c #281F23",
"#  c #2C1C23",
"$  c #2D1C23",
"%  c #2E1C23",
"&  c #2A1F24",
"*  c #2B1F24",
"=  c #2D1F25",
"-  c #351A26",
";  c #361A26",
":  c #371A26",
">  c #381927",
",  c #391927",
"<  c #3E1829",
"1  c #42172A",
"2  c #45162B",
"3  c #44172B",
"4  c #49152C",
"5  c #401829",
"6  c #51132E",
"7  c #451C32",
"8  c #461F33",
"9  c #481C33",
"0  c #4A1C34",
"q  c #531330",
"w  c #541330",
"e  c #571231",
"r  c #521532",
"t  c #591231",
"y  c #5D1133",
"u  c #5F1133",
"i  c #5E1134",
"p  c #5F1134",
"a  c #5D1639",
"s  c #531B39",
"d  c #5A1B3D",
"f  c #5C1A3E",
"g  c #5F1A3F",
"h  c #611134",
"j  c #641138",
"k  c #641338",
"l  c #671239",
"z  c #67123A",
"x  c #69113B",
"c  c #69123B",
"v  c #4A2035",
"b  c #54253E",
"n  c #661B44",
"m  c #681A44",
"M  c #711241",
"N  c #721340",
"B  c #721242",
"V  c #761341",
"C  c #731441",
"Z  c #741442",
"A  c #771346",
"S  c #7B1348",
"D  c #7C1349",
"F  c #73194A",
"G  c #731A4B",
"H  c #79184D",
"J  c #692046",
"K  c #6E244B",
"L  c #712F4D",
"P  c #783955",
"I  c #861244",
"U  c #881141",
"Y  c #80144C",
"T  c #81144D",
"R  c #83144E",
"E  c #881248",
"W  c #86194E",
"Q  c #901144",
"!  c #941145",
"~  c #991147",
"^  c #851450",
"/  c #861450",
"(  c #8A1552",
")  c #8E1654",
"_  c #8E1556",
"`  c #8F1557",
"'  c #901557",
"]  c #901759",
"[  c #97155C",
"{  c #96165C",
"}  c #98155D",
"|  c #9A165E",
" . c #9B165F",
".. c #AC114D",
"X. c #AD114D",
"o. c #B4145D",
"O. c #B5145D",
"+. c #B7145D",
"@. c #BD135C",
"#. c #B8145D",
"$. c #882157",
"%. c #9B2956",
"&. c #A51A61",
"*. c #A71866",
"=. c #A81866",
"-. c #A81867",
";. c #AA1868",
":. c #B21B69",
">. c #B41A6E",
",. c #B51F70",
"<. c #BE1D71",
"1. c #9B2161",
"2. c #AA216A",
"3. c #C21254",
"4. c #C1135C",
"5. c #C6135C",
"6. c #CB125B",
"7. c #D0125B",
"8. c #D4125B",
"9. c #D6125B",
"0. c #D01E7D",
"q. c #D11E7E",
"w. c #D62080",
"e. c #D82081",
"r. c #E02187",
"t. c #E42189",
"y. c #E9228C",
"u. c #EE238F",
"i. c #EE2992",
"p. c #EF3799",
"a. c #EF3B9B",
"s. c #F044A0",
"d. c #F045A0",
"f. c #F14BA3",
"g. c #DC77AC",
"h. c #F46FB5",
"j. c gray75",
"k. c #E981A8",
"l. c #ED9AB9",
"z. c #F79FCE",
"x. c #DDB3C4",
"c. c #F9B3D8",
"v. c #F9B5D9",
"b. c #E5D8DE",
"n. c #FAC5E1",
"m. c #FBCAE4",
"M. c #F8D7E3",
"N. c #FCDAEC",
"B. c #FEF5FA",
"V. c white",
"C. c None",
/* pixels */
"C.C.C.C.C.C.C.C.C.C.C.C.C.C.C.C.C.C.C.C.C.C.C.C.C.C.C.C.C.C.C.C.C.C.C.C.C.C.C.C.C.C.C.C.C.C.C.C.C.C.C.C.C.C.C.C.C.C.C.C.",
"C.C.C.C.C.C.C.C.C.C.C.C.C.C.C.C.C.C.C.C.C.C.C.C.C.C.C.C.C.C.C.C.C.C.C.C.C.C.C.C.C.C.C.C.C.C.C.C.C.C.C.C.C.C.C.C.C.C.C.C.",
"C.C.C.C.C.C.C.C.C.C.C.C.C.C.C.C.C.C.C.C.C.C.C.C.C.C.C.C.C.C.C.C.C.C.C.C.C.C.C.C.C.C.C.C.C.C.C.C.C.C.C.C.C.C.C.C.C.C.C.C.",
"C.C.C.C.C.C.C.C.C.C.C.C.C.C.C.C.C.C.C.C.C.C.C.C.C.C.C.C.C.C.C.C.C.C.C.C.C.C.C.C.C.C.C.C.C.C.C.C.C.C.C.C.C.C.C.C.C.C.C.C.",
"C.C.C.C.C.C.C.C.C.C.C.C.C.C.C.C.C.C.C.C.C.C.C.C.C.C.C.C.C.C.C.C.C.C.C.C.C.C.C.C.C.C.C.C.C.C.C.C.C.C.C.C.C.C.C.C.C.C.C.C.",
"C.C.C.C.C.C.C.C.C.C.C.C.C.C.C.C.C.C.C.C.C.C.C.C.C.C.C.C.C.C.C.C.C.C.C.C.C.C.C.C.C.C.C.C.C.C.C.C.C.C.C.C.C.C.C.C.C.C.C.C.",
"C.C.C.C.C.C.C.C.C.C.C.C.C.C.C.C.C.C.C.C.C.C.C.C.C.C.C.C.. . . . C.C.C.C.C.C.C.C.C.C.C.C.C.C.C.C.C.C.C.C.C.C.C.C.C.C.C.C.",
"C.C.C.C.C.C.C.C.C.C.C.C.C.C.C.C.C.C.C.C.C.C.C.C.C.C.C.C.. . . . . C.C.C.C.C.C.C.C.C.C.C.C.C.C.C.C.C.C.C.C.C.C.C.C.C.C.C.",
"C.C.C.C.C.C.C.C.C.C.C.C.C.C.C.C.C.C.C.C.C.C.C.C.C.C.C.  $.$.n g 7 C.C.C.C.C.C.C.C.C.C.C.C.C.C.C.C.C.C.C.C.C.C.C.C.C.C.C.",
"C.C.C.C.C.C.C.C.C.C.C.C.C.C.C.C.C.C.C.C.C.C.C.C.C.. . v u.u.;. .m . . C.C.C.C.C.C.C.C.C.C.C.C.C.C.C.C.C.C.C.C.C.C.C.C.C.",
"C.C.C.C.C.C.C.C.C.C.C.C.C.C.C.C.C.C.C.C.C.C.C.C.C.= * b s.s.,.*.G O O C.C.C.C.C.C.C.C.C.C.C.C.C.C.C.C.C.C.C.C.C.C.C.C.C.",
"C.C.C.C.C.C.C.C.C.C.C.C.C.C.C.C.C.C.C.C.C.C.C.. . 1.u.f.V.V.d.u.0. . .. . C.C.C.C.C.C.C.C.C.C.C.C.C.C.C.C.C.C.C.C.C.C.C.",
"C.C.C.C.C.C.C.C.C.C.C.C.C.C.C.C.C.C.C.C.C.C.C.. . 1.u.f.V.V.d.u.0. . .. . C.C.C.C.C.C.C.C.C.C.C.C.C.C.C.C.C.C.C.C.C.C.C.",
"C.C.C.C.C.C.C.C.C.C.C.C.C.C.C.C.C.C.C.C.C.. & 2.2.g.v.m.V.V.d.u.y.r.r.F F 0 . . C.C.C.C.C.C.C.C.C.C.C.C.C.C.C.C.C.C.C.C.",
"C.C.C.C.C.C.C.C.C.C.C.C.C.C.C.C.C.C.C.C.. . @ u.u.z.V.V.V.V.d.u.u.u.u. . .f . . C.C.C.C.C.C.C.C.C.C.C.C.C.C.C.C.C.C.C.C.",
"C.C.C.C.C.C.C.C.C.C.C.C.C.C.C.C.C.C.C.C.8 J K h.h.n.V.B.c.c.p.u.t.q.q. . .H d s C.C.C.C.C.C.C.C.C.C.C.C.C.C.C.C.C.C.C.C.",
"C.C.C.C.C.C.C.C.C.C.C.C.C.C.C.C.C.C.. . $.u.i.V.V.V.V.N.u.u.u.u.0. . . . . . .] . . C.C.C.C.C.C.C.C.C.C.C.C.C.C.C.C.C.C.",
"C.C.C.C.C.C.C.C.C.C.C.C.C.C.C.C.C.C.. . $.u.i.V.V.V.V.N.u.u.u.u.0. . . . . . .] . . C.C.C.C.C.C.C.C.C.C.C.C.C.C.C.C.C.C.",
"C.C.C.C.C.C.C.C.C.C.C.C.C.C.C.C.. . 6 w k C W d.d.d.d.a.u.u.>.=.( p p 8.8.o. .| { { 7 . C.C.C.C.C.C.C.C.C.C.C.C.C.C.C.C.",
"C.C.C.C.C.C.C.C.C.C.C.C.C.C.C.C.. . t y y y N u.u.u.u.u.u.u.-. .Y y y 9.9.+. . . . .9 . . C.C.C.C.C.C.C.C.C.C.C.C.C.C.C.",
"C.C.C.C.C.C.C.C.C.C.C.C.C.C.C.C.. . t y y y l &.&.w.u.u.u.u.) D E ~ ~ 9.9.5.#.O. . .9 . . C.C.C.C.C.C.C.C.C.C.C.C.C.C.C.",
"C.C.C.C.C.C.C.C.C.C.C.C.C.C.C.C.. . t y y y y y y <.u.u.u.u.Z y Q 9.9.9.9.9.9.7. . .9 . . C.C.C.C.C.C.C.C.C.C.C.C.C.C.C.",
"C.C.C.C.C.C.C.C.C.C.C.C.C.C.C.C.. . t y y y y p p :.e.e.e.e.V h ! 9.9.9.9.9.9.7. . .9 . . C.C.C.C.C.C.C.C.C.C.C.C.C.C.C.",
"C.C.C.C.C.C.C.C.C.C.C.C.C.C.C.C.. . t y y y i  . .M y y y y 3.9.9.9.9.9.9.9.9.7. . .9 . . C.C.C.C.C.C.C.C.C.C.C.C.C.C.C.",
"C.C.C.C.C.C.C.C.C.C.C.C.C.C.C.C.. . t y y y i  . .M y y y y 3.9.9.9.9.9.9.9.9.7. . .9 . . C.C.C.C.C.C.C.C.C.C.C.C.C.C.C.",
"C.C.C.C.C.C.C.C.C.C.C.C.C.C.C.C.. . t y y y i  . ._ / A y y x.M.k.9.9.9.9.9.9.7. . .9 . . C.C.C.C.C.C.C.C.C.C.C.C.C.C.C.",
"C.C.C.C.C.C.C.C.C.C.C.C.C.C.C.C.. . t y y y i  . . . .^ y y b.V.l.9.9.9.9.9.9.7. . .9 . . C.C.C.C.C.C.C.C.C.C.C.C.C.C.C.",
"C.C.C.C.C.C.C.C.C.C.C.C.C.C.C.C.. . t y y y i  . . . .^ y y b.V.l.9.9.9.9.9.9.7. . .9 . . C.C.C.C.C.C.C.C.C.C.C.C.C.C.C.",
"C.C.C.C.C.C.C.C.C.C.C.C.C.C.C.C.. . t y y y i  . . . .^ y y b.V.l.9.9.9.9.9.9.7. . .9 . . C.C.C.C.C.C.C.C.C.C.C.C.C.C.C.",
"C.C.C.C.C.C.C.C.C.C.C.C.C.C.C.C.. . t y y y i  . . . .^ y y b.V.l.9.9.9.9.9.9.7. . .9 . . C.C.C.C.C.C.C.C.C.C.C.C.C.C.C.",
"C.C.C.C.C.C.C.C.C.C.C.C.C.C.C.C.. . t y y y i  . . . .^ y y b.V.l.9.9.9.9.9.9.7. . .9 . . C.C.C.C.C.C.C.C.C.C.C.C.C.C.C.",
"C.C.C.C.C.C.C.C.C.C.C.C.C.C.C.C.. . t y y y i  . . . .^ y y b.V.l.9.9.9.9.9.9.7. . .9 . . C.C.C.C.C.C.C.C.C.C.C.C.C.C.C.",
"C.C.C.C.C.C.C.C.C.C.C.C.C.C.C.C.. . t y y y i  . . . .^ y y b.V.l.9.9.9.9.9.9.7. . .9 . . C.C.C.C.C.C.C.C.C.C.C.C.C.C.C.",
"C.C.C.C.C.C.C.C.C.C.C.C.C.C.C.C.. . t y y y i  . . . .^ y y b.V.l.9.9.9.9.9.9.7. . .9 . . C.C.C.C.C.C.C.C.C.C.C.C.C.C.C.",
"C.C.C.C.C.C.C.C.C.C.C.C.C.C.C.C.. . t y y y i  . . . .^ y y b.V.l.9.9.9.9.9.9.7. . .9 . . C.C.C.C.C.C.C.C.C.C.C.C.C.C.C.",
"C.C.C.C.C.C.C.C.C.C.C.C.C.C.C.C.. . t y y y i  . . . .^ y y b.V.l.9.9.9.9.9.9.7. . .9 . . C.C.C.C.C.C.C.C.C.C.C.C.C.C.C.",
"C.C.C.C.C.C.C.C.C.C.C.C.C.C.C.C.. . t y y y i  . . . .^ y y b.V.l.9.9.9.9.9.9.7. . .9 . . C.C.C.C.C.C.C.C.C.C.C.C.C.C.C.",
"C.C.C.C.C.C.C.C.C.C.C.C.C.C.C.C.. . t y y y i  . . . .^ y y L P %.9.9.9.9.9.9.7. . .9 . . C.C.C.C.C.C.C.C.C.C.C.C.C.C.C.",
"C.C.C.C.C.C.C.C.C.C.C.C.C.C.C.C.. . t y y y i  . . . .^ y y y y U 9.9.9.9.9.9.7. . .9 . . C.C.C.C.C.C.C.C.C.C.C.C.C.C.C.",
"C.C.C.C.C.C.C.C.C.C.C.C.C.C.C.C.. . t y y y i  . . . ._ B B B B I ..X.9.9.6.4.@. . .9 . . C.C.C.C.C.C.C.C.C.C.C.C.C.C.C.",
"C.C.C.C.C.C.C.C.C.C.C.C.C.C.C.C.. . t y y y i  . . . . . . . . .D y u 9.9.+. . . . .9 . . C.C.C.C.C.C.C.C.C.C.C.C.C.C.C.",
"C.C.C.C.C.C.C.C.C.C.C.C.C.C.C.C.. . t y y y i  . . . . . . . . .D y u 9.9.+. . . . .9 . . C.C.C.C.C.C.C.C.C.C.C.C.C.C.C.",
"C.C.C.C.C.C.C.C.C.C.C.C.C.C.C.C.C.C.. . 5 y y y y T  . . . . . . . . .y y R  .] . . C.C.C.C.C.C.C.C.C.C.C.C.C.C.C.C.C.C.",
"C.C.C.C.C.C.C.C.C.C.C.C.C.C.C.C.C.C.. . 5 y y y y T  . . . . . . . . .y y R  .] . . C.C.C.C.C.C.C.C.C.C.C.C.C.C.C.C.C.C.",
"C.C.C.C.C.C.C.C.C.C.C.C.C.C.C.C.C.C.C.C.$ : > y y x B S  . . . . . . .y y a d s C.C.C.C.C.C.C.C.C.C.C.C.C.C.C.C.C.C.C.C.",
"C.C.C.C.C.C.C.C.C.C.C.C.C.C.C.C.C.C.C.C.. . X y y y y c  . . . . . . .y y < . . C.C.C.C.C.C.C.C.C.C.C.C.C.C.C.C.C.C.C.C.",
"C.C.C.C.C.C.C.C.C.C.C.C.C.C.C.C.C.C.C.C.C.. o 4 4 e y j / / }  .[ ' ' q q , . . C.C.C.C.C.C.C.C.C.C.C.C.C.C.C.C.C.C.C.C.",
"C.C.C.C.C.C.C.C.C.C.C.C.C.C.C.C.C.C.C.C.C.C.C.. . 2 y y y y `  .Y y y . . C.C.C.C.C.C.C.C.C.C.C.C.C.C.C.C.C.C.C.C.C.C.C.",
"C.C.C.C.C.C.C.C.C.C.C.C.C.C.C.C.C.C.C.C.C.C.C.. . 2 y y y y `  .Y y y . . C.C.C.C.C.C.C.C.C.C.C.C.C.C.C.C.C.C.C.C.C.C.C.",
"C.C.C.C.C.C.C.C.C.C.C.C.C.C.C.C.C.C.C.C.C.C.C.C.C.+ # : y y j z r ; ; C.C.C.C.C.C.C.C.C.C.C.C.C.C.C.C.C.C.C.C.C.C.C.C.C.",
"C.C.C.C.C.C.C.C.C.C.C.C.C.C.C.C.C.C.C.C.C.C.C.C.C.. . % y y y y 3 . . C.C.C.C.C.C.C.C.C.C.C.C.C.C.C.C.C.C.C.C.C.C.C.j.V.",
"C.C.C.C.C.C.C.C.C.C.C.C.C.C.C.C.C.C.C.C.C.C.C.C.C.C.. + 1 1 1 1 - . . C.C.C.C.C.C.C.C.C.C.C.C.C.C.C.C.C.C.C.C.C.V.V.V.V.",
"C.C.C.C.C.C.C.C.C.C.C.C.C.C.C.C.C.C.C.C.C.C.C.C.C.C.C.C.. . . . . C.C.C.C.C.C.C.C.C.C.C.C.C.C.C.C.C.C.C.C.C.V.V.V.V.V.V.",
"C.C.C.C.C.C.C.C.C.C.C.C.C.C.C.C.C.C.C.C.C.C.C.C.C.C.C.C.. . . . . C.C.C.C.C.C.C.C.C.C.C.C.C.C.C.C.C.C.C.C.j.V.V.V.V.V.V.",
"C.C.C.C.C.C.C.C.C.C.C.C.C.C.C.C.C.C.C.C.C.C.C.C.C.C.C.C.C.C.C.C.C.C.C.C.C.C.C.C.C.C.C.C.C.C.C.C.C.C.C.C.V.V.V.V.V.V.V.V.",
"C.C.C.C.C.C.C.C.C.C.C.C.C.C.C.C.C.C.C.C.C.C.C.C.C.C.C.C.C.C.C.C.C.C.C.C.C.C.C.C.C.C.C.C.C.C.C.C.C.C.C.C.V.V.V.V.V.V.V.V.",
"C.C.C.C.C.C.C.C.C.C.C.C.C.C.C.C.C.C.C.C.C.C.C.C.C.C.C.C.C.C.C.C.C.C.C.C.C.C.C.C.C.C.C.C.C.C.C.C.C.C.C.V.V.V.V.V.V.V.V.V.",
"C.C.C.C.C.C.C.C.C.C.C.C.C.C.C.C.C.C.C.C.C.C.C.C.C.C.C.C.C.C.C.C.C.C.C.C.C.C.C.C.C.C.C.C.C.C.C.C.C.C.C.V.V.V.V.V.V.V.V.V.",
"C.C.C.C.C.C.C.C.C.C.C.C.C.C.C.C.C.C.C.C.C.C.C.C.C.C.C.C.C.C.C.C.C.C.C.C.C.C.C.C.C.C.C.C.C.C.C.C.C.C.C.V.V.V.V.V.V.V.V.V.",
"C.C.C.C.C.C.C.C.C.C.C.C.C.C.C.C.C.C.C.C.C.C.C.C.C.C.C.C.C.C.C.C.C.C.C.C.C.C.C.C.C.C.C.C.C.C.C.C.C.C.C.V.V.V.V.V.V.V.V.V."
};
