/* XPM */
static char *result[] = {
/* columns rows colors chars-per-pixel */
"60 60 176 2 ",
"   c #231F20",
".  c #272324",
"X  c #302D2D",
"o  c #363032",
"O  c #393135",
"+  c #3B3336",
"@  c #3E3438",
"#  c #3E363A",
"$  c #3E3B3B",
"%  c #431C2D",
"&  c #5D1133",
"*  c #5E1335",
"=  c #5F1A3F",
"-  c #601537",
";  c #621537",
":  c #601F3C",
">  c #621F3C",
",  c #4F2437",
"<  c #4D2B3A",
"1  c #492F3A",
"2  c #532C3E",
"3  c #46383E",
"4  c #48383E",
"5  c #6C1B40",
"6  c #7C1349",
"7  c #4F3641",
"8  c #513642",
"9  c #5A3143",
"0  c #5F3246",
"q  c #513943",
"w  c #5E384C",
"e  c #6B2444",
"r  c #6E2747",
"t  c #6F2747",
"y  c #642943",
"u  c #6E274E",
"i  c #692C4D",
"p  c #70274F",
"a  c #7D254E",
"s  c #72294A",
"d  c #702B4A",
"f  c #77284E",
"g  c #752C4E",
"h  c #683049",
"j  c #68334A",
"k  c #69304F",
"l  c #603B4E",
"z  c #762D50",
"x  c #7F2853",
"c  c #7A2F52",
"v  c #7B2F53",
"b  c #6D3A52",
"n  c #713452",
"m  c #773457",
"M  c #4C4949",
"N  c #58404A",
"B  c #5A5757",
"V  c #634E58",
"C  c #6C4C5D",
"Z  c #69515C",
"A  c #734D61",
"S  c #784D64",
"D  c #645F60",
"F  c #665F62",
"G  c #725464",
"H  c #765466",
"J  c #686565",
"K  c #71686B",
"L  c #756C70",
"P  c #776D71",
"I  c #757373",
"U  c #787073",
"Y  c #787576",
"T  c #797677",
"R  c #8E1D4A",
"E  c #991147",
"W  c #9A1349",
"Q  c #961F4F",
"!  c #8F1F52",
"~  c #9B165F",
"^  c #B8145D",
"/  c #832053",
"(  c #872156",
")  c #882157",
"_  c #802A52",
"`  c #832E57",
"'  c #8A255A",
"]  c #8D275C",
"[  c #862E5E",
"{  c #9E2857",
"}  c #85335B",
"|  c #95305C",
" . c #B3275D",
".. c #B5285E",
"X. c #9C1B61",
"o. c #9C1A62",
"O. c #9B1C62",
"+. c #A51A61",
"@. c #8F2F61",
"#. c #9D2366",
"$. c #992B66",
"%. c #992C67",
"&. c #9F2B6B",
"*. c #9A2D68",
"=. c #843560",
"-. c #8D3361",
";. c #853863",
":. c #8E3D63",
">. c #8F3C66",
",. c #953165",
"<. c #9A3067",
"1. c #973A67",
"2. c #953468",
"3. c #993469",
"4. c #9D326C",
"5. c #9F356E",
"6. c #B92166",
"7. c #BC276A",
"8. c #BB2B6D",
"9. c #AF2D74",
"0. c #B02D74",
"q. c #A63B73",
"w. c #B33077",
"e. c #B13278",
"r. c #B43C7C",
"t. c #D6125B",
"y. c #C81D63",
"u. c #CF2467",
"i. c #C82C67",
"p. c #C6296B",
"a. c #D52D6E",
"s. c #D8286A",
"d. c #C63473",
"f. c #834465",
"g. c #824963",
"h. c #88516A",
"j. c #A64169",
"k. c #886E7B",
"l. c #D22983",
"z. c #D82F88",
"x. c #C73C85",
"c. c #D5338A",
"v. c #DB348C",
"b. c #EE238F",
"n. c #E52C8F",
"m. c #EA2E92",
"M. c #E33C96",
"N. c #E43D96",
"B. c #EF399A",
"V. c #867A80",
"C. c #C04187",
"Z. c #C14987",
"A. c #C14488",
"S. c #F0439F",
"D. c #F049A2",
"F. c #F155A8",
"G. c #F156A8",
"H. c #F263AF",
"J. c #F57CBB",
"K. c #878586",
"L. c #8D8B8B",
"P. c #EB8EB1",
"I. c #E394BE",
"U. c #EE9FBD",
"Y. c #F8ACD4",
"T. c #F9BADB",
"R. c #F9BEDD",
"E. c #E3C1CF",
"W. c #FACBE4",
"Q. c #E7DCE1",
"!. c #FBD0E7",
"~. c #F8DCE6",
"^. c #FCDEEE",
"/. c #FEF5FA",
"(. c white",
"). c None",
/* pixels */
").).).).).).).).).).).).).).).).).).).).).).).).).).).).).).).).).).).).).).).).).).).).).).).).).).).).).).).).).).).).",
").).).).).).).).).).).).).).).).).).).).).).).).).).).).).).).).).).).).).).).).).).).).).).).).).).).).).).).).).).).).",
").).).).).).).).).).).).).).).).).).).).).).).).).).).).).).).).).).).).).).).).).).).).).).).).).).).).).).).).).).).).",
").).).).).).).).).).).).).).).).).).).).).).).).).).).).).).).).).).).).).).).).).).).).).).).).).).).).).).).).).).).).",
").).).).).).).).).).).).).).).).).).).).).).).).).).).).).).).).).).).).).).).).).).).).).).).).).).).).).).).).).).).).",
").).).).).).).).).).).).).).).).).).).).).).).).).).).).).).).).).).).).).).).).).).).).).).).).).).).).).).).).).).).).",
").).).).).).).).).).).).).).).).).).).).).).).).).).).).$ $ $ $ ).).).).).).).).).).).).).).).).).).).).).).).).).).).).",
").).).).).).).).).).).).).).).).).).).).).).).).).).).).        ).).).).).).).).).).).).).).).).).).).).).).).).).).).).",
").).).).).).).).).).).).).).).).).).).).).).).).).).).V.) ) u = G ).).).).).).).).).).).).).).).).).).).).).).).).).).).",
").).).).).).).).).).).).).).).).).).).).).).).).).J   l b.b.w.~ p   . ).).).).).).).).).).).).).).).).).).).).).).).).).",
").).).).).).).).).).).).).).).).).).).).).).).).).L @ A F.F.A.9.;.+ # ).).).).).).).).).).).).).).).).).).).).).).).).).",
").).).).).).).).).).).).).).).).).).).).).).).    q.b.H.(.(.G.b.l.~ o.    ).).).).).).).).).).).).).).).).).).).).).).).",
").).).).).).).).).).).).).).).).).).).).).).).    q.b.H.(.(.G.b.l.~ o.    ).).).).).).).).).).).).).).).).).).).).).).).",
").).).).).).).).).).).).).).).).).).).).).B F r.r.I.R.!.(.(.G.b.m.M.N.=.=.H B ).).).).).).).).).).).).).).).).).).).).).",
").).).).).).).).).).).).).).).).).).).).L.  O b.b.Y.(.(.(.(.G.b.b.b.b.~ ~ i   M ).).).).).).).).).).).).).).).).).).).).",
").).).).).).).).).).).).).).).).).).).).k.m f.J.J.W.(./.T.T.S.b.n.c.c.~ ~ [ k S ).).).).).).).).).).).).).).).).).).).).",
").).).).).).).).).).).).).).).).).).X   ' b.B.(.(.(.(.^.b.b.b.b.l.~ ~ ~ ~ ~ ~ 4.    ).).).).).).).).).).).).).).).).).).",
").).).).).).).).).).).).).).).).).).X   ' b.B.(.(.(.(.^.b.b.b.b.l.~ ~ ~ ~ ~ ~ 4.    ).).).).).).).).).).).).).).).).).).",
").).).).).).).).).).).).).).).).$ $ j y s _ 1.G.G.G.G.D.b.b.C.0.3.r d s.s.8.~ X.&.&.C $ ).).).).).).).).).).).).).).).).",
").).).).).).).).).).).).).).).).    > & & & a b.b.b.b.b.b.b.e.~ ( & - t.t.7.~ ~ ~ ~ w   K.).).).).).).).).).).).).).).).",
").).).).).).).).).).).).).).).).    > & & & 5 +.+.z.b.b.b.b.<.6 ! E W t.t.y.^ 6.~ ~ w   K.).).).).).).).).).).).).).).).",
").).).).).).).).).).).).).).).).    > & & & & & & x.b.b.b.b.` & Q t.t.t.t.t.t.a.~ ~ w   K.).).).).).).).).).).).).).).).",
").).).).).).).).).).).).).).).).    > & & & * r r Z.v.v.v.v.:.t { t.t.t.t.t.t.a.~ ~ w   K.).).).).).).).).).).).).).).).",
").).).).).).).).).).).).).).).).    > & & & e ~ ~ } & & & & i.t.t.t.t.t.t.t.t.a.~ ~ w   K.).).).).).).).).).).).).).).).",
").).).).).).).).).).).).).).).).    > & & & e ~ ~ } & & & & i.t.t.t.t.t.t.t.t.a.~ ~ w   K.).).).).).).).).).).).).).).).",
").).).).).).).).).).).).).).).).    > & & & e ~ ~ %.,.>.& & E.~.P.t.t.t.t.t.t.a.~ ~ w   K.).).).).).).).).).).).).).).).",
").).).).).).).).).).).).).).).).    > & & & e ~ ~ ~ ~ 2.& & Q.(.U.t.t.t.t.t.t.a.~ ~ w   K.).).).).).).).).).).).).).).).",
").).).).).).).).).).).).).).).).    > & & & e ~ ~ ~ ~ 2.& & Q.(.U.t.t.t.t.t.t.a.~ ~ w   K.).).).).).).).).).).).).).).).",
").).).).).).).).).).).).).).).).    > & & & e ~ ~ ~ ~ 2.& & Q.(.U.t.t.t.t.t.t.a.~ ~ w   K.).).).).).).).).).).).).).).).",
").).).).).).).).).).).).).).).).    > & & & e ~ ~ ~ ~ 2.& & Q.(.U.t.t.t.t.t.t.a.~ ~ w   K.).).).).).).).).).).).).).).).",
").).).).).).).).).).).).).).).).    > & & & e ~ ~ ~ ~ 2.& & Q.(.U.t.t.t.t.t.t.a.~ ~ w   K.).).).).).).).).).).).).).).).",
").).).).).).).).).).).).).).).).    > & & & e ~ ~ ~ ~ 2.& & Q.(.U.t.t.t.t.t.t.a.~ ~ w   K.).).).).).).).).).).).).).).).",
").).).).).).).).).).).).).).).).    > & & & e ~ ~ ~ ~ 2.& & Q.(.U.t.t.t.t.t.t.a.~ ~ w   K.).).).).).).).).).).).).).).).",
").).).).).).).).).).).).).).).).    > & & & e ~ ~ ~ ~ 2.& & Q.(.U.t.t.t.t.t.t.a.~ ~ w   K.).).).).).).).).).).).).).).).",
").).).).).).).).).).).).).).).).    > & & & e ~ ~ ~ ~ 2.& & Q.(.U.t.t.t.t.t.t.a.~ ~ w   K.).).).).).).).).).).).).).).).",
").).).).).).).).).).).).).).).).    > & & & e ~ ~ ~ ~ 2.& & Q.(.U.t.t.t.t.t.t.a.~ ~ w   K.).).).).).).).).).).).).).).).",
").).).).).).).).).).).).).).).).    > & & & e ~ ~ ~ ~ 2.& & Q.(.U.t.t.t.t.t.t.a.~ ~ w   K.).).).).).).).).).).).).).).).",
").).).).).).).).).).).).).).).).    > & & & e ~ ~ ~ ~ 2.& & g.h.j.t.t.t.t.t.t.a.~ ~ w   K.).).).).).).).).).).).).).).).",
").).).).).).).).).).).).).).).).    > & & & e ~ ~ ~ ~ 2.& & & & R t.t.t.t.t.t.a.~ ~ w   K.).).).).).).).).).).).).).).).",
").).).).).).).).).).).).).).).).    > & & & e ~ ~ ~ ~ $.x x x x |  ...t.t.u.p.d.~ ~ w   K.).).).).).).).).).).).).).).).",
").).).).).).).).).).).).).).).).    > & & & e ~ ~ ~ ~ ~ ~ ~ ~ ~ / & ; t.t.7.~ ~ ~ ~ w   K.).).).).).).).).).).).).).).).",
").).).).).).).).).).).).).).).).    > & & & e ~ ~ ~ ~ ~ ~ ~ ~ ~ / & ; t.t.7.~ ~ ~ ~ w   K.).).).).).).).).).).).).).).).",
").).).).).).).).).).).).).).).).).).X   % & & & & @.~ ~ ~ ~ ~ ~ ~ ~ o.& & ] ~ 4.    ).).).).).).).).).).).).).).).).).).",
").).).).).).).).).).).).).).).).).).X   % & & & & @.~ ~ ~ ~ ~ ~ ~ ~ o.& & ] ~ 4.    ).).).).).).).).).).).).).).).).).).",
").).).).).).).).).).).).).).).).).).).).P 1 8 & & f x -.~ ~ ~ ~ ~ ~ o.& & n k S ).).).).).).).).).).).).).).).).).).).).",
").).).).).).).).).).).).).).).).).).).).L.  o & & & & v ~ ~ ~ ~ ~ ~ o.& & <   M ).).).).).).).).).).).).).).).).).).).).",
").).).).).).).).).).).).).).).).).).).).).B D 0 0 : & g ,.,.O.~ #.4.5.h h Z B T ).).).).).).).).).).).).).).).).).).).).",
").).).).).).).).).).).).).).).).).).).).).).).    9 & & & & *.~ ( & -     ).).).).).).).).).).).).).).).).).).).).).).).",
").).).).).).).).).).).).).).).).).).).).).).).    9 & & & & *.~ ( & -     ).).).).).).).).).).).).).).).).).).).).).).).",
").).).).).).).).).).).).).).).).).).).).).).).).).K 3 N & & z c b 7 q ).).).).).).).).).).).).).).).).).).).).).).).).).",
").).).).).).).).).).).).).).).).).).).).).).).).).J   4 & & & & ,   . ).).).).).).).).).).).).).).).).).).).).).).).).).",
").).).).).).).).).).).).).).).).).).).).).).).).).).).U 2 2 2 2 V I Y ).).).).).).).).).).).).).).).).).).).).).).).).).",
").).).).).).).).).).).).).).).).).).).).).).).).).).).).        I ).).).).).).).).).).).).).).).).).).).).).).).).).).).",
").).).).).).).).).).).).).).).).).).).).).).).).).).).).        I ).).).).).).).).).).).).).).).).).).).).).).).).).).).",
").).).).).).).).).).).).).).).).).).).).).).).).).).).).).).).).).).).).).).).).).).).).).).).).).).).).).).).).).).).).",
").).).).).).).).).).).).).).).).).).).).).).).).).).).).).).).).).).).).).).).).).).).).).).).).).).).).).).).).).).).).",
").).).).).).).).).).).).).).).).).).).).).).).).).).).).).).).).).).).).).).).).).).).).).).).).).).).).).).).).).).).).",
").).).).).).).).).).).).).).).).).).).).).).).).).).).).).).).).).).).).).).).).).).).).).).).).).).).).).).).).).).).).",
").).).).).).).).).).).).).).).).).).).).).).).).).).).).).).).).).).).).).).).).).).).).).).).).).).).).).).).).).).).).",
").).).).).).).).).).).).).).).).).).).).).).).).).).).).).).).).).).).).).).).).).).).).).).).).).).).).).).).).).).).)."
};
