/* XPM */
static char *result[] = {
/* columns rows colors chars-per-pixel */
"60 60 161 2 ",
"   c #390F12",
".  c #291C1D",
"X  c #221213",
"o  c #351215",
"O  c #341B1E",
"+  c #3B191C",
"@  c #3C1215",
"#  c #231F20",
"$  c #2B1E20",
"%  c #331E21",
"&  c #3A1D20",
"*  c #252122",
"=  c #292526",
"-  c #2E2A2B",
";  c #2B2728",
":  c #362B21",
">  c #302C2D",
",  c #3E3125",
"<  c #373334",
"1  c #393536",
"2  c #3D393A",
"3  c #47070B",
"4  c #410B0E",
"5  c #4D090E",
"6  c #4A070C",
"7  c #52090E",
"8  c #5B0B12",
"9  c #4D171C",
"0  c #401C1F",
"q  c #441418",
"w  c #54151A",
"e  c #5D161D",
"r  c #670C14",
"t  c #6C0D16",
"y  c #770E18",
"u  c #7B0F19",
"i  c #6C131C",
"p  c #7E101A",
"a  c #422E1D",
"s  c #623D1A",
"d  c #4C1C22",
"f  c #431C21",
"g  c #561C23",
"h  c #5E1A21",
"j  c #611A21",
"k  c #6B1D25",
"l  c #7D1722",
"z  c #731A24",
"x  c #7B1924",
"c  c #443322",
"v  c #493722",
"b  c #4B3822",
"n  c #413D3E",
"m  c #483635",
"M  c #63282F",
"N  c #773E23",
"B  c #762931",
"V  c #7A2831",
"C  c #5A4223",
"Z  c #564634",
"A  c #5A4934",
"S  c #664D2E",
"D  c #6C4925",
"F  c #785328",
"G  c #644E32",
"H  c #695133",
"J  c #795B32",
"K  c #4E4C4C",
"L  c #484445",
"P  c #545151",
"I  c #615E5E",
"U  c #675645",
"Y  c #636060",
"T  c #7B7979",
"R  c #85111C",
"E  c #8B121E",
"W  c #91131F",
"Q  c #B4361C",
"!  c #8A1622",
"~  c #8C1A26",
"^  c #8C1C28",
"/  c #871622",
"(  c #971421",
")  c #9F1523",
"_  c #931825",
"`  c #9C1C29",
"'  c #921C28",
"]  c #A21524",
"[  c #AB1726",
"{  c #AE1827",
"}  c #A51A29",
"|  c #AA1C2B",
" . c #A41826",
".. c #B01827",
"X. c #B41929",
"o. c #BF1B2C",
"O. c #87252F",
"+. c #9B212E",
"@. c #802730",
"#. c #C01F2B",
"$. c #C2232B",
"%. c #CD3D2B",
"&. c #CA362B",
"*. c #864F17",
"=. c #8A5D27",
"-. c #8E6325",
";. c #936626",
":. c #9B6924",
">. c #9A6E30",
",. c #976C30",
"<. c #A06E26",
"1. c #A6732D",
"2. c #B27B2F",
"3. c #C86F11",
"4. c #DE7D13",
"5. c #E07B10",
"6. c #C84127",
"7. c #D1472B",
"8. c #D34A2B",
"9. c #DA5E2B",
"0. c #E06B2B",
"q. c #E6792B",
"w. c #E5772B",
"e. c #BE3D4A",
"r. c #BE505B",
"t. c #897C6D",
"y. c #CD4C5A",
"u. c #D46772",
"i. c #B9812E",
"p. c #DC8218",
"a. c #E5891C",
"s. c #EA8C1B",
"d. c #E58416",
"f. c #EC911D",
"g. c #C8872C",
"h. c #D78220",
"j. c #D38B2A",
"k. c #D5912A",
"l. c #DA932A",
"z. c #C98631",
"x. c #E9822B",
"c. c #E79B2B",
"v. c #EB9D2A",
"b. c #EF9520",
"n. c #F19A22",
"m. c #F5A127",
"M. c #F4A32A",
"N. c #F9A72B",
"B. c #F9A82F",
"V. c #F9AA32",
"C. c #F7C279",
"Z. c #BD8389",
"A. c #BDBCBC",
"S. c #EAB6BC",
"D. c #F9CF93",
"F. c #FCDBA8",
"G. c #FDDFB3",
"H. c #FDE0B6",
"J. c #FDEBCF",
"K. c #FFFFFE",
"L. c None",
/* pixels */
"L.L.L.L.L.L.L.L.L.L.L.L.L.L.L.L.L.L.L.L.L.L.L.L.L.L.L.L.L.L.L.L.L.L.L.L.L.L.L.L.L.L.L.L.L.L.L.L.L.L.L.L.L.L.L.L.L.L.L.L.",
"L.L.L.L.L.L.L.L.L.L.L.L.L.L.L.L.L.L.L.L.L.L.L.L.L.L.L.L.L.L.L.L.L.L.L.L.L.L.L.L.L.L.L.L.L.L.L.L.L.L.L.L.L.L.L.L.L.L.L.L.",
"L.L.L.L.L.L.L.L.L.L.L.L.L.L.L.L.L.L.L.L.L.# * . L.L.L.L.L.L.L.L.L.L.L.L.L.L.# > 1 L.L.L.L.L.L.L.L.L.L.L.L.L.L.L.L.L.L.L.",
"L.L.L.L.L.L.L.L.L.L.L.L.L.L.L.L.L.L.# * : k.k.k.G 1 L.L.L.L.L.L.L.L.L.L.L.L.l.l.l.: # # P T L.L.L.L.L.L.L.L.L.L.L.L.L.L.",
"L.L.L.L.L.L.L.L.L.L.L.L.L.L.L.L.L., v b C N.c.k.G 1 L.L.L.L.L.L.L.L.L.L.L.L.k.c.B.C v a U t.L.L.L.L.L.L.L.L.L.L.L.L.L.L.",
"L.L.L.L.L.L.L.L.L.L.L.L.L.L.L.L.1 >.N.B.N.N.;.# L.L.L.L.L.L.L.L.L.L.L.L.L.L.# ;.N.N.m.5.h.j.c # L.L.L.L.L.L.L.L.L.L.L.L.",
"L.L.L.L.L.L.L.L.L.L.L.L.L.L.L.L.1 >.N.:.-.>.S L.L.L.L.L.L.L.L.L.L.L.L.L.L.L.L.G >.;.:.f.h.h.-.D L.L.L.L.L.L.L.L.L.L.L.L.",
"L.L.L.L.L.L.L.L.L.L.L.L.L.L.L.L.1 >.N.v * 1 1 L.L.L.L.L.L.L.L.L.L.L.L.L.L.L.L.2 1 * c N.f.5.j.z.# # L.L.L.L.L.L.L.L.L.L.",
"L.L.L.L.L.L.L.L.L.L.L.L.L.L.1 Z l.c.B.b # L.L.L.L.L.L.L.L.L.L.L.L.L.L.L.L.L.L.L.L.L.L.Z 1.M.M.v.2.D # L.L.L.L.L.L.L.L.L.",
"L.L.L.L.L.L.L.L.L.L.L.L.L.L.1 A N.M.M.c # L.L.L.L.L.L.L.L.L.L.L.L.L.L.L.L.L.L.L.L.L.L.1 ,.M.M.N.z.=.# L.L.L.L.L.L.L.L.L.",
"L.L.L.L.L.L.L.L.L.1 1 L.Y Y 2 Z N.-.# L.L.L.L.L.L.L.L.L.L.L.L.L.L.L.L.L.L.L.L.L.L.L.L.L.1 1 k.N.5.*.# L.L.L.L.L.L.L.L.L.",
"L.L.L.L.L.L.L.L.L.1 1 L.Y I 2 Z N.g.-.: L.L.L.L.L.L.L.L.L.L.L.L.L.L.L.L.L.L.L.L.L.L.L.L.H ,.c.m.5.*.# L.L.L.L.L.L.L.L.L.",
"L.L.L.L.L.L.L.Y Y 1 1 L.Y Y 2 Z N.N.N.A 1 1 1 L.L.L.# # * # # # # # # # r r r L.L.L.L.1 >.B.N.N.5.*.# L.L.L.L.L.L.L.L.L.",
"L.L.L.L.L.L.L.< 1 = = L.Y Y 2 m J i.N.g.2.1 - * # $ ^ ~ ^ ^ ^ ^ ' / ^ ^ ] ) E y r $ , i.l.N.s.p.s a L.L.L.L.L.L.L.L.L.L.",
"L.L.L.L.L.L.L.= # * # L.I I 2 1 < ,.N.N.v.1 - $ $ % o.#.o.o.o.o.#.o.#.o.o.X.) R t O c M.M.B.4.3.# L.L.L.L.L.L.L.L.L.L.L.",
"L.L.L.L.L.L.Y 2 # 1 1 L.1 1 L.L.# -.N.N.c.# h ) X.o.o.o.#.o.o.o.o.o.o.#.#.#.o.[ ) ) ! # -.N.b # L.L.L.L.L.L.L.L.L.L.L.L.",
"L.L.L.L.L.L.Y 2 * L.L.L.1 1 L.L.# C -.c.v.q p { X.#.#.#.#.o.o.#.#.#.#.#.#.o.#.o.X... .j N -.: # L.L.L.L.L.L.L.L.L.L.L.L.",
"L.L.L.L.L.L.Y 2 * L.L.L.1 1 L.L.# # # k.v.r _ o.#.#.#.#.#.o.o.o.#.#.#.#.#.o.#.#.#.#.o.) h # # # L.L.L.L.L.L.L.L.L.L.L.L.",
"L.L.L.L.L.L.L - # L.L.L.1 1 L.L.L.# # C D R  .#.#.#.w.w.w.&.#.o.#.#.#.#.9.0.w.%.o.o.o.X.k # # # L.L.L.L.L.L.L.L.L.L.L.L.",
"L.L.L.L.L.L.1 ; # L.L.L.1 1 L.L.L.L.# # O ] ..o.#.#.V.V.B.%.#.o.#.#.#.#.V.V.V.9.o.o.o.o.z $ # # L.L.L.L.L.L.L.L.L.L.L.L.",
"L.L.L.L.L.L.# # # L.L.L.1 1 L.L.L.1 1 i t o.o.o.q.V.K.F.B.s.5.#.#.o.9.n.K.J.v.b.4.#.o.) ) ) & # L.L.L.L.L.L.L.L.L.L.L.L.",
"L.L.L.L.L.L.# # # L.L.L.> > L.L.L.L.1 i p o.o.o.x.B.G.C.b.d.5.#.#.#.0.B.G.D.n.d.5.#.X.) ] ) & # L.L.L.L.L.L.L.L.L.L.L.L.",
"L.L.L.L.L.L.# L.L.L.L.L.# # L.L.L.1 1 ~ ) o.o.o.x.B.N.f.5.5.5.#.#.#.0.B.N.n.5.5.5.#.X.] ) ( & # L.L.L.L.L.L.L.L.L.L.L.L.",
"L.L.L.L.L.L.# L.L.L.L.L.# # L.L.L.L.1 ^ ] o.o.o.%.7.7.&.Q Q Q #.#.#.&.8.8.6.Q X.Q o.o.] x d L.L.L.L.L.L.L.L.L.L.L.L.L.L.",
"L.L.L.L.L.L.* L.L.L.L.L.# # L.L.L.L.1 ^  .o.o.o.#.#.o...) ] ] o.o.o.o.o.o.X.] ) ) o.X.) j # L.L.L.L.L.L.L.L.L.L.L.L.L.L.",
"L.L.L.L.L.L.Y 2 # # # L.# # L.L.L.# # / ) o.o.o.o.o.t W #.o.o.o.#.o.#.o.] ] o.#.o.o.o.] j # L.L.L.L.L.L.L.L.L.L.L.L.L.L.",
"L.L.L.L.L.L.Y L 1 # # L.# # L.L.L.# # / ] o.o.o.o.o.R ( X.o.o.o.#.#.X.X.[ [ #.o.o.o.o.) j # L.L.L.L.L.L.L.L.L.L.L.L.L.L.",
"L.L.L.L.L.L.L.Y Y * # # # # # # # # # / ] o.o.o.o.#.#...) X.o.o.#.#...) o.#.#.#.o.o.X.) j # L.L.t t L.L.L.L.L.L.L.L.L.L.",
"L.L.L.L.L.L.L.L.L.L.L.K 1 # L.L.L.# # f g o.o.o.o.o.o.o.X.( R R W [ [ X.#.o.#.o.#.[ ( d % # L.L.W g # L.L.L.L.L.L.L.L.L.",
"L.L.L.L.L.L.L.L.L.L.L.Y n # L.L.L.# # # % o.o.o.o.o.o.o.o.R t t u ) ..#.o.o.o.o.o.] ! # # # L.L.] j # L.L.L.L.L.L.L.L.L.",
"L.L.L.L.L.L.L.L.L.L.L.Y n # # # L.L.L.L.L.1 V o.o.o.o.o.#.Z.A.K.S.#.#.#.o.#.#.{ ] $ # L.L.L.] ] #.( t & # L.L.L.L.L.L.L.",
"L.L.L.L.L.L.L.L.L.L.L.P 1 # # # L.L.L.L.L.1 M / [ X.#.o.o.Z.A.K.S.o.o.#.X...X._ z % L.L.L.L.[ [ #.] R w + L.L.L.L.L.L.L.",
"L.L.L.L.L.L.L.L.L.L.L.1 - # # # # L.L.L.L.L.L.# x ] #.o.#.Z.A.K.S.o.o.#.] ) ) h # L.L.L.L.L.o.o.#.o.o.R t # # L.L.L.L.L.",
"L.L.L.L.L.L.L.L.L.L.L.1 M ^ ^ ^ ~ g # # # # g ^ | X.o.o.o.e.r.u.y.o.o.o.X.X.X.] ^ % # L.L.L.L.L.o. .R 9 + L.L.L.L.L.L.L.",
"L.L.L.L.L.L.L.L.L.L.L.1 @.o.#.#.o.k . . # # B o.o.o.#.o.#.o.#.o.o.#.o.#.o.o.#.#.o.% * L.L.L.L.L.o.( t + # L.L.L.L.L.L.L.",
"L.L.L.L.L.L.L.L.L.L.L.#.#.#.#.#.o.o.o.o.o.o.o.o.#.o.#.o.o.o.o.o.o.o.o.o.#.#.#.#.o.o.| 6 L.L.` } o.( t L.L.L.L.L.L.L.L.L.",
"L.L.L.L.L.L.L.L.L.L.L.o.o.#.o.o.#.#.o.#.o.o.o.o.X.X.o.o.o.o.#.o.#.o.o.#.X.X.X.X.#.o.[ 3 L.L.| | o.W 8 L.L.L.L.L.L.L.L.L.",
"L.L.L.L.L.L.L.L.L.L.L.o.o.o.o.#.#.#.o.o.#.o.#.#.[ ] o.o.#.o.o.o.o.o.o.o.) ) ) ..o.#.{ 3 L.L.o.#.o.R 3 L.L.L.L.L.L.L.L.L.",
"L.L.L.L.L.L.L.L.L.L.L.V ` o.o.o.#.X...[ [ [ X.#.[ ] o.o.o.#.o.#.#.o.#.#...[ ] ..o.o.[ 6 3 3 ..o.p r L.L.L.L.L.L.L.L.L.L.",
"L.L.L.L.L.L.L.L.L.L.L.1 @.o.o.#.#.[ ] ) ) ] { o.] ) o.o.o.o.o.o.o.o.o.o.o.X.] ..o.#.[ 3 3 3 [ ..3 3 L.L.L.L.L.L.L.L.L.L.",
"L.L.L.L.L.L.L.L.L.L.L.2 - # # % ) ) ) L.L.# # # l ) ) ) ) X.o.o.o.o.E r ) ) ) ..o.% & o.o.o.o.X.# # L.L.L.L.L.L.L.L.L.L.",
"L.L.L.L.L.L.L.L.L.L.L.n > # # & ) ] ) L.L.# # # l ) ) ) ) X.X.o.o...R r ) ) [ ..o.d d [ } } } +.* L.L.L.L.L.L.L.L.L.L.L.",
"L.L.L.L.L.L.L.L.L.L.L.Y n # L.L.L.L.L.L.L.L.L.# l ] ) ) ) ) ) o.) r r r ) ] #.#.o.o.[ 3 + # # # L.L.L.L.L.L.L.L.L.L.L.L.",
"L.L.L.L.L.L.L.L.L.L.L.Y n # L.L.L.L.L.L.L.L.L.# l ) ) ) ) ] ) { ) R R R X.X.#.' k k j o X L.L.L.L.L.L.L.L.L.L.L.L.L.L.L.",
"L.L.L.L.L.L.L.L.L.L.L.Y n # L.L.L.L.L.L.L.L.L.# l ] ] ) ) ) ) ) ) ) ) ) o.o.o.k # # # # L.L.L.L.L.L.L.L.L.L.L.L.L.L.L.L.",
"L.L.L.L.L.L.L.L.L.L.L.1 > # L.L.L.L.L.L.L.L.L.L.# # ) ) ) u r # # #   3 o.#.o.L.L.L.L.L.L.L.L.L.L.L.L.L.L.L.L.L.L.L.L.L.",
"L.L.L.L.L.L.L.L.L.L.L.2 > * L.L.L.L.L.L.L.L.L.L.# #  .( / i 8 . $ #   3 o.X.| L.L.L.L.L.L.L.L.L.L.L.L.L.L.L.L.L.L.L.L.L.",
"L.L.L.L.L.L.L.L.L.L.L.1 1 2 L.L.L.L.L.L.L.L.L.L.# * o./ # * * 3 3 L.3 3 o. .3 o # L.L.L.L.L.L.L.L.L.L.L.L.L.L.L.L.L.L.L.",
"L.L.L.L.L.L.L.L.L.L.L.L.1 1 L.L.L.L.L.L.L.L.L.L.o @ #./ o L.L.L.L.L.3 3 o.X.R x j 5 L.L.L.L.L.L.L.L.L.L.L.L.L.L.L.L.L.L.",
"L.L.L.L.L.L.L.L.L.L.L.L.1 1 L.L.L.L.L.L.L.L.L.L.3 5 o.W 3 L.L.L.L.L.3 3 o.o.o.{ ) 7 3 L.L.L.L.L.L.L.L.L.L.L.L.L.L.L.L.L.",
"L.L.L.L.L.L.L.L.L.L.L.L.* * L.L.L.L.L.L.L.L.L.L.L.L.#.X.{ t 6 L.L.L.L.L.8 w m O.X.| ) 3 L.L.L.L.L.L.L.L.L.L.L.L.L.L.L.L.",
"L.L.L.L.L.L.L.L.L.L.L.L.* # L.L.L.L.L.L.L.L.L.L.L.L.#.o.o.u 8 L.L.L.L.L.3 q < B | o.[ 3 L.L.L.L.L.L.L.L.L.L.L.L.L.L.L.L.",
"L.L.L.L.L.L.L.L.L.L.L.L.# # L.L.L.L.L.L.L.L.L.L.L.L.L.L.o.o.#.o.^ # L.L.L.L.1 1 1 X.{ 3 L.L.L.L.L.L.L.L.L.L.L.L.L.L.L.L.",
"L.L.L.L.L.L.L.L.L.L.L.L.L.L.L.L.L.L.L.L.L.L.L.L.L.L.L.L.L.{ { o._ o L.L.L.L.L.0 0 X.X.p 9 * L.L.L.L.L.L.L.L.L.L.L.L.L.L.",
"L.L.L.L.L.L.L.L.L.L.L.L.L.L.L.L.L.L.L.L.L.L.L.L.L.L.L.L.L.) ) o.) 3 L.L.L.L.L.3 3 X.X.) h # L.L.L.L.L.L.L.L.L.L.L.L.L.L.",
"L.L.L.L.L.L.L.L.L.L.L.L.L.L.L.L.L.L.L.L.L.L.L.L.L.L.L.L.3 7 7 8 7 3 L.L.L.L.3 t W ]  .) j # L.L.L.L.L.L.L.L.L.L.L.L.L.L.",
"L.L.L.L.L.L.L.L.L.L.L.L.L.L.L.L.L.L.L.L.L.L.L.L.L.L.L.L.3 4 4 4 4   L.L.L.L.3 u ) / / / g . L.L.L.L.L.L.L.L.L.L.L.L.L.L.",
"L.L.L.L.L.L.L.L.L.L.L.L.L.L.L.L.L.L.L.L.L.L.L.L.L.L.L.L.L.* # # . * L.L.L.L.L.L.L.# # # L.L.L.L.L.L.L.L.L.L.L.L.L.L.L.L.",
"L.L.L.L.L.L.L.L.L.L.L.L.L.L.L.L.L.L.L.L.L.L.L.L.L.L.L.L.L.L.L.L.L.L.L.L.L.L.L.L.L.L.L.L.L.L.L.L.L.L.L.L.L.L.L.L.L.L.L.L.",
"L.L.L.L.L.L.L.L.L.L.L.L.L.L.L.L.L.L.L.L.L.L.L.L.L.L.L.L.L.L.L.L.L.L.L.L.L.L.L.L.L.L.L.L.L.L.L.L.L.L.L.L.L.L.L.L.L.L.L.L."
};
