/* XPM */
static char *result[] = {
/* columns rows colors chars-per-pixel */
"60 60 140 2 ",
"   c #794522",
".  c #734D34",
"X  c #704E38",
"o  c #755033",
"O  c #74553C",
"+  c #7D583C",
"@  c #7A5A43",
"#  c #765B49",
"$  c #7A5D48",
"%  c #675A54",
"&  c #635F5D",
"*  c #6B5F5A",
"=  c #62605F",
"-  c #6D615D",
";  c #7F6552",
":  c #70635E",
">  c #435A6D",
",  c #4A5F74",
"<  c #5E6064",
"1  c #4B6176",
"2  c #5E6B77",
"3  c #546A7F",
"4  c #646262",
"5  c #6A6564",
"6  c #67676B",
"7  c #68696C",
"8  c #716762",
"9  c #706863",
"0  c #7D7765",
"q  c #686B72",
"w  c #69717A",
"e  c #935E2B",
"r  c #80573A",
"t  c #815B3D",
"y  c #895F3F",
"u  c #93622F",
"i  c #946D2E",
"p  c #86633D",
"a  c #926331",
"s  c #90623F",
"d  c #936B3C",
"f  c #91753C",
"g  c #9D763F",
"h  c #95793F",
"j  c #997A3F",
"k  c #A36D30",
"l  c #815D43",
"z  c #885F41",
"x  c #856045",
"c  c #886042",
"v  c #926D40",
"b  c #996E40",
"n  c #947443",
"m  c #9A7244",
"M  c #927840",
"N  c #9B7D43",
"B  c #8D7253",
"V  c #8E7B52",
"C  c #A27442",
"Z  c #A27F41",
"A  c #A88B3F",
"S  c #BD9D3B",
"D  c #CCAA34",
"F  c #CFB83C",
"G  c #D5B137",
"H  c #E7A42F",
"J  c #F6A427",
"K  c #E2BC30",
"L  c #E9C62C",
"P  c #F6D027",
"I  c #F9D123",
"U  c #F2CF31",
"Y  c #A1804A",
"T  c #A78A54",
"R  c #A08B5A",
"E  c #A7A465",
"W  c #AFA960",
"Q  c #C09646",
"!  c #C99541",
"~  c #C4B142",
"^  c #516E87",
"/  c #56748D",
"(  c #58758F",
")  c #597691",
"_  c #5B7993",
"`  c #677584",
"'  c #637789",
"]  c #697B8F",
"[  c #717A84",
"{  c #637D95",
"}  c #627E9A",
"|  c #6F8297",
" . c #65829D",
".. c #6D859B",
"X. c #6F889F",
"o. c #72869B",
"O. c #74899F",
"+. c #6585A2",
"@. c #6986A2",
"#. c #6789A7",
"$. c #6A89A6",
"%. c #6D8EAB",
"&. c #768BA1",
"*. c #708CA9",
"=. c #6D90AF",
"-. c #7C90A6",
";. c #7391AE",
":. c #6F93B1",
">. c #7495B4",
",. c #7A96B4",
"<. c #7798B7",
"1. c #7B98B5",
"2. c #769BBB",
"3. c #7B9DBD",
"4. c #7DA0BF",
"5. c #7A9FC0",
"6. c #7DA1C2",
"7. c #BCAD83",
"8. c #819EBC",
"9. c #84A0BF",
"0. c #C4B883",
"q. c #D8CF9A",
"w. c #EADC98",
"e. c #FCE891",
"r. c #83A4C5",
"t. c #89A5C4",
"y. c #84A7C8",
"u. c #86A9CA",
"i. c #8CABCC",
"p. c #90ADCE",
"a. c #8EAFD0",
"s. c #91AFD0",
"d. c #8FB0D2",
"f. c #94B2D4",
"g. c #98B5D6",
"h. c #99B6D8",
"j. c #9CB9DB",
"k. c #A1BDDF",
"l. c #A3BFE1",
"z. c None",
/* pixels */
"z.z.z.z.z.z.z.z.z.z.z.z.z.z.z.z.z.z.z.z.z.z.z.z.z.z.z.z.z.z.z.z.z.z.z.z.z.z.z.z.z.z.z.z.z.z.z.z.z.z.z.z.z.z.z.z.z.z.z.z.",
"z.z.z.z.z.z.z.z.z.z.z.z.z.z.z.z.z.z.z.z.z.z.z.z.z.z.z.z.z.z.z.z.z.z.z.z.z.z.z.z.z.z.z.z.z.z.z.z.z.z.z.z.z.z.z.z.z.z.z.z.",
"z.z.z.z.z.z.z.z.z.z.z.z.z.z.z.z.z.z.z.z.z.s.l.l.l.l.l.l.s.*.r.k.h.h.l.l.h.h.t.z.z.z.z.z.z.z.z.z.z.z.z.z.z.z.z.z.z.z.z.z.",
"z.z.z.z.z.z.z.z.z.z.z.z.z.z.z.z.z.z.z.> s.l.l.a.p.l.l.l.g.*.8.l.h.j.y.k.j.j.l.r.z.z.z.z.z.z.z.z.z.z.z.z.z.z.z.z.z.z.z.z.",
"z.z.z.z.z.z.z.z.z.z.z.z.z.z.z.z.z.z., p.l.i.h.j.h.r.f.a.g.*.9.6.l.l.h.j.l.k.r.k.r.z.z.z.z.z.z.z.z.z.z.z.z.z.z.z.z.z.z.z.",
"z.z.z.z.z.z.z.z.z.z.z.z.z.z.z.z.z._ 1.1.1.1.,.l.l.y.a.5.p.*.8.i.l.k.k.y.g.,.,.,.,.,./ z.z.z.z.z.z.z.z.z.z.z.z.z.z.z.z.z.",
"z.z.z.z.z.z.z.z.z.z.z.z.z.z.z.8.r.}  . .}  .) p.l.s.f.f.h.*.1.5.g.r.f.h.1._  . . . .} 8.;.z.z.z.z.z.z.z.z.z.z.z.z.z.z.z.",
"z.z.z.z.z.z.z.z.z.z.z.z.z.z.r.f.i.g.i.l.j.j.*.*.l.i.r.3.3.+.%.2.f.g.6.r._ ,.d.l.j.f.h.r.f.>.z.z.z.z.z.z.z.z.z.z.z.z.z.z.",
"z.z.z.z.z.z.z.z.z.z.z.z.z.p.p.5.s.5.r.a.g.s.l._ ,.y.y.6.u.+.<.y.i.u.u.$.*.l.r.l.3.u.5.s.5.h.9.z.z.z.z.z.z.z.z.z.z.z.z.z.",
"z.z.z.z.z.z.z.z.z.z.z.1 g.l.r.l.y.i.f.h.r.l.l.8._ <.3.r.6.+.%.3.6.s.i.( f.l.k.i.s.h.y.a.h.a.l.t.z.z.z.z.z.z.z.z.z.z.z.z.",
"z.z.z.z.z.z.z.z.z.z.> / _ _ _ _ 8.r.j.i.2.r.k.p.^ | &.| O.' { ..o.$.o.3 l.j.3.3.s.h.8.8._ _ _ _ / z.z.z.z.z.z.z.z.z.z.z.",
"z.z.z.z.z.z.z.z.z._ p.9.8.8.r.@.@.h.6.y.i.g.p.' c s s r + s s s O r y X ] p.j.y.r.r.s._ ,.9.9.9.t.p.z.z.z.z.z.z.z.z.z.z.",
"z.z.z.z.z.z.z.z.z.$.p.3.h.g.a.t.} p.g.y.k.j.` O s s s r O s s s O t c t . o.j.h.5.l.8.} f.5.l.p.r.p.1 z.z.z.z.z.z.z.z.z.",
"z.z.z.z.z.z.z.z. .p.6.r.f.j.j.l.;.$.k.t.-.[ $ O s s s r + c s s @ t s s r X o.&.p.j._ 1.l.s.l.5.a.5.p.z.z.z.z.z.z.z.z.z.",
"z.z.z.z.z.z.z.1 g.3.i.k.f.3.h.l.l.^ ,.w s s l O s s s + + s s s O t s s s O # . ` *.@.l.l.i.9.s.j.r.r.u.> z.z.z.z.z.z.z.",
"z.z.z.z.z.z.z.3.i.5.r.f.d.5.u.f.l.,.& c s s @ O s s v + + s s s O t s s s o l z . < 9.l.f.5.5.p.f.3.y.i.*.z.z.z.z.z.z.z.",
"z.z.z.z.z.z.z.:.5.3.5.2.5.3.5.h.t.q o s s s l O v z s t + s s s X l s s s . z c c r 5 p.h.5.5.5.3.2.6.2.+.z.z.z.z.z.z.z.",
"z.z.z.z.z.z.z.>.y.y.y.5.u.5.y.t.8 x o s s s t O s s c r + s s s @ r s s v . z z c z   q i.r.r.5.6.y.i.3.#.z.z.z.z.z.z.z.",
"z.z.z.z.z.z.z.%.>.:.8.>.9.:.3.=.x x o s s s l O s s s r + s s s X z s s z . z v z z   - <.<.:.5.2.2.2.;. .z.z.z.z.z.z.z.",
"z.z.z.z.z.z.z.{ @.} @.} +.} } } ; x o s s s @ O s s s r + s s s + y s s c + l z z z   % } } } }  . . . ._ z.z.z.z.z.z.z.",
"z.z.z.z.z.z.z.i.l.9.l.j.k.h.a.r.; x o s s s l O s s v r + s s s X r c z c O z c b z   : t.s.h.j.j.h.a.l.,.z.z.z.z.z.z.z.",
"z.z.z.z.z.z.z.p.l.s.l.5.a.5.h.5.; x o s s s l O s s s r + c s s @ z b z b X z z z z   : i.p.5.r.f.j.h.l.1.z.z.z.z.z.z.z.",
"z.z.z.z.z.z.z.i.j.5.j.s.f.i.s.u.; x O s s s l O s s s r + s s s X r z z z . l v s z   : s.s.t.g.h.f.u.k.,.z.z.z.z.z.z.z.",
"z.z.z.z.z.z.z.i.h.y.y.j.i.9.y.y.; x O c s s t O s s c + + s s s l r b b c o z z s z   : f.5.a.r.l.5.d.j.1.z.z.z.z.z.z.z.",
"z.z.z.z.z.z.z.i.u.r.5.5.5.5.5.5.x x o s s s @ O s s s r t s s s O t c s s . l v s z   - 5.2.y.3.3.2.y.a.1.z.z.z.z.z.z.z.",
"z.z.z.z.z.z.z.i.5.r.u.r.r.u.i.5.; c o s s s l O s s c r + c s s O t v s s O x c s z   - i.6.d.5.d.6.u.6.,.z.z.z.z.z.z.z.",
"z.z.z.z.z.z.z.;.5.<.5.5.5.<.9.:.B m d g C C b v C C C d b C C C v b C C C d b C C m a 9 2.3.r.3.y.2.8.2.+.z.z.z.z.z.z.z.",
"z.z.z.z.z.z.z.( { ) _ ) _ _ _ _ W H H H H H H H H H H H H H H H H H H H H H H H H H H R _ _ _ _ _ _ _ _ / z.z.z.z.z.z.z.",
"z.z.z.z.z.z.z.i.i.l.l.l.l.y.l.g.G P P I I I I I I I I I I I I I I I I I I I I I I I I W l.j.i.l.l.l.l.r.,.z.z.z.z.z.z.z.",
"z.z.z.z.z.z.z.>.f.5.u.5.l.r.l.g.x l o v s s l O s s s r + s s s @ t y s v o l s s c   : l.h.i.h.d.6.d.i.#.z.z.z.z.z.z.z.",
"z.z.z.z.z.z.z.i.f.f.h.f.l.9.l.h.B z o c s s l O s s s r + s s s O t s s z O x s s c   : l.h.u.j.h.f.h.f.1.z.z.z.z.z.z.z.",
"z.z.z.z.z.z.z.>.i.5.r.h.f.5.f.f.; z o s s s l O s s c + + s s s + t s s s . l s s x   : l.r.y.i.h.5.u.t.#.z.z.z.z.z.z.z.",
"z.z.z.z.z.z.z.>.6.r.6.3.6.6.f.g.; x O s s s l O s s s r + c s s O + c s s o x s s c   : l.6.r.6.y.2.u.6.+.z.z.z.z.z.z.z.",
"z.z.z.z.z.z.z.2.y.4.r.6.u.3.6.r.x l . c s s l O s s s + + s s s + p s s s O $ s s c   : i.6.y.3.u.6.y.3.%.z.z.z.z.z.z.z.",
"z.z.z.z.z.z.z.;.2.1.y.2.i.<.6.>.; $ o s s s l O s s s r + s s s O t s s s o l s s c   - 2.3.2.4.2.r.3.>.+.z.z.z.z.z.z.z.",
"z.z.z.z.z.z.z./ ( _ _ _ _ _ _ ( B x o s s s l O s s s r + s s s @ t s s s p S 7.g x   % _ ( _ _ _ _ _ _ ( z.z.z.z.z.z.z.",
"z.z.z.z.z.z.z.p.l.u.l.l.k.l.f.i.; x O s s c x O s s s r + c s s O t s s b G I U q.n   : f.f.k.l.l.j.f.l.1.z.z.z.z.z.z.z.",
"z.z.z.z.z.z.z.i.l.6.l.3.i.6.f.<.; x o c s d + O s s s r + s s s O t s s k L I I e.A   * 3.p.6.t.i.h.d.l.1.z.z.z.z.z.z.z.",
"z.z.z.z.z.z.z.p.l.r.l.f.h.i.h.i.; x o s s s @ O s s s + + s s s O t s s u K I P w.N   - g.f.i.h.h.h.f.l.1.z.z.z.z.z.z.z.",
"z.z.z.z.z.z.z.p.i.r.u.j.y.4.y.3.x x o s s s x O s s s r + c s s @ t s s + u D 0.Y l   * i.2.y.r.l.3.y.h.1.z.z.z.z.z.z.z.",
"z.z.z.z.z.z.z.p.f.r.6.6.y.6.6.6.; @ o s s s @ O s s s + + s s s O t s s z @ @ y s c   - y.5.u.5.y.6.u.j.>.z.z.z.z.z.z.z.",
"z.z.z.z.z.z.z.p.6.6.y.4.6.2.y.4.; x o s s s + O s s s + + s s s @ r s s s X z v s c   * r.8.6.5.y.6.6.6.1.z.z.z.z.z.z.z.",
"z.z.z.z.z.z.z.2.6.6.y.6.y.y.r.2.; x o s s s x O s s s + + s s s O t s s s O l c s c   * 6.4.f.6.a.2.u.6.#.z.z.z.z.z.z.z.",
"z.z.z.z.z.z.z.^ / ^ ^ ^ ^ ^ ^ ^ ! J J J J J J J J J J J J J J J J J J J J J J J J J J T ^ ^ ^ ^ ^ ^ ^ ^ ^ z.z.z.z.z.z.z.",
"z.z.z.z.z.z.z.i.f.l.l.l.l.i.l.g.F L L L L L L L L L L L L L L L L L L L L L L L L L L E l.j.f.l.l.l.l.i.1.z.z.z.z.z.z.z.",
"z.z.z.z.z.z.z.%.f.6.r.6.l.3.l.g.V Y f j g Y N f g Y A j h Y A j M N Z Z Z f N Z Z N i 0 l.h.y.h.a.6.a.i.+.z.z.z.z.z.z.z.",
"z.z.z.z.z.z.z.i.f.a.f.i.l.s.l.h.; x o s s s t O s s s + + s s s O t y s s o l s s c   : l.j.f.j.h.d.j.a.,.z.z.z.z.z.z.z.",
"z.z.z.z.z.z.z.%.i.r.6.k.a.5.i.g.; x o s s s t O s s s r + s s s O t s s s O x s s c   : l.3.6.a.j.2.i.r.+.z.z.z.z.z.z.z.",
"z.z.z.z.z.z.z.r.y.6.i.y.u.6.h.h.; x o s s s l O s s s + + s s s O t s s s o x c s z   : l.u.u.u.a.5.u.u.;.z.z.z.z.z.z.z.",
"z.z.z.z.z.z.z.>.4.3.6.4.6.2.6.y.; x o s s s @ O s s s r + s s s @ t s s s O c s s c   : i.6.5.2.6.3.4.2.#.z.z.z.z.z.z.z.",
"z.z.z.z.z.z.z.>.u.y.i.4.d.6.u.6.; x o s s s t O s s s r + s s s O t c s s O x c s c   : u.6.u.y.6.u.d.6.#.z.z.z.z.z.z.z.",
"z.z.z.z.z.z.z./ ) ) ) / _ ) ) ) ; $ o s s s x O s s s + + c s s O t s s s o x s s z   % ( ( ( ) ( _ ( ( / z.z.z.z.z.z.z.",
"z.z.z.z.z.z.z.r.h.r.g.g.g.g.i.r.B x o s s s @ O s s s r + s s s + t s s s o l c s z   - i.i.g.f.g.p.i.g.;.z.z.z.z.z.z.z.",
"z.z.z.z.z.z.z.p.l.6.k.r.d.4.j.<.; x o s s s x O s s s + + s s s O t s s s O x s s c   * r.f.6.i.a.h.f.l.,.z.z.z.z.z.z.z.",
"z.z.z.z.z.z.z.i.l.p.l.y.f.y.f.i.; $ o s s s + O s s s t + c s s @ t s s c o x s s c   : f.i.y.i.f.j.h.l.1.z.z.z.z.z.z.z.",
"z.z.z.z.z.z.z.i.p.3.y.k.i.r.y.3.; x o s s s @ O s s s + + s s s O t s s s O l s s z   * r.r.u.i.l.6.5.h.,.z.z.z.z.z.z.z.",
"z.z.z.z.z.z.z.i.g.4.6.u.6.6.6.u.; x o s s s @ O s s s r O s s s O t s s s O l s s c   : i.6.y.3.i.3.u.j.1.z.z.z.z.z.z.z.",
"z.z.z.z.z.z.z.i.6.3.4.3.6.2.6.2.; l o s s s l O s s s r + s s s @ + s s s O l s s c   * 6.3.5.2.r.3.6.6.1.z.z.z.z.z.z.z.",
"z.z.z.z.z.z.z.r.y.y.u.6.6.a.a.2.; x o s s s @ O s s s + + s s s O t s s c o l s s c   * u.6.j.6.d.6.d.6.;.z.z.z.z.z.z.z.",
"z.z.z.z.z.z.z._ _ _ _ _ _ _ _ _ 7 5 & 9 9 9 5 4 9 9 9 5 4 9 9 9 4 5 9 9 9 4 5 9 9 5 5 2 _ _ _ _ _ _ _ _ z.z.z.z.z.z.z.z."
};
