/* XPM */
static char *result[] = {
/* columns rows colors chars-per-pixel */
"60 60 154 2 ",
"   c #2B2A2E",
".  c #792F23",
"X  c #7C3023",
"o  c #7D3123",
"O  c #7E3123",
"+  c #7E3422",
"@  c #7C3124",
"#  c #803124",
"$  c #833324",
"%  c #853324",
"&  c #873425",
"*  c #893525",
"=  c #8A3525",
"-  c #8B3625",
";  c #8C3725",
":  c #8F3725",
">  c #8F3726",
",  c #8C3C20",
"<  c #883826",
"1  c #893826",
"2  c #8B3B27",
"3  c #8C3C27",
"4  c #8E3E28",
"5  c #913B25",
"6  c #943926",
"7  c #963B27",
"8  c #983A27",
"9  c #993B27",
"0  c #993C27",
"q  c #9B3D27",
"w  c #943F28",
"e  c #994F11",
"r  c #97441F",
"t  c #99461E",
"y  c #98511C",
"u  c #A15B1B",
"i  c #B5591B",
"p  c #B75B1A",
"a  c #B85B1A",
"s  c #8C6E1C",
"d  c #92731B",
"f  c #AC621A",
"g  c #B76A1A",
"h  c #AC7719",
"j  c #B97416",
"k  c #B97516",
"l  c #B97B1B",
"z  c #8C4A24",
"x  c #994029",
"c  c #9A4129",
"v  c #99452B",
"b  c #9B462B",
"n  c #9B472B",
"m  c #9D4828",
"M  c #935325",
"N  c #A74F22",
"B  c #A2482C",
"V  c #A34B2D",
"C  c #A34D2D",
"Z  c #A84B2D",
"A  c #A94B2D",
"S  c #AA4C2D",
"D  c #AA4D2D",
"F  c #AC4F2C",
"G  c #A7522D",
"H  c #AB512F",
"J  c #AB522F",
"K  c #AD532F",
"L  c #AF5530",
"P  c #B25530",
"I  c #B05631",
"U  c #B25631",
"Y  c #B45731",
"T  c #B55831",
"R  c #B65931",
"E  c #B55832",
"W  c #B65932",
"Q  c #BB5F31",
"!  c #B95C33",
"~  c #BB602F",
"^  c #BE652D",
"/  c #B96E2B",
"(  c #CA6818",
")  c #CB7415",
"_  c #CC7F17",
"`  c #C97B18",
"'  c #D67016",
"]  c #D87216",
"[  c #DE7615",
"{  c #D67816",
"}  c #E17815",
"|  c #E27914",
" . c #EA7E13",
".. c #EA7F13",
"X. c #C8662B",
"o. c #C2692D",
"O. c #C86E29",
"+. c #C97328",
"@. c #C87C31",
"#. c #B18816",
"$. c #B58028",
"%. c #B88728",
"&. c #BE8F28",
"*. c #CB8912",
"=. c #CD8A11",
"-. c #CC8A12",
";. c #CD8A12",
":. c #CF8E11",
">. c #F7990F",
",. c #F09D0E",
"<. c #ED8113",
"1. c #ED8313",
"2. c #EF8213",
"3. c #F38512",
"4. c #F48612",
"5. c #F58612",
"6. c #F68712",
"7. c #D5A20F",
"8. c #DAA50E",
"9. c #E2A20D",
"0. c #E4A40D",
"q. c #EEA40D",
"w. c #E8AF0C",
"e. c #F8A90C",
"r. c #F6B00B",
"t. c #F9B10A",
"y. c #F9B30A",
"u. c #F7B909",
"i. c #FAB909",
"p. c #F8BA09",
"a. c #F8BB09",
"s. c #F9BB09",
"d. c #FABC09",
"f. c #CC9D25",
"g. c #C59929",
"h. c #C79B29",
"j. c #CBA029",
"k. c #CBA129",
"l. c #E1BF2B",
"z. c #F6C415",
"x. c #F9C613",
"c. c #F9C714",
"v. c #F9C715",
"b. c #E3C12B",
"n. c #F8D321",
"m. c #F8D827",
"M. c #F8D927",
"N. c #F5DB2C",
"B. c #F5DB2D",
"V. c #F6DD2D",
"C. c #F7DD2D",
"Z. c #F7DE2D",
"A. c #F8DF2D",
"S. c None",
/* pixels */
"S.S.S.S.S.S.S.S.S.S.S.S.S.S.S.S.S.S.S.S.S.S.S.S.S.S.S.S.S.S.S.S.S.S.S.S.S.S.S.S.S.S.S.S.S.S.S.S.S.S.S.S.S.S.S.S.S.S.S.S.",
"S.S.S.S.S.S.S.S.S.S.S.S.S.S.S.S.S.A.A.A.A.A.A.A.A.A.A.A.A.A.A.A.A.A.A.c.d.d.i.6.6.6.S.S.S.S.S.S.S.S.S.S.S.S.S.S.S.S.S.S.",
"S.S.S.S.S.S.S.S.S.S.S.S.S.S.S.S.S.A.A.A.A.A.A.A.A.A.A.A.A.A.A.A.A.A.A.c.d.d.i.6.6.6.S.S.S.S.S.S.S.S.S.S.S.S.S.S.S.S.S.S.",
"S.S.S.S.S.S.S.S.S.S.S.S.S.S.S.S.S.A.A.A.A.A.A.A.A.A.A.A.A.A.A.A.A.A.A.c.d.d.i.6.6.6.S.S.S.S.S.S.S.S.S.S.S.S.S.S.S.S.S.S.",
"S.S.S.S.S.S.S.S.S.S.S.S.S.S.S.S.S.g.%.%.%.%.%.%.%.%.%.%.Z.A.A.l.%.%.%.l k k j p p p e S.S.S.S.S.S.S.S.S.S.S.S.S.S.S.S.S.",
"S.S.S.S.S.S.S.S.S.S.S.S.S.S.A.A.A.M . . . . . . . . . . C.A.A.j.. . . . . . . . . . a 6.6.6.S.S.S.S.S.S.S.S.S.S.S.S.S.S.",
"S.S.S.S.S.S.S.S.S.S.S.S.S.S.A.A.A.M . . . . . . . . . . C.A.A.j.. . . . . . . . . . a 6.6.6.S.S.S.S.S.S.S.S.S.S.S.S.S.S.",
"S.S.S.S.S.S.S.S.S.S.S.S.S.S.A.A.A.M . . . . . . . . . . C.A.A.j.. . . . . . . . . . a 6.6.6.S.S.S.S.S.S.S.S.S.S.S.S.S.S.",
"S.S.S.S.S.S.S.S.S.S.A.A.A.h.z z z G L L H 6 6 6 B L L L Z.A.A.k.. . . - 6 6 7 L L L m , , , ..6.6.6.S.S.S.S.S.S.S.S.S.S.",
"S.S.S.S.S.S.S.S.S.S.A.A.A.&.. . . J ! ! Y 9 9 9 S ! ! ! Z.A.A.j.. . . > 9 9 q ! ! ! v . . .  .6.6.6.S.S.S.S.S.S.S.S.S.S.",
"S.S.S.S.S.S.S.S.S.S.A.A.A.&.. . . J ! ! Y 9 9 9 S ! ! ! Z.A.A.j.. . . > 9 9 q ! ! ! v . . .  .6.6.6.S.S.S.S.S.S.S.S.S.S.",
"S.S.S.S.S.S.S.S.S.S.b.b.b.$.O O O K ! ! Y 9 9 9 D ! ! ! m.M.M.f.. . . : 9 9 q ! ! ! b O O O ' } } | S.S.S.S.S.S.S.S.S.S.",
"S.S.S.S.S.S.A.A.A.V.. . . & 9 9 9 P ! ! Y 9 9 9 S ! ! ! s.d.d.-.. . . > 9 9 q ! ! ! A 9 9 9 X . . r 6.6.6.S.S.S.S.S.S.S.",
"S.S.S.S.S.S.A.A.A.V.. . . & 9 9 9 P ! ! Y 9 9 9 S ! ! ! s.d.d.-.. . . > 9 9 q ! ! ! A 9 9 9 X . . r 6.6.6.S.S.S.S.S.S.S.",
"S.S.S.S.S.S.A.A.A.V.. . . & 9 9 9 P ! ! Y 9 9 9 S ! ! ! s.d.d.-.. . . > 9 9 q ! ! ! A 9 9 9 X . . r 6.6.6.S.S.S.S.S.S.S.",
"S.S.S.S.S.S.A.A.A.B.. . . & 9 9 9 P ! ! Y 9 9 9 S ! ! ! s.d.d.;.. . . > 9 9 q ! ! ! Z 9 9 9 X . . r 6.6.6.S.S.S.S.S.S.S.",
"S.S.S.S.S.S.A.A.A.V.. . . & 9 9 9 P ! ! Y 9 9 9 S ! ! ! s.d.d.-.. . . > 9 9 q ! ! ! A 9 9 9 X . . r 6.6.6.S.S.S.S.S.S.S.",
"S.S.S.S.S.S.A.A.A.V.. . . & 9 9 9 P ! ! Y 9 9 9 S ! ! ! s.d.d.-.. . . > 9 9 q ! ! ! A 9 9 9 X . . r 6.6.6.S.S.S.S.S.S.S.",
"S.S.S.S.S.S.A.A.A.V.. . . & 9 9 9 P ! ! Y 9 9 9 S ! ! ! s.d.d.-.. . . > 9 9 q ! ! ! A 9 9 9 X . . r 6.6.6.S.S.S.S.S.S.S.",
"S.S.S.S.S.S.A.A.A.V.. . . & 9 9 9 P ! ! Y 9 9 9 S ! ! ! s.d.d.-.. . . > 9 9 q ! ! ! A 9 9 9 X . . y d.d.d.S.S.S.S.S.S.S.",
"S.S.S.S.S.S.A.A.A.V.. . . & 9 9 9 P ! ! Y 9 9 9 S ! ! ! s.d.d.-.. . . > 9 9 q ! ! ! A 9 9 9 X . . y d.d.d.S.S.S.S.S.S.S.",
"S.S.S.S.S.S.A.A.A.V.. . . & 9 9 9 P ! ! Y 9 9 9 S ! ! ! s.d.d.-.. . . > 9 9 q ! ! ! A 9 9 9 X . . y d.d.d.S.S.S.S.S.S.S.",
"S.S.S.S.S.S.A.A.A.N.. . . & 9 9 9 P ! ! Y 9 9 9 S ! ! ! s.d.d.=.. . . > 9 9 q ! ! ! Z 9 9 9 X . . y d.d.d.S.S.S.S.S.S.S.",
"S.S.S.S.S.S.A.A.A.V.. . . & 9 9 9 P ! ! Y 9 9 9 S ! ! ! s.d.d.-.. . . > 9 9 q ! ! ! A 9 9 9 X . . y d.d.d.S.S.S.S.S.S.S.",
"S.S.S.S.S.S.A.A.A.V.. . . & 9 9 9 P ! ! Y 9 9 9 S ! ! ! s.d.d.-.. . . > 9 9 q ! ! ! A 9 9 9 X . . y d.d.d.S.S.S.S.S.S.S.",
"S.S.S.S.S.S.A.A.A.V.. . . & 9 9 9 P ! ! Y 9 9 9 S ! ! ! s.d.d.-.. . . > 9 9 q ! ! ! A 9 9 9 X . . y d.d.d.S.S.S.S.S.S.S.",
"S.S.S.S.S.S.x.v.v.z.. . . & 9 9 9 P ! ! Y 9 9 9 D ! ! ! s.d.d.=.. . . : 9 9 q ! ! ! Z 9 9 9 V C C / n.n.n.S.S.S.S.S.S.S.",
"S.S.S.S.S.S.d.d.d.p.. . . & 9 9 9 P ! ! Y 9 9 9 S ! ! ! s.d.d.-.. . . > 9 9 q ! ! ! A 9 9 9 W ! ! @.A.A.A.S.S.S.S.S.S.S.",
"S.S.S.S.S.S.d.d.d.p.. . . & 9 9 9 P ! ! Y 9 9 9 S ! ! ! s.d.d.-.. . . > 9 9 q ! ! ! A 9 9 9 W ! ! @.A.A.A.S.S.S.S.S.S.S.",
"S.S.S.S.S.S.d.d.d.u.. . . & 9 9 9 P ! ! Y 9 9 9 F Q Q Q s.d.d.:.+ + + 5 8 8 0 ! ! ! Z 9 9 9 T ! ! @.A.A.A.S.S.S.S.S.S.S.",
"S.S.S.S.S.S.d.d.d.p.. . . & 9 9 9 P ! ! Y 9 9 9 _ d.d.d.d.d.d.d.d.d.d.u . . @ ! ! ! A 9 9 9 W ! ! @.A.A.A.S.S.S.S.S.S.S.",
"S.S.S.S.S.S.d.d.d.p.. . . & 9 9 9 P ! ! Y 9 9 9 _ d.d.d.d.d.d.d.d.d.d.u . . @ ! ! ! A 9 9 9 W ! ! @.A.A.A.S.S.S.S.S.S.S.",
"S.S.S.S.S.S.d.d.d.p.. . . & 9 9 9 P ! ! Y 9 9 9 _ d.d.d.d.d.d.d.d.d.d.u . . @ ! ! ! A 9 9 9 W ! ! @.A.A.A.S.S.S.S.S.S.S.",
"S.S.S.S.S.S.d.d.d.p.. . . & 9 9 9 P ! ! ~ ` ` ` h d d d s.d.d.7.d d d f p p i v v v x 9 9 9 W ! ! @.A.A.A.S.S.S.S.S.S.S.",
"S.S.S.S.S.S.d.d.d.p.. . . & 9 9 9 P ! ! o.d.d.d.s       a.d.d.#.      g 6.6.2.. . . * 9 9 9 W ! ! @.A.A.A.S.S.S.S.S.S.S.",
"S.S.S.S.S.S.d.d.d.p.. . . & 9 9 9 P ! ! o.d.d.d.s       a.d.d.#.      g 6.6.2.. . . * 9 9 9 W ! ! @.A.A.A.S.S.S.S.S.S.S.",
"S.S.S.S.S.S.d.d.d.p.. . . & 9 9 9 P ! ! o.d.d.d.s       a.d.d.#.      g 6.6.2.. . . * 9 9 9 W ! ! @.A.A.A.S.S.S.S.S.S.S.",
"S.S.S.S.S.S.d.d.d.u.. . . & 9 9 9 P ! ! o.d.d.d.w.8.8.8.d.d.d.q.{ { { 1.6.6.<.. . . * 9 9 9 R ! ! @.A.A.A.S.S.S.S.S.S.S.",
"S.S.S.S.S.S.d.d.d.p.. . . & 9 9 9 P ! ! o.d.d.d.d.d.d.d.d.d.d.e.6.6.6.6.6.6.2.. . . * 9 9 9 W ! ! @.A.A.A.S.S.S.S.S.S.S.",
"S.S.S.S.S.S.d.d.d.p.. . . & 9 9 9 P ! ! o.d.d.d.d.d.d.d.d.d.d.e.6.6.6.6.6.6.2.. . . * 9 9 9 W ! ! @.A.A.A.S.S.S.S.S.S.S.",
"S.S.S.S.S.S.t.y.y.r.. . . & 9 9 9 P ! ! ^ 0.0.0.9.0.0.0.y.y.y.,.} } } [ } } ] . . . * 9 9 9 E ! ! @.A.A.A.S.S.S.S.S.S.S.",
"S.S.S.S.S.S.6.6.6.4.. . . & 9 9 9 P ! ! I . . . . . . . 5.6.6.( . . . . . . . . . . * 9 9 9 W ! ! @.A.A.A.S.S.S.S.S.S.S.",
"S.S.S.S.S.S.6.6.6.4.. . . & 9 9 9 P ! ! I . . . . . . . 5.6.6.( . . . . . . . . . . * 9 9 9 W ! ! @.A.A.A.S.S.S.S.S.S.S.",
"S.S.S.S.S.S.6.6.6.4.. . . & 9 9 9 P ! ! I . . . . . . . 5.6.6.( . . . . . . . . . . * 9 9 9 W ! ! @.A.A.A.S.S.S.S.S.S.S.",
"S.S.S.S.S.S.6.6.6.3.. . . & 9 9 9 P ! ! U = = = w n n n 5.6.6.( . . . % = = ; n n n c 9 9 9 T ! ! @.A.A.A.S.S.S.S.S.S.S.",
"S.S.S.S.S.S.6.6.6.4.. . . & 9 9 9 P ! ! Y 9 9 9 S ! ! ! 5.6.6.( . . . > 9 9 q ! ! ! A 9 9 9 W ! ! @.A.A.A.S.S.S.S.S.S.S.",
"S.S.S.S.S.S.6.6.6.4.. . . & 9 9 9 P ! ! Y 9 9 9 S ! ! ! 5.6.6.( . . . > 9 9 q ! ! ! A 9 9 9 W ! ! @.A.A.A.S.S.S.S.S.S.S.",
"S.S.S.S.S.S.6.6.6.4.. . . & 9 9 9 P ! ! Y 9 9 9 S ! ! ! 5.6.6.( . . . > 9 9 q ! ! ! A 9 9 9 W ! ! @.A.A.A.S.S.S.S.S.S.S.",
"S.S.S.S.S.S.6.6.6.4.. . . & 9 9 9 P ! ! Y 9 9 9 S ! ! ! 5.6.6.( . . . > 9 9 q ! ! ! A 9 9 9 W ! ! +.d.d.d.S.S.S.S.S.S.S.",
"S.S.S.S.S.S.6.6.6.4.. . . & 9 9 9 P ! ! Y 9 9 9 S ! ! ! 5.6.6.( . . . > 9 9 q ! ! ! A 9 9 9 W ! ! +.d.d.d.S.S.S.S.S.S.S.",
"S.S.S.S.S.S.6.6.6.4.. . . & 9 9 9 P ! ! Y 9 9 9 S ! ! ! 5.6.6.( . . . > 9 9 q ! ! ! A 9 9 9 W ! ! +.d.d.d.S.S.S.S.S.S.S.",
"S.S.S.S.S.S.6.6.6.3.. . . & 9 9 9 P ! ! Y 9 9 9 S ! ! ! >.>.>.) . . . > 9 9 q ! ! ! Z 9 9 9 R ! ! O.e.e.e.S.S.S.S.S.S.S.",
"S.S.S.S.S.S.6.6.6.4.. . . & 9 9 9 P ! ! Y 9 9 9 S ! ! ! s.d.d.-.. . . > 9 9 q ! ! ! A 9 9 9 W ! ! X.6.6.6.S.S.S.S.S.S.S.",
"S.S.S.S.S.S.6.6.6.4.. . . & 9 9 9 P ! ! Y 9 9 9 S ! ! ! s.d.d.-.. . . > 9 9 q ! ! ! A 9 9 9 W ! ! X.6.6.6.S.S.S.S.S.S.S.",
"S.S.S.S.S.S.6.6.6.4.. . . & 9 9 9 P ! ! Y 9 9 9 S ! ! ! s.d.d.-.. . . > 9 9 q ! ! ! A 9 9 9 W ! ! X.6.6.6.S.S.S.S.S.S.S.",
"S.S.S.S.S.S.6.6.6.3.. . . o $ $ $ 2 4 4 2 $ $ $ 1 4 4 4 s.d.d.=.. . . # $ $ $ 4 4 4 < $ $ $ 3 4 4 N 6.6.6.S.S.S.S.S.S.S.",
"S.S.S.S.S.S.6.6.6.4.. . . . . . . . . . . . . . . . . . s.d.d.-.. . . . . . . . . . . . . . . . . r 6.6.6.S.S.S.S.S.S.S.",
"S.S.S.S.S.S.6.6.6.4.. . . . . . . . . . . . . . . . . . s.d.d.-.. . . . . . . . . . . . . . . . . r 6.6.6.S.S.S.S.S.S.S.",
"S.S.S.S.S.S.S.6.6.3.. . . . . . . . . . . . . . . . . . s.d.d.*.. . . . . . . . . . . . . . . . . t 6.6.6.S.S.S.S.S.S.S.",
"S.S.S.S.S.S.S.S.S.S.S.S.S.S.S.S.S.S.S.S.S.S.S.S.S.S.S.S.S.S.S.S.S.S.S.S.S.S.S.S.S.S.S.S.S.S.S.S.S.S.S.S.S.S.S.S.S.S.S.S."
};
