/* XPM */
static char *result[] = {
/* columns rows colors chars-per-pixel */
"60 60 181 2 ",
"   c #020101",
".  c #0A0202",
"X  c #030C0F",
"o  c #0C0A0A",
"O  c #140000",
"+  c #1B0202",
"@  c #190808",
"#  c #100E0D",
"$  c #13110F",
"%  c #040F12",
"&  c #07171D",
"*  c #061217",
"=  c #151312",
"-  c #1A1715",
";  c #1C1817",
":  c #1C1A19",
">  c #240101",
",  c #2B0101",
"<  c #280A0A",
"1  c #320101",
"2  c #3A0404",
"3  c #3D0708",
"4  c #240F10",
"5  c #221E1C",
"6  c #25201E",
"7  c #091E25",
"8  c #0B242D",
"9  c #0E2D38",
"0  c #0F313E",
"q  c #272220",
"w  c #2A2523",
"e  c #2E2826",
"r  c #2C2929",
"t  c #332D2A",
"y  c #39322F",
"u  c #3D3532",
"i  c #3E3A3A",
"p  c #430203",
"a  c #4C0506",
"s  c #47090B",
"d  c #49080A",
"f  c #420608",
"g  c #530203",
"h  c #5E0506",
"j  c #5E0608",
"k  c #550A0B",
"l  c #5D0B0C",
"z  c #421616",
"x  c #531112",
"c  c #5C1B1C",
"v  c #5C1318",
"b  c #640304",
"n  c #6D0204",
"m  c #640A0C",
"M  c #6D0B0C",
"N  c #750103",
"B  c #7C0103",
"V  c #760609",
"C  c #7A0608",
"Z  c #720A0C",
"A  c #7C0A0C",
"S  c #670E12",
"D  c #760F11",
"F  c #780D10",
"G  c #641112",
"H  c #6B1314",
"J  c #6C1A1B",
"K  c #741315",
"L  c #751718",
"P  c #741C1E",
"I  c #7B181A",
"U  c #5B1820",
"Y  c #413936",
"T  c #463D3A",
"R  c #493F3C",
"E  c #6B2122",
"W  c #74242C",
"Q  c #792628",
"!  c #4B413E",
"~  c #103441",
"^  c #133D4C",
"/  c #154254",
"(  c #174A5D",
")  c #16475A",
"_  c #4E4440",
"`  c #514743",
"'  c #544946",
"]  c #574C48",
"[  c #5A4E4B",
"{  c #5D514D",
"}  c #635652",
"|  c #695B57",
" . c #6D5F5A",
".. c #675A55",
"X. c #6E605B",
"o. c #72635E",
"O. c #756661",
"+. c #776863",
"@. c #7A6A64",
"#. c #7E6E69",
"$. c #840102",
"%. c #8B0102",
"&. c #8F0A06",
"*. c #840608",
"=. c #8C0708",
"-. c #830A0C",
";. c #8C0B0C",
":. c #930102",
">. c #990302",
",. c #9C0A06",
"<. c #920C0B",
"1. c #9D0C09",
"2. c #83100F",
"3. c #8F110F",
"4. c #92110D",
"5. c #9E100E",
"6. c #850F10",
"7. c #8C0E11",
"8. c #910F12",
"9. c #851314",
"0. c #8C1213",
"q. c #8B1518",
"w. c #831B1D",
"e. c #8A1B1C",
"r. c #84171A",
"t. c #921415",
"y. c #981617",
"u. c #931C17",
"i. c #941619",
"p. c #951B1B",
"a. c #991B1C",
"s. c #9B1B16",
"d. c #A10503",
"f. c #A00C07",
"g. c #A0140D",
"h. c #A01510",
"j. c #A41B14",
"k. c #A81E15",
"l. c #9F211B",
"z. c #811E20",
"x. c #8B1E21",
"c. c #911F21",
"v. c #9E1F21",
"b. c #862324",
"n. c #8D2324",
"m. c #872728",
"M. c #932224",
"N. c #9A2324",
"B. c #962A2D",
"V. c #9C292B",
"C. c #9A2629",
"Z. c #982E30",
"A. c #9E3234",
"S. c #943234",
"D. c #A32425",
"F. c #A32B2D",
"G. c #A82C2E",
"H. c #A52E30",
"J. c #A82F31",
"K. c #A33133",
"L. c #AC3233",
"P. c #A73638",
"I. c #B43637",
"U. c #B13738",
"Y. c #B33A3C",
"T. c #A73F41",
"R. c #BB3F41",
"E. c #B94244",
"W. c #84736D",
"Q. c #897771",
"!. c #8C7A74",
"~. c #827A78",
"^. c #907D77",
"/. c #C14749",
"(. c #94817A",
"). c #98847E",
"_. c #9D8982",
"`. c #9D9390",
"'. c #A28D86",
"]. c #A09694",
"[. c None",
/* pixels */
"[.[.[.[.[.[.[.[.[.[.[.[.[.[.[.[.[.[.[.[.[.[.[.[.[.[.[.[.[.[.[.[.[.[.[.[.[.[.[.[.[.[.[.[.[.[.[.[.[.[.[.[.[.[.[.[.[.[.[.[.",
"[.[.[.[.[.[.[.[.[.[.[.[.[.[.[.[.[.[.[.[.[.[.[.[.[.I.[.[.[.[.[.[.[.[.[.[.[.[.[.[.[.[.[.[.[.[.[.[.[.[.[.[.[.[.[.[.[.[.[.[.",
"[.[.[.[.[.[.[.[.[.[.[.[.[.[.[.[.[.[.[.[.[.[.[.I.1.1.l.s.[.[.[.[.[.[.[.[.[.[.[.[.[.[.[.[.[.[.[.[.[.[.[.[.[.[.[.[.[.[.[.[.",
"[.[.[.[.[.[.[.[.[.[.[.[.[.[.[.[.[.[.[.[.[.[.[.;.:.>.f.j.t.[.[.[.[.[.[.[.[.[.[.[.[.[.[.[.[.[.[.[.[.[.[.[.[.[.[.[.[.[.[.[.",
"[.[.[.[.[.[.[.[.[.[.[.[.[.[.[.[.[.[.[.[.[.[.[.=.:.:.>.f.<.[.[.[.[.[.[.[.[.[.[.[.[.[.[.[.[.[.[.[.[.[.[.[.[.[.[.[.[.[.[.[.",
"[.[.[.[.[.[.[.[.[.[.[.[.I.[.[.[.[.[.[.[.[.[.[.L %.%.%.=.K [.[.[.[.[.[.[.[.[.[.[.[.[.G.L.L.E.[.[.[.[.[.[.[.[.[.[.[.[.[.[.",
"[.[.[.[.[.[.[.[.[.[.N.t.s.;.a.[.[.[.[.[.[.[.[.[.&.%.%.6.<.a.[.[.[.[.[.[.[.[.[.[.[.[.t.k.k.I.[.[.[.[.[.[.[.[.[.[.[.[.[.[.",
"[.[.[.[.[.[.[.[.[.[.=.:.:.1.;.[.[.[.[.[.[.[.[.[.x %.%.%.=.[.[.[.[.[.[.[.[.[.[.[.[.[.q.d.d.D.[.[.[.[.[.[.[.[.[.[.[.[.[.[.",
"[.[.[.[.[.[.[.[.[.[.$.%.%.:.&.;.[.[.[.[.[.[.[.[.[.[.l m [.[.[.[.[.[.[.[.[.[.[.[.[.[.[.f.>.5.[.[.[.[.[.[.[.[.[.[.[.[.[.[.",
"[.[.[.[.[.[.[.[.[.[.$.$.$.%.%.$.[.[.[.[.[.[.[.[.[.[.[.[.[.[.[.[.[.[.[.[.[.[.[.[.[.[.[.<.>.>.[.[.[.[.[.[.[.[.[.[.[.[.[.[.",
"[.[.[.[.[.[.[.[.[.[.k *.$.$.$.$.H.[.[.[.[.[.[.[.[.[.[.[.[.[.[.[.[.U.[.t.D.[.[.[.[.[.[.[.;.:.[.[.[.[.[.[.[.[.[.[.[.[.[.[.",
"[.[.[.[.[.[.[.[.[.[.[.[.%.$.$.B [.[.[.[.[.[.[.[.[.[.[.[.[.[.[.a.*.$.:.>.g.D.[.[.[.[.[.[.E [.[.[.[.[.[.[.[.[.[.[.[.[.[.[.",
"[.[.[.[.[.[.[.[.[.[.[.[.[.g [.[.[.[.[.[.[.[.[.[.[.[.[.[.[.[.i.$.$.>.1.>.h.D.[.[.[.[.[.[.V.Y.U.[.[.D.>.<.<.[.[.[.[.[.[.[.",
"[.[.[.[.[.[.[.[.[.[.[.[.[.      # =       [.[.[.[.[.[.[.[.[.B B %.:.>.>.=.V.[.[.[.[.[.[.U.Y.E.[.[.%.>.>.%.p.[.[.[.[.[.[.",
"[.[.[.[.[.[.[.[.[.[.[.[.      T !.'.'.o.r   [.[.[.[.[.[.V.0.B $.%.>.>.%.$.t.i.*.[.[.[.T.K.B.[.[.9.:.[.&.$.t.[.[.[.[.[.[.",
"[.[.[.[.[.[.[.[.[.[.[.    8 0 &   u Q.'._.O.=   [.[.[.B B $.B B $.>.>.%.B B $.$.[.[.[.[.r.=.%.:.:.:.:.$.B $.[.[.[.[.[.[.",
"[.[.[.[.[.[.[.[.[.[.    8 ( ( ( / 7   R W.Q._.`   4 V B B [.*.B %.:.:.%.$.B m [.[.[.[.[.$.$.%.:.:.:.$.$.B $.8.[.[.[.[.[.",
"[.[.[.[.[.[.[.[.[.  w X ( ( ( ( ( ( ^ X y T _.'.^.u   1 Q [.3 %.%.:.:.:.$.k [.[.[.[.[.0.$.$.:.:.:.%.$.B B $.$.D.[.[.[.[.",
"[.[.[.[.[.[.[.[.[.6 : 9 ( ( ( ( ( ( ( /   : '.'.'.'.Q.e   [.[.x *.%.:.:.%.x.[.[.[.[.[.-.$.%.:.:.:.$.B B B $.%.[.[.[.[.[.",
"[.[.[.[.[.[.[.[.  _   ) ( ( ( ( ( ( ( ) %   '.'.'.'.'.'.#.6   a k *.:.:.$.&.[.[.[.[.J.$.$.%.:.:.%.$.$.$.B $.%.F.[.[./.[.",
"[.[.[.[.[.[.[.[.  Y   ( ( ( ( ( ( ( ( * r t '.'.'.'.'.'.'.'. .- O b :.:.%.&.[.[.[.K.v.%.%.%.:.%.$.$.B [.$.$.A [.[.H.[.[.",
"[.[.[.[.N.0.3.[.  _ o ~ ( ) ( ( ( ( 8 ~.w  .'.'.'.'.'.'.'.'.'.W.| # + n $.7.[.[.n.V.<.%.%.$.%.:.%.b C [.$.A [.M.M.P.[.[.",
"[.[.[.B.t.l.&.$.c t X.  7 / ( ( ( ^ i `.= '.'.'.'.'.'.'.'.Q.t Q.'.'.[ o , [.8.&.V.=.%.:.$.$.%.:.:.%.$.9.*.-.,.>.%.K.[.[.",
"[.[.[.;.t.4.&.$.H   !.!.e   8 / ( & `.o #.Q.(.'.'.'.'.'.'.w (.'.'.'.'.).Y   g 9.&.$.%.:.%.%.:.%.%.%.$.$.%.:.>.:.%.L.[.[.",
"[.[.[.[.-.<.%.%.9.p w '.'.! -   8 : e ! _.t '.'.'.'.'.'.#.W.} '.'.'.'.'.'.W.5 > N $.V :.%.%.%.%.:.$.B $.:.:.:.%.7.[.[.[.",
"[.[.[.[.[.*.%.*.[.[.  ` '._.! =     $ _.T +.'.'.'.'.'.'.'._.R '.'.'.'.'.'.'.'.'   p %.%.$.[.p %.%.$.$.$.:.:.:.%.N.[.[.[.",
"[.[.[.[.[.[.[.[.[.[.[.  ] '.'.).} ] ^.+.! '.'.'.'.'.'.'.'.] +.'.'.'.'.'.'.'.'.'.W.; + N C [.*.%.%.$.$.%.%.:.%.y.[.[.[.[.",
"[.[.[.[.[.[.[.[.[.[.[.[.  u _.'.'.'.'.Q.'.'.'.'.'.'.'.'._.6 '.'.'.'.'.'.'.'.'.'.'.'.R . g %.%.%.$.%.:.%.%.%.%.I [.[.[.[.",
"[.[.[.[.[.[.[.[.[.[.[.[.[.  5 Q.'.'.'.'.'.'.'.'.'.+.o.'.! X.'.'.'.'.'.'.'.'.'.'.'.'.'.@.= > B g $.[.%.%.%.%.$.[.[.[.[.[.",
"[.[.[.[.[.[.[.[.[.[.[.[.[.[.    ..'.'.'.'.'.'.'.'.t '.o.Y _.'.'.'.'.'.'.'.'.'.'.'.'.'.'._.u . 2 S [.:.%.%.$.%.;.[.[.[.[.",
"[.[.[.[.[.[.[.[.[.[.[.[.[.[.[.[.  t ).'.'.'.'.'.{ | W.y ' Q.'.'.'.'.'.'.'.'.'.'.'.'.'.'.'.'.@.- + k %.$.$.%.%.I [.[.[.[.",
"[.[.[.[.[.[.[.[.[.[.[.[.[.[.[.[.H @ o O.'.'.'.'.t ).! o.! '.'.'.'.'.'.'.'.'.'.'.'.'.'.'.'.'.'.'.`   1 N B $.:.y.[.[.[.[.",
"[.[.[.[.[.[.[.[.[.[.[.[.[.[.[.9.[.[.z   u ).'.'.{ '.+.y '.'.'.'.'.'.'.'.'.'.'.'.'.'.'.'.'.'.'.'.'.!.u   p $.%.v.L.[.[.[.",
"[.[.[.[.[.[.[.[.[.[.[.[.[.[.[.-.[.[.b.[.+ o o.'.'.'.X.'.'.'.'.'.'.'.'.'.'.'.'.'.'.'.'.'.'._.'.'.'.'.'.#.q . M G.H.[.[.[.",
"[.[.[.[.[.[.[.[.[.[.[.[.[.[.[.w.[.[.[.M.p.g . e !.'.'.'.'.'.'.'.'.'.'.'.'.'.'.'.'.'.'.(.R #._.' R Q.'.'.'.[ . n.M.[.[.[.",
"[.[.[.[.[.[.[.[.[.[.[.[.[.[.A [.e.[.[.e.;.B n 1 . _ _.'.'.'.'.'.'.'.'.'.'.'._.).'.'.Q.t ^.'.'.'.(.6 '.'.'.W.. b.;.[.[.[.",
"[.L.[.[.[.[.[.[.[.[.[.[.[.[.B [.K x.u.;.B N N n [.+ o } '.'.'.'.'.'.'._.@.'.i '.'.(.w (.'.'.Q.'.'.` #.W.'. .O :.$.[.[.[.",
"[.N.P.P.G.[.[.[.[.[.[.[.[.U F N.9.s.4.$.B N V [.[.3 a . ; @.'.'.'.'.'.[ O.O.' '.'.t W.'.'.! Q.'.'.! _.! '.T p %.$.[.[.[.",
"[.w.V.N.[.[.[.[.[.[.[.[.[.B [.t.e.t.*.M b B [.[.[.V B s a . t !.'.'.'.} '.w _.'.O.` '.'.@.T '.'.'._ '.t _.. N $.A [.[.[.",
"[.[.H 9.[.[.[.[.[.[.[.[.C L n.K t.=.f [.[.B [.q.B N G W $.B ,   _ '.'.'.Q._ _.'.e '.'.'.q _._.o.'.'.} } ] > %.*.[.[.[.[.",
"[.[.[.[.[.[.[.[.[.[.[.W N [.[.[.D C m 9.B N $.B N N *.r.9.%.w.M + = O.'.@._.'.+.| '.'._ +.'.` @.'._.6 ).. n %.[.[.[.[.[.",
"[.[.[.[.[.[.[.[.[.[.[.V r.[.[.[.A :.%.B B B B B N B %.x.9.;.0.$.B p   Y _.'.'. .'.'._.O.'.(.t '.'.! +.Y , %.m [.[.[.[.[.",
"[.[.[.[.[.[.[.[.[.[.[.B [.p.a.;.%.%.$.B B $.B N N $.;.[.;.i.%.$.B N b + - W.'.'.'.'.'.'.'.{ ^.'.o.{ W.  2.[.[.[.[.[.[.[.",
"[.[.[.[.[.[.[.[.[.[.[.A V.n.7.t.%.%.$.B B $.n B N $.M K ;.;.%.B N B k $.3 = _.'.W.'.'.'.'.'.'.'.^.'.5 x [.[.[.[.[.[.[.[.",
"[.[.[.[.[.[.[.[.[.[.V w.M.V.t.<.:.$.B [.[.k [.B B $.[.&.&.%.$.B B h [.*.C + t '.[ _.'.(.'.'.Q.'.'.] @ J [.[.[.[.[.[.[.[.",
"[.[.[.[.[.[.[.[.[.[.B V.G.B.t.&.%.M [.[.[.[.[.b $.V [.%.%.%.$.B m [.[.[.Z j   y W.t 6 e (.u !.'.Q.  J [.[.[.[.[.[.[.[.[.",
"[.[.[.[.[.[.[.[.[.v V K.V.N.&.p.A [.[.[.[.[.[.f %.[.M *.n $.B B [.[.[.[.M [.[.. t _.'.@.` !.'._.; x [.[.[.[.[.[.[.[.[.[.",
"[.[.[.[.[.[.[.[.[.C B G.K.t.J K [.[.[.[.[.[.[.[.H [.[.[.-.B $.A [.[.[.[.[.[.[.a + - #.'.'.'.'.Y < [.[.[.[.[.[.[.[.[.[.[.",
"[.[.[.[.[.[.[.[.[.B q.G.Z.G [.[.[.[.[.[.[.[.[.[.[.[.[.[.C $.$.[.[.[.[.[.[.[.[.[.$.1   Y ^.'.}   x [.[.[.[.[.[.[.[.[.[.[.",
"[.[.[.[.[.[.[.[.[.B F.G.V.[.[.[.[.[.[.[.[.[.[.[.[.[.[.[.[.f [.[.[.[.[.[.[.[.[.[.B $.N >   5   [.[.[.[.[.[.[.[.[.[.[.[.[.",
"[.[.[.[.[.[.[.[.[.B N.J.N.[.[.[.[.[.[.[.[.[.[.[.[.[.[.[.[.[.[.[.[.[.[.[.[.[.[.[.j B B $.w.[.[.[.[.[.[.[.[.[.[.[.[.[.[.[.",
"[.[.[.[.[.[.[.[.d B t.V.[.[.[.[.[.[.[.[.[.[.[.[.[.[.[.[.[.[.[.[.[.[.[.[.[.[.[.[.Z $.*.M [.[.[.[.[.[.[.[.[.[.[.[.[.[.[.[.",
"[.[.[.[.[.[.[.[.[.9.;.I [.[.[.[.[.[.[.[.U.Y.E.[.[.[.[.[.[.[.[.[.[.[.[.[.[.[.[.[.v [.c m.[.[.[.[.[.[.[.[.[.[.[.[.[.[.[.[.",
"[.[.[.[.[.[.[.[.[.Q P [.[.[.[.[.[.[.[.[.N.K.Y.[.[.[.[.[.[.[.[.[.[.[.[.[.[.[.[.[.q.[.b.[.[.[.[.[.[.[.[.[.[.[.[.[.[.[.[.[.",
"[.[.[.[.[.[.[.[.[.Z.S.[.[.[.[.[.[.[.[.[.<.V.G.N.[.[.[.[.[.[.[.[.[.[.[.[.[.[.[.[.S ;.;.[.[.[.[.[.[.[.[.[.[.[.[.[.[.[.[.[.",
"[.[.[.[.[.[.[.[.[.H.Y.[.[.[.[.[.[.[.[.[.3.p.a.4.[.[.[.[.[.[.[.[.[.[.[.[.[.[.[.[.x -.;.[.[.[.[.[.[.[.[.[.[.[.[.[.[.[.[.[.",
"[.[.[.[.[.[.[.[.[.L.P [.[.[.[.[.[.[.[.[.x 3.=.x.[.[.[.[.[.[.[.[.[.[.[.[.[.[.[.[.[.[.[.[.[.[.[.[.[.[.[.[.[.[.[.[.[.[.[.[.",
"[.[.[.[.[.[.[.[.[.[.[.[.[.[.[.[.[.[.[.[.[.[.[.[.[.[.[.[.[.[.[.[.[.[.[.[.[.[.[.[.[.[.[.[.[.[.[.[.[.[.[.[.[.[.[.[.[.[.[.[.",
"[.[.[.[.[.[.[.[.[.[.[.[.[.[.[.[.[.[.[.[.[.[.[.[.[.[.[.[.[.[.[.[.[.[.[.[.[.[.[.[.[.[.[.[.[.[.[.[.[.[.[.[.[.[.[.[.[.[.[.[.",
"[.[.[.[.[.[.[.[.[.[.[.[.[.[.[.[.[.[.[.[.[.[.[.[.[.[.[.[.[.[.[.[.[.[.[.[.[.[.[.[.[.[.[.[.[.[.[.[.[.[.[.[.[.[.[.[.[.[.[.[."
};
