/* XPM */
static char *result[] = {
/* columns rows colors chars-per-pixel */
"60 60 21 1 ",
"  c #494942",
". c #6A6C64",
"X c #7A7D75",
"o c #7C7C74",
"O c #838171",
"+ c #88877A",
"@ c #87887B",
"# c #8B8F86",
"$ c #8E8D84",
"% c #8C8E85",
"& c #97998C",
"* c #9F9E95",
"= c #9D9F96",
"- c #A4A493",
"; c #A9AA9C",
": c #B0AE9A",
"> c #B1AFA5",
", c #AFB0A6",
"< c #BDB9A1",
"1 c #C1C0B6",
"2 c #D4D1C6",
/* pixels */
"22222  .#######     2222222,####,222222222$  #######.  22222",
"22222  .#######     2222222,####,222222222$  #######.  22222",
"22222$$o.......$$$$$22222,,=##--;,,,,12222>$$.......o$$221,,",
"2222222$       2222222222#####<<-####,2222222       $2222,##",
"2222222$       2222222222#####<<-####,2222222       $2222,##",
"2222222222222222222222222##-<<<<<<<#####22222222222222222222",
"2222222222222222222222222##-<<<<<<<#####22222222222222222222",
"22222,,,,,,,,,,,,12222222##-<<<<:--#####2222222222,,,,,22222",
"22222############,2222222##-<<<<-#######2222222222#####22222",
"22222############,2222222##-<<<<-#######2222222222#####22222",
"22,####-<<<<<<<#####22222##-<<#######.  22,##############,22",
"22,####-<<<<<<<#####22222##-<<#######.  22,##############,22",
"22,##--:<<<<:--#####22222##&--#######%$$22,##-------&####=,,",
"22,##<<<<<<<-#######22222############,2222,##<<<<<<<-#######",
"22,##<<<<<<<-#######22222############,2222,##<<<<<<<-#######",
"22,##<<-############22222  .#######  $22#####<<<<<##########",
"22,##<<-############22222  .#######  $22#####<<<<<##########",
"22*..--&############22222$$o.......$$>22##&--<<:--##########",
"22$  ###############2222222$       22222##-<<<<-############",
"22$  ###############2222222$       22222##-<<<<-############",
"22222     #######.  22,##222222222222222##-<<############.  ",
"22222     #######.  22,##222222222222222##-<<############.  ",
"22222$$$$$.......o$$221,,222222222222222..@--##########..o$$",
"2222222222       $2222222222222222222222  .############  $22",
"2222222222       $2222222222222222222222  .############  $22",
"2222222222222222222222222##########2222222$  #####     22222",
"2222222222222222222222222##########2222222$  #####     22222",
",,,,,,,,,,2222222222221,,##&-------,,12222>$$.....$$$$$22222",
"##########222222222222,####-<<<<<<<##,2222222     2222222222",
"##########222222222222,####-<<<<<<<##,2222222     2222222222",
"<<<<<<<-#######22222  .##<<<<<<<-#######22222222222222222,##",
"<<<<<<<-#######22222  .##<<<<<<<-#######22222222222222222,##",
"<<<<<--&#######,,122$$o..-------&#######$$>22221,,22222,,;--",
"<<<<<############,2222$  ###############  $2222,##22222##-<<",
"<<<<<############,2222$  ###############  $2222,##22222##-<<",
"###############  $2222222  .#########.  222222222222222  .##",
"###############  $2222222  .#########.  222222222222222  .##",
"##X..#####.....$$>2222222$$o.........o$$222222222222222$$o..",
"##.  #####     222222222222$         $2222222222222222222$  ",
"##.  #####     222222222222$         $2222222222222222222$  ",
"22222     2222222222##,2222222222222222222222#######,2222222",
"22222     2222222222##,2222222222222222222222#######,2222222",
"22222$$$$$2222222222,,122222222222222222,,,,,-----##=,,22222",
"2222222222222222222222222222222222222222#####<<<<<#####22222",
"2222222222222222222222222222222222222222#####<<<<<#####22222",
"##,2222222#######,222222222,#######22222##-<<<<<<<<<-####,22",
"##,2222222#######,222222222,#######22222##-<<<<<<<<<-####,22",
",,122,,,,,-----##=,,22222,,=##--&##22222##-<<<<:----&####,22",
"22222#####<<<<<#####22222#####<<-##22222##-<<<<-#########,22",
"22222#####<<<<<#####22222#####<<-##22222##-<<<<-#########,22",
"22222##-<<<<<<<<<<<<##,22  O<<#######,22##-<<###############",
"22222##-<<<<<<<<<<<<##,22  O<<#######,22##-<<###############",
"221,,--:<<<<:-------##,22$$+OO#####..*22##&--###############",
"22,##<<<<<<<-#########,2222$  #####  $22####################",
"22,##<<<<<<<-#########,2222$  #####  $22####################",
"22,###################,2222222     22222  .##############.  ",
"22,###################,2222222     22222  .##############.  ",
"22*..###############..*2222222$$$$$22222$$o..##########..o$$",
"22$  ###############  $2222222222222222222$  ##########  $22",
"22$  ###############  $2222222222222222222$  ##########  $22"
};
