/* XPM */
static char *result[] = {
/* columns rows colors chars-per-pixel */
"60 60 30 1 ",
"  c #A67037",
". c #AD763B",
"X c #B57C40",
"o c #BB8545",
"O c #BE8C46",
"+ c #C48949",
"@ c #C28C4A",
"# c #C18F4B",
"$ c #C89C4D",
"% c #C29359",
"& c #D09B54",
"* c #CCA35F",
"= c #D6AB57",
"- c #D6A45A",
"; c #DAAB5B",
": c #D9B258",
"> c #DDAE60",
", c #DAB36A",
"< c #DDB96B",
"1 c #D0AB72",
"2 c #E0B461",
"3 c #E4BB62",
"4 c #E7C163",
"5 c #EBC864",
"6 c #EBC975",
"7 c #EECF76",
"8 c #E1C17D",
"9 c #EBCA86",
"0 c #F2D788",
"q c #FAE6AD",
/* pixels */
"553>>55555550qq555555555555555553>>553>>550qq55555553>>553>>",
"553>>55555550qq555555555555555553>>553>>550qq55555553>>553>>",
"554333345500811$$$$$$$:5555555554333333300811$$$$$$$=3355433",
"55555>>355qq1         $555555555555>>355qq1         $5555555",
"55555>>355qq1         $555555555555>>355qq1         $5555555",
"55555550qq  X+++++++++X  5555555555550qq  X+++++++       $55",
"55555550qq  X+++++++++X  5555555555550qq  X+++++++       $55",
"$$$$$$$*11XX@&&&&&&&&&@XX$$$$$$$$$$$$*11XX@&&&&&&&##oXXXXO$$",
"          ++&>>>>>>>>>&++               ++&>>>>>>>>>&++++X  ",
"          ++&>>>>>>>>>&++               ++&>>>>>>>>>&++++X  ",
"++++++++++>>355553>>553>>+++++++++++++++>>355>>>>>553>>>>&++",
"++++++++++>>355553>>553>>+++++++++++++++>>355>>>>>553>>>>&++",
"&&&&&&&&&&333335543333333&&&&&&&&&&&&&&&333333333333333>>-&&",
">>>>>>>>>>553>>55555>>355>>>>>>>>>>>>>>>553>>55555>>355>>>>>",
">>>>>>>>>>553>>55555>>355>>>>>>>>>>>>>>>553>>55555>>355>>>>>",
"55555>>355550qq55555553>>55555>>355>>35555555qq0555555555555",
"55555>>355550qq55555553>>55555>>355>>35555555qq0555555555555",
"555553345500811$$$$$$$,995555533455>>3555570011*$$$$$$$$$:55",
"5555555555qq1         1qq5555555555>>355550qq            $55",
"5555555555qq1         1qq5555555555>>355550qq            $55",
"            X+++++++++X  qqqqq               ++++++++++++X  ",
"            X+++++++++X  qqqqq               ++++++++++++X  ",
"XXXXXXXXXXXX@&&&&&&&&&@XX11111XXXXXXXXXXXXo##&&&&&&&&&&&&@XX",
"++++++++++++&>>>>>>>>>&++     ++++++++++++&>>>>>>>>>>>>>>&++",
"++++++++++++&>>>>>>>>>&++     ++++++++++++&>>>>>>>>>>>>>>&++",
">>355>>>>>>>355553>>553>>+++++>>>>>>>>>>55555553>>553>>553>>",
">>355>>>>>>>355553>>553>>+++++>>>>>>>>>>55555553>>553>>553>>",
"33600332>>333335543333333&&&&&33333>>23300<$$$$=335543333333",
"550qq553>>553>>55555>>355>>>>>55555>>355qq1    $5555555>>355",
"550qq553>>553>>55555>>355>>>>>55555>>355qq1    $5555555>>355",
"qq1    $5555555>>355550qq5555555555qq1    X++++X  5555555555",
"qq1    $5555555>>355550qq5555555555qq1    X++++X  5555555555",
"11%XXXXO$$555553345500811$$$$$$$$$$11%XXXX@&&&&@XX$$$$$$$$$$",
"  X++++X  5555555555qq1              X++++&>>>>&++          ",
"  X++++X  5555555555qq1              X++++&>>>>&++          ",
"++&>>>>&++            X++++++++++++++&>>>>355553>>++++++++++",
"++&>>>>&++            X++++++++++++++&>>>>355553>>++++++++++",
"&&;3333;&&XXXXXXXXXXXX@&&&&&&&&&&&&&&;33>>35533333&&&&&&&&&&",
">>355553>>++++++++++++&>>>>>>>>>>>>>>355>>355>>355>>>>>>>>>>",
">>355553>>++++++++++++&>>>>>>>>>>>>>>355>>355>>355>>>>>>>>>>",
"553>>>>355>>>>>>>>>>>>355553>>>>355553>>55555555555555555555",
"553>>>>355>>>>>>>>>>>>355553>>>>355553>>55555555555555555555",
"333333333333333333333333355433333335543355700$$$$$$$$$$55433",
">>355553>>5555555555553>>55555553>>55555550qq          553>>",
">>355553>>5555555555553>>55555553>>55555550qq          553>>",
"550qq               55555553>>55555550qq     +++++++X    $55",
"550qq               55555553>>55555550qq     +++++++X    $55",
"00811  .XXXXXXXXXXXX$$$$$$$=3300<$$$$*11XXXXX&&&&&&&@XX  $55",
"qq1    X++++++++++++       $55qq1       +++++>>>>>>>&++  $55",
"qq1    X++++++++++++       $55qq1       +++++>>>>>>>&++  $55",
"     ++&>>>>>>>>>>>>+++++++X    X+++++++>>>>>55555553>>++X  ",
"     ++&>>>>>>>>>>>>+++++++X    X+++++++>>>>>55555553>>++X  ",
"XXXXX&&;33332>>33333&&&&&&&@XXXX@&&&&&&&333333345533333&&@XX",
"+++++>>355553>>55555>>>>>>>&++++&>>>>>>>55555>>355>>355>>&++",
"+++++>>355553>>55555>>>>>>>&++++&>>>>>>>55555>>355>>355>>&++",
">>>>>553>>55555553>>55555553>>>>35555555>>3555555555555553>>",
">>>>>553>>55555553>>55555553>>>>35555555>>3555555555555553>>",
">>2335543333455553>>3345533333>>35555555>>355334555555533333",
">>35555555>>355553>>>>355>>355>>35555555>>355>>35555555>>355",
">>35555555>>355553>>>>355>>355>>35555555>>355>>35555555>>355"
};
