/* XPM */
static char *result[] = {
/* columns rows colors chars-per-pixel */
"60 60 13 1 ",
"  c #3998D7",
". c #47A0DD",
"X c #56A9E3",
"o c #6BB8E7",
"O c #65B1E9",
"+ c #74BAF0",
"@ c #7AC1ED",
"# c #80C8EB",
"$ c #88C9F3",
"% c #8ED0F1",
"& c #9DD9F7",
"* c #B2E8FB",
"= c #C7F8FF",
/* pixels */
"=====++X  +++++============&++  X++++X  ====================",
"=====++X  +++++============&++  X++++X  ====================",
"&&*==++X  ++$&&=====&&&&&&&$++XXXXX&&%##===============&&*==",
"++&==++X  ++&=======++++++++++++X  ====================++&==",
"++&==++X  ++&=======++++++++++++X  ====================++&==",
"==&++     ++&============+++++++X  ++&======================",
"==&++     ++&============+++++++X  ++&======================",
"&&@XXXXo##++$&&&&&&&&&*==&&$++++OXXXX%==============*&&=====",
"++X  ++&==++++++++++++&====&+++++++  #==============&++=====",
"++X  ++&==++++++++++++&====&+++++++  #==============&++=====",
"+++++=======&++++X  +++++============&++==&++==========++&==",
"+++++=======&++++X  +++++============&++==&++==========++&==",
"++$&&=======*&&&&@XXXXO++&&*=========%XX==*&&==*&&=====&&&&&",
"++&==============&++  X++++&=========#  =======&++=======&++",
"++&==============&++  X++++&=========#  =======&++=======&++",
"++&===================&+++++++=======#  +++++++&==++&====&++",
"++&===================&+++++++=======#  +++++++&==++&====&++",
"&&*===================*&&&&&&&=====&&@XXXXO++++$&&&&*====&++",
"===================================+++++  X+++++++=======&++",
"===================================+++++  X+++++++=======&++",
"==============================++++++++++++X  ++&=======++&==",
"==============================++++++++++++X  ++&=======++&==",
"=================*&&&&*=======+++++&&&&&&&@XX++$&&&&&&&++$&&",
"=================&++++&=======+++++=======&+++++++++++++++++",
"=================&++++&=======+++++=======&+++++++++++++++++",
"+++++=======&+++++++++&==++++++++++==========++X    X++==&++",
"+++++=======&+++++++++&==++++++++++==========++X    X++==&++",
"&&$++&&*==&&$+++++++&&&&&++++++++++&&*=======XX.  XX@&&==*&&",
"==&++++&==++++++++++==&++++++++++++++&=======     ++&=======",
"==&++++&==++++++++++==&++++++++++++++&=======     ++&=======",
"===============++X  ++X  ++&====&+++++++=====  X++++&=======",
"===============++X  ++X  ++&====&+++++++=====  X++++&=======",
"===============++OXXXXXXX&&*====*&&++$&&==*&&XXXXX++$&&=====",
"===============+++++  X++==========++&====&++++X  +++++=====",
"===============+++++  X++==========++&====&++++X  +++++=====",
"==&++=======&++++X  +++++++&============+++++++X  ++&=======",
"==&++=======&++++X  +++++++&============+++++++X  ++&=======",
"==*&&&&*==&&$++XXo##++$&&&&*==&&*====*&&&&$++++OXXXX@&&=====",
"=====++&==+++++  #==++&=======++&====&++==&+++++++  X++=====",
"=====++&==+++++  #==++&=======++&====&++==&+++++++  X++=====",
"============&++  X++==========++++++++++++++++++++++X  =====",
"============&++  X++==========++++++++++++++++++++++X  =====",
"============*&&XXO++==========++$&&&&$++++++++++++++OXX=====",
"===============+++++==========++&====&+++++++++++++++++=====",
"===============+++++==========++&====&+++++++++++++++++=====",
"=====++++++++++++&=======++&==============&++==&+++++++++&==",
"=====++++++++++++&=======++&==============&++==&+++++++++&==",
"==*&&++++++++++&&*=======++$&&==========&&$++&&&&&&&$++XX@&&",
"==&++++++++++++==========+++++==========+++++++&====&++  X++",
"==&++++++++++++==========+++++==========+++++++&====&++  X++",
"++++++++++  X++==========+++++=======&++++&=======+++++     ",
"++++++++++  X++==========+++++=======&++++&=======+++++     ",
"XXO++XXXXX  .XX==========&&$++=======*&&++$&&&&&&&XXXXXXXXXX",
"  X++          ============&++==========++++++++++     +++++",
"  X++          ============&++==========++++++++++     +++++",
"++&====&++++X  +++++=====++&=======+++++++X       ++++++++++",
"++&====&++++X  +++++=====++&=======+++++++X       ++++++++++",
"&&*====*&&XXXXX++$&&=====&&*==&&&&&++OXXXXo##XXXXX++$&&&&&&&",
"==========  X++++&============+++++++X    #==+++++++&=======",
"==========  X++++&============+++++++X    #==+++++++&======="
};
