/* XPM */
static char *result[] = {
/* columns rows colors chars-per-pixel */
"60 60 117 2 ",
"   c #1D1927",
".  c #1E1A28",
"X  c #211C27",
"o  c #241E2A",
"O  c #291F2A",
"+  c #261E32",
"@  c #27202D",
"#  c #28212E",
"$  c #34222B",
"%  c #3B242C",
"&  c #272030",
"*  c #2C2433",
"=  c #2F2837",
"-  c #2E2538",
";  c #302837",
":  c #31273B",
">  c #342C3C",
",  c #3D2C3E",
"<  c #38313F",
"1  c #41262B",
"2  c #45282F",
"3  c #4D2A2D",
"4  c #572D2E",
"5  c #5C2F2F",
"6  c #462930",
"7  c #512C30",
"8  c #5D2F30",
"9  c #5F3032",
"0  c #613030",
"q  c #693432",
"w  c #743633",
"e  c #763836",
"r  c #342743",
"t  c #372D41",
"y  c #392E44",
"u  c #362749",
"i  c #37284B",
"p  c #3B2E4B",
"a  c #3C3046",
"s  c #3E314B",
"d  c #3E2D56",
"f  c #3E2B5A",
"g  c #3F3050",
"h  c #452F41",
"j  c #40334E",
"k  c #573544",
"l  c #402E58",
"z  c #433553",
"x  c #463856",
"c  c #483A57",
"v  c #45345B",
"b  c #48365D",
"n  c #473858",
"m  c #4A395C",
"M  c #513B5A",
"N  c #643946",
"B  c #422C60",
"V  c #473460",
"C  c #493464",
"Z  c #4D3B63",
"A  c #4C346D",
"S  c #4E396A",
"D  c #513A6D",
"F  c #4E3472",
"G  c #4F3378",
"H  c #513776",
"J  c #543B75",
"K  c #52367A",
"L  c #55397C",
"P  c #583C7E",
"I  c #49424D",
"U  c #4D4454",
"Y  c #4F4658",
"T  c #504855",
"R  c #51475A",
"E  c #7C414A",
"W  c #646261",
"Q  c #797E6B",
"!  c #8F3F37",
"~  c #9C443A",
"^  c #7C826E",
"/  c #838974",
"(  c #8D947C",
")  c #553681",
"_  c #573983",
"`  c #593A85",
"'  c #5D3C8C",
"]  c #5F3C91",
"[  c #613E94",
"{  c #633E99",
"}  c #663EA1",
"|  c #6740A1",
" . c #6940A5",
".. c #949C82",
"X. c #9AA286",
"o. c #9EA68A",
"O. c #9FA88A",
"+. c #A1A98D",
"@. c #A7AF91",
"#. c #ACB595",
"$. c #B1BA9A",
"%. c #B5C09D",
"&. c #BBC5A2",
"*. c #BFC9A4",
"=. c #C1CCA6",
"-. c #C5D0AA",
";. c #CAD6AE",
":. c #CBD8AF",
">. c #CEDAB1",
",. c #D2DEB5",
"<. c #D5E1B7",
"1. c #D6E3B9",
"2. c #D9E6BB",
"3. c #DEEBBE",
"4. c #DFECC0",
"5. c #E1EEC1",
"6. c None",
/* pixels */
"6.6.6.6.6.6.6.6.6.6.6.6.6.6.6.6.6.6.6.6.6.6.6.6.6.6.6.6.6.6.6.6.6.6.6.6.6.6.6.6.6.6.6.6.6.6.6.6.6.6.6.6.6.6.6.6.6.6.6.6.",
"6.6.6.6.6.6.6.6.6.6.6.6.6.6.6.6.6.6.6.6.6.6.6.{ ` L n z x 6.6.6.6.6.6.6.6.6.6.6.6.6.6.6.6.6.6.6.6.6.6.6.6.6.6.6.6.6.6.6.",
"6.6.6.6.6.6.6.6.6.6.6.6.6.6.6.6.6.6.6.6.6.] ] A p y t t s z z 6.6.6.6.6.6.6.6.6.6.6.6.6.6.6.6.6.6.6.6.6.6.6.6.6.6.6.6.6.",
"6.6.6.6.6.6.6.6.6.6.6.6.6.6.6.6.6.6.6.6.' v s y t > > > > t y z n n 6.6.6.6.6.6.6.6.6.6.6.6.6.6.6.6.6.6.6.6.6.6.6.6.6.6.",
"6.6.6.6.6.6.6.6.6.6.6.6.6.6.6.6.6.6.6.` V y > > > > > > > > > > > a n m 6.6.6.6.6.6.6.6.6.6.6.6.6.6.6.6.6.6.6.6.6.6.6.6.",
"6.6.6.6.6.6.6.6.6.6.6.6.6.6.6.6.6.6.P D y > > ; > > > > > > > = # - y s y 6.6.6.6.6.6.6.6.6.6.6.6.6.6.6.6.6.6.6.6.6.6.6.",
"6.6.6.6.6.6.6.6.6.6.6.6.6.6.6.6.6.6.m s > = - * = ; > > > > > ; - # * ; ; > 6.6.6.6.6.6.6.6.6.6.6.6.6.6.6.6.6.6.6.6.6.6.",
"6.6.6.6.6.6.6.6.6.6.6.6.6.6.6.6.6.m j t - @ @ @ @ # a a > > > > ; & # & - ; ; 6.6.6.6.6.6.6.6.6.6.6.6.6.6.6.6.6.6.6.6.6.",
"6.6.6.6.6.6.6.6.6.6.6.6.6.6.6.6.6.m j ; @ X @ X @ @ = y a > > > ; = @ # # # = > 6.6.6.6.6.6.6.6.6.6.6.6.6.6.6.6.6.6.6.6.",
"6.6.6.6.6.6.6.6.6.6.6.6.6.6.6.6.6.m a * X @ X X X @ * a s > > > > ; # # # # # * > 6.6.6.6.6.6.6.6.6.6.6.6.6.6.6.6.6.6.6.",
"6.6.6.6.6.6.6.6.6.6.6.6.6.6.6.6.6.m < % % O X O O $ % 6 a a > > > > = # # # # # = 6.6.6.6.6.6.6.6.6.6.6.6.6.6.6.6.6.6.6.",
"6.6.6.6.6.6.6.6.6.6.6.6.6.6.6.6.6.M 9 0 4 % O O 1 5 5 1 < s y > > > ; @ # # # # # 6.6.6.6.6.6.6.6.6.6.6.6.6.6.6.6.6.6.6.",
"6.6.6.6.6.6.6.6.6.6.6.6.6.6.6.6.6.M E ~ ~ 3 $ % 0 ~ ~ 0 h n y > > > ; # # # # @ @ = 6.6.6.6.6.6.6.6.6.6.6.6.6.6.6.6.6.6.",
"6.6.6.6.6.6.6.6.6.6.6.6.6.6.6.6.6.m N e q 1 O O 3 w w 4 6 m y > > > > = # # # # # # * 6.6.6.6.6.6.6.6.6.6.6.6.6.6.6.6.6.",
"6.6.6.6.6.6.6.6.6.6.6.6.6.6.6.6.6.m h 6 1 $ X X # 1 % % , x s > > > > > # # # # @ # @ 6.6.6.6.6.6.6.6.6.6.6.6.6.6.6.6.6.",
"6.6.6.6.6.6.6.6.6.6.6.6.6.6.6.6.6.m y % # @ X X $ $ $ @ ; s x a > > > ; * # # # # # @ @ 6.6.6.6.6.6.6.6.6.6.6.6.6.6.6.6.",
"6.6.6.6.6.6.6.6.6.6.6.6.6.6.6.6.6.T < # X @ X @ @ @ X X @ ; b t > > > > # @ # # # @ # @ 6.6.6.6.6.6.6.6.6.6.6.6.6.6.6.6.",
"6.6.6.4.3.5.5.5.5.6.6.6.6.6.6.6.6.m > O . @ @     X @ X @ = L s > > > ; * # # # # # # @ @ 6.6.6.6.6.6.6.6.6.6.6.6.6.6.6.",
"6.6.6.5.3.3.4.3.5.5.6.6.6.6.6.6.6.n y o . X o . @ X @ @ o r S p > = * * # # # # # # @ @ @ 6.6.6.6.6.6.6.6.6.6.6.6.6.6.6.",
"6.6.5.3.:.;.<.-.<.5.5.6.6.6.6.6.6.n p * o @ o o X @ X X o - z t = * * @ # # # # @ @ @ @ # 6.6.6.6.6.6.6.6.6.6.6.6.6.6.6.",
"6.6.3.:.+.+.*...%.<.5.6.6.6.6.6.6.6.c y o o o o o o o o o - v : & * @ @ @ @ @ @ 6.6.6.@ @ 6.6.6.6.6.6.6.6.6.6.6.6.6.6.6.",
"6.6.<.X.^ ( &./ / $.2.6.6.6.6.6.6.6.n p # o o o o o X + - i _ i & & & - - & * @ 6.6.6.6.6.6.6.6.6.6.6.6.6.6.6.6.6.6.6.6.",
"6.6.,.( Q ..=./ Q @.2.6.6.6.6.6.6.6.m z - O o o o + + f G ) ] i - * r A F V y * # 6.6.6.6.6.6.6.6.6.6.6.6.6.6.6.6.6.6.6.",
"6.6.1.#.+.$.:.@.o.&.3.6.6.6.6.6.6.6.6.z j f i > u f B ) ` G F u ; y A _ ' S g * # 6.6.6.6.6.6.6.6.6.6.6.6.6.6.6.6.6.6.6.",
"6.6.3.2.1.1.3.1.1.2.5.6.6.6.6.6.6.6.6.6.S ] D z V ` ` _ C r - : t V ' S Z R g ; # 6.6.6.6.6.6.6.6.6.6.6.6.6.6.6.6.6.6.6.",
"6.6.6.5.1.,.<.5.5.3.6.6.6.6.6.6.6.6.6.6.6.6.6.: y V i u : : : > t V ] Z m Z Z g - @ @ 6.6.6.6.6.6.6.6.6.6.6.6.6.6.6.6.6.",
"6.6.6.3.$...+.,.6.6.6.6.6.6.6.6.6.6.6.6.6.6.6.6.t z > ; ; > ; > t V ] v x Z m n - # @ 6.6.6.6.6.6.6.6.6.6.6.6.6.6.6.6.6.",
"6.6.6.1.+.Q ( :.6.6.6.6.6.6.6.6.6.6.6.6.6.6.6.s s x > > > > > > t V ] s x m m n - @ @ 6.6.6.6.6.6.6.6.6.6.6.6.6.6.6.6.6.",
"6.6.6.2.$...X.,.6.6.6.6.6.6.6.6.6.6.6.6.6.6.n j s x y > > > > > t C ] s z Z Y c = # # @ 6.6.6.6.6.6.6.6.6.6.6.6.6.6.6.6.",
"6.6.6.5.1.:.&.1.6.6.6.6.6.6.6.6.6.6.6.6.6.6.m j s m t > > > > > y C ' s g m m n - @ # @ 6.6.6.6.6.6.6.6.6.6.6.6.6.6.6.6.",
"6.6.6.6.6.6.W 6.6.6.6.6.6.6.6.6.6.6.6.6.6.{ v y b _ y > a j y > t V ] s z z s n ; # # # 6.6.6.6.6.6.6.6.6.6.6.6.6.6.6.6.",
"6.6.6.6.6.6.< 6.6.6.6.6.6.6.6.6.6.6.6.6.6.J d > d ' s > a x > > t C ] b c s s z * @ # # 6.6.6.6.6.6.6.6.6.6.6.6.6.6.6.6.",
"6.6.6.6.6.6.> 6.6.6.6.6.6.6.6.6.6.6.6.6.6.n y r l ] y t s x > > < C ] S Y b z x * @ # & 6.6.6.6.6.6.6.6.6.6.6.6.6.6.6.6.",
"6.6.6.6.6.6.> 6.6.6.6.6.6.6.6.6.6.6.6.6.L s z y d [ y > s x > > > v ` J Z T m x ; @ # # 6.6.6.6.6.6.6.6.6.6.6.6.6.6.6.6.",
"6.6.6.6.. @ ; & X 6.6.6.6.6.6.6.6.6.} _ d t s y d ] p t s j > > > t v ' J Z Z c - & @ # 6.6.6.6.6.6.6.6.6.6.6.6.6.6.6.6.",
"6.6.6.6.@ & ; 6.X . 6.6.6.6.6.6. . .L V g t > - d ] p > > a > > > > g { J m m x ; & @ @ 6.6.6.6.6.6.6.6.6.6.6.6.6.6.6.6.",
"6.6.6.6.o & & O o o 6.6.6.6.6.{ ' ' m s z ; * & i H y > > > > > > > g { J v z U a - & @ 6.6.6.6.6.6.6.6.6.6.6.6.6.6.6.6.",
"6.6.6.o X X o o o X o - L [ [ ' S z a a j ; * - 6.m t > t y > > > > g { J g s m n > @ @ 6.6.6.6.6.6.6.6.6.6.6.6.6.6.6.6.",
"6.6.6.o 6.6.o o X X o * b Z Z Z b y > t s - y s 6.Z t > a s t > > > s { J z a n n > # @ 6.6.6.6.6.6.6.6.6.6.6.6.6.6.6.6.",
"6.6.6.o . o o o o o X & j j j b s ; = & - & - - 6.' y > s z t > > > g { J z a m m t # & 6.6.6.6.6.6.6.6.6.6.6.6.6.6.6.6.",
"6.6.6.o @ # * 6.6.6.6.6.y y j z , * & # # & # 6.6.H t > t t > > > > p { J j s n n t # & 6.6.6.6.6.6.6.6.6.6.6.6.6.6.6.6.",
"6.6.6.X 6.6.; 6.6.6.6.6.> > h x > * # @ @ @ 6.6.6.U t > < > > > > t j { J z j m m > & O 6.6.6.6.6.6.6.6.6.6.6.6.6.6.6.6.",
"6.6.6.6.6.6.> 6.6.6.6.6.6.; a s ; & # # 6.# 6.6.6.m t > > > > > > > z { J z j n n > # # 6.6.6.6.6.6.6.6.6.6.6.6.6.6.6.6.",
"6.6.6.6.6.6.> 6.6.6.6.6.6.> > t & # @ # 6.6.6.6.6.n < > > > > > > > g { J n n m m y # + 6.6.6.6.6.6.6.6.6.6.6.6.6.6.6.6.",
"6.6.6.6.6.6.> 6.6.6.6.6.6.> y y * 6.o @ 6.6.6.6.` g > > a s < > > > p [ J z j m n t & & 6.o 6.6.6.6.6.6.6.6.6.6.6.6.6.6.",
"6.6.6.6.6.6.> 6.6.6.6.6.6.- y s - 6.6.6.6.6.6.6.' a > > s g < > > > y S C s j m Z s ; & 6.o 6.6.6.6.6.6.6.6.6.6.6.6.6.6.",
"6.6.6.6.6.6.> 6.6.6.6.6.6.& > t & 6.6.6.6.6.6.6.' a > > a s > > > > > y x s s Y m z > o 6.o 6.6.o 6.6.6.6.6.6.6.6.6.6.6.",
"6.6.6.6.6.6.> 6.6.6.6.6.6.@ & & # 6.6.6.6.6.6.6.L a > > > < > > > > > y U v b Z z ; @ o o o 6.6.o 6.6.6.6.6.6.6.6.6.6.6.",
"6.6.6.6.6.6.> > 6.6.6.6.6.6.o @ @ 6.6.6.6.6.6.6.m y > > a s > > > > > > x m m n ; @ o o o o @ X @ 6.6.6.6.6.6.6.6.6.6.6.",
"6.6.6.6.6.6.> > 6.6.6.6.6.6.6.@ 6.6.6.6.6.6.6.D s > > > a x < > > > > > z j s x * @ o o 6.6.6.6.6.6.6.6.6.6.6.6.6.6.6.6.",
"6.6.6.6.6.6.> > 6.6.6.6.6.6.6.o 6.6.6.6.6.6. .H t > > > t I < > > > > , z y t z = # @ @ 6.6.6.6.6.6.6.6.6.6.6.6.6.6.6.6.",
"6.6.6.6.6.6.> > 6.6.6.6.6.6.6.6.6.6.6.6.6.6. .H t > > > > > > > > > > > g y > s * # @ @ 6.6.6.6.6.6.6.6.6.6.6.6.6.6.6.6.",
"6.6.6.6.6.6.6.> 6.6.6.6.6.6.6.6.6.6.6.6.6.6. .H y > > > > > > j a > > t z a * * # # @ # # 6.6.6.6.6.6.6.6.6.6.6.6.6.6.6.",
"6.6.6.6.6.6.6.; 6.6.6.6.6.6.6.6.6.6.6.6.6.6.| F y > > > y a y z s > > > s y & @ # # @ # # 6.6.6.6.6.6.6.6.6.6.6.6.6.6.6.",
"6.6.6.6.6.6.6.> 6.6.6.6.6.6.6.6.6.6.6.6.6.6.) V y a > > y a > a a > > > y > * @ # @ # # # @ 6.6.6.6.6.6.6.6.6.6.6.6.6.6.",
"6.6.6.6.6.6.6.> 6.6.6.6.6.6.6.6.6.6.6.6.6.| V y a x > > > > > > > > > > > > ; & @ # # @ @ # # @ 6.6.6.6.6.6.6.6.6.6.6.6.",
"6.6.6.6.6.6.6.> 6.6.6.6.6.6.6.6.6.6.6.6.6.{ b > a z > > = > ; = = > = = > > = * # # # # # # @ @ @ @ 6.6.6.6.6.6.6.6.6.6.",
"6.6.6.6.6.6.6.> 6.6.6.6.6.6.6.6.6.6.6.6.Z S a > > a > > = * * * * * * * # * * * # # # # # # # # # # # # @ o 6.6.6.6.6.6.",
"6.6.6.6.6.6.6.> 6.6.6.6.6.6.6.6.6.6.6.6.n y - ; * * * = * # # # # # @ # # # # # # # # # # @ # # @ # # @ @ @ @ @ o 6.6.6.",
"6.6.6.6.6.6.6.6.6.6.6.6.6.6.6.6.6.6.6.6.z - # & # # # # @ # # @ # # # # # # # # # # # @ # # # @ # # # & # # @ # @ 6.6.6."
};
