/* XPM */
static char *result[] = {
/* columns rows colors chars-per-pixel */
"60 60 166 2 ",
"   c #1A1718",
".  c #1E1919",
"X  c #201714",
"o  c #211916",
"O  c #2D1B15",
"+  c #241D1D",
"@  c #291D19",
"#  c #331E15",
"$  c #27201F",
"%  c #2C211E",
"&  c #3C2215",
"*  c #34231D",
"=  c #3D261B",
"-  c #35281F",
";  c #3D2B1F",
":  c #231F20",
">  c #262121",
",  c #2A2222",
"<  c #2B2728",
"1  c #2E2A2B",
"2  c #342521",
"3  c #3B2725",
"4  c #352825",
"5  c #3C2A25",
"6  c #322D2C",
"7  c #3C2B29",
"8  c #332F30",
"9  c #363233",
"0  c #393536",
"q  c #3B3738",
"w  c #3D3A3B",
"e  c #422515",
"r  c #4B2916",
"t  c #43261A",
"y  c #44291A",
"u  c #4C2B18",
"i  c #562F17",
"p  c #582F17",
"a  c #522E18",
"s  c #46301E",
"d  c #593017",
"f  c #51301A",
"g  c #59381E",
"h  c #6B3B19",
"j  c #603C1D",
"k  c #713F19",
"l  c #402C26",
"z  c #432D2A",
"x  c #4E2C2A",
"c  c #4B2C27",
"v  c #46302A",
"b  c #4F312E",
"n  c #5D322E",
"m  c #53322F",
"M  c #403D3D",
"N  c #463330",
"B  c #563935",
"V  c #613A2C",
"C  c #653A35",
"Z  c #6E3D38",
"A  c #6A3733",
"S  c #7C3B37",
"D  c #713834",
"F  c #6C421D",
"G  c #7E481A",
"H  c #78461B",
"J  c #5E403B",
"K  c #65433E",
"L  c #75413A",
"P  c #7E443D",
"I  c #454242",
"U  c #494646",
"Y  c #4E4B4B",
"T  c #504D4D",
"R  c #565353",
"E  c #595656",
"W  c #5D5A5A",
"Q  c #694640",
"!  c #6D4842",
"~  c #7E4942",
"^  c #7C5149",
"/  c #615F5F",
"(  c #656263",
")  c #686566",
"_  c #6C6969",
"`  c #706D6E",
"'  c #777475",
"]  c #787676",
"[  c #7A7778",
"{  c #7B7979",
"}  c #834B1B",
"|  c #8D521C",
" . c #84463E",
".. c #8B403A",
"X. c #91423C",
"o. c #8A4941",
"O. c #944B42",
"+. c #9F5147",
"@. c #97584F",
"#. c #8D5A51",
"$. c #925D53",
"%. c #A14740",
"&. c #A64941",
"*. c #AB4B43",
"=. c #B94F46",
"-. c #A35449",
";. c #AC564B",
":. c #AA5046",
">. c #B2554A",
",. c #BF5148",
"<. c #B45A4E",
"1. c #BE584C",
"2. c #BF5E51",
"3. c #9E6459",
"4. c #BC6659",
"5. c #AE6D60",
"6. c #B06E61",
"7. c #BF7566",
"8. c #A87F7A",
"9. c #B97B73",
"0. c #C3544A",
"q. c #CB5A4F",
"w. c #CD5D51",
"e. c #D15F52",
"r. c #C56153",
"t. c #CD6C5D",
"y. c #CD6054",
"u. c #D46254",
"i. c #D2695C",
"p. c #DC695A",
"a. c #DA6658",
"s. c #E36D5D",
"d. c #C06F61",
"f. c #CB7364",
"g. c #CC7D6E",
"h. c #D37D6C",
"j. c #DA7868",
"k. c #DD7162",
"l. c #E67362",
"z. c #E37F6E",
"x. c #EA7B6A",
"c. c #D68373",
"v. c #ED816F",
"b. c #E68170",
"n. c #EE8371",
"m. c #E48B79",
"M. c #EC8B79",
"N. c #F08876",
"B. c #F28E7A",
"V. c #EF917E",
"C. c #F5917E",
"Z. c #898788",
"A. c #8B898A",
"S. c #918F8F",
"D. c #959393",
"F. c #999797",
"G. c #999798",
"H. c #A09E9E",
"J. c #A5A4A4",
"K. c #ADABAB",
"L. c #B0AFAF",
"P. c #BDBCBC",
"I. c #E78D80",
"U. c #F79682",
"Y. c #EBB0A8",
"T. c None",
/* pixels */
"T.T.T.T.T.T.T.T.T.T.T.T.T.T.T.T.T.T.T.T.T.: : : : : : : : T.T.T.T.T.T.T.T.T.T.T.T.T.T.T.T.T.T.T.T.T.T.T.T.T.T.T.T.T.T.T.",
"T.T.T.T.T.T.T.T.T.T.T.T.T.T.T.T.T.T.: : : : o + @ : 2 3 , : : T.T.T.T.T.T.T.T.T.T.T.T.T.T.T.T.T.T.T.T.T.T.T.T.T.T.T.T.T.",
"T.T.T.T.T.T.T.T.T.T.T.T.T.T.T.T.+ > : 2 2 # X X # 2 3 l 7 , : : T.T.T.T.T.T.T.T.T.T.T.T.T.T.T.T.T.T.T.T.T.T.T.T.T.T.T.T.",
"T.T.T.T.T.T.T.T.T.T.T.T.T.T.T.T.> + o 2 3 : o X : 3 = 2 l z , o + : T.T.T.T.T.T.T.T.T.T.T.T.T.T.T.T.T.T.T.T.T.T.T.T.T.T.",
"T.T.T.T.T.T.T.T.T.T.T.T.T.T.T.> + . X o - 2 :   * z l 2 2 l z o o : : T.T.T.T.T.T.T.T.T.T.T.T.T.T.T.T.T.T.T.T.T.T.T.T.T.",
"T.T.T.T.T.T.T.T.T.T.T.T.T.T.: + +   X o X X o o X X X @ 2 l v , o 2 : T.T.T.T.T.T.T.T.T.T.T.T.T.T.T.T.T.T.T.T.T.T.T.T.T.",
"T.T.T.T.T.T.T.T.T.T.T.T.T.: : 2 2 X X o : : : : + o X X @ - $ $ o : : : T.T.T.T.T.T.T.T.T.T.T.T.T.T.T.T.T.T.T.T.T.T.T.T.",
"T.T.T.T.T.T.T.T.T.T.T.T.> + X 2 z 5 $ $ V ,.,.0.0.D , @ o o . + : X., : T.T.T.T.T.T.T.T.T.T.T.T.T.T.T.T.T.T.T.T.T.T.T.T.",
"T.T.T.T.T.T.T.T.T.T.T.T.: X X * 2 4 3 *.,.,.0.e.u.0.0.0.C : , : X.0., : T.T.T.T.T.T.T.T.T.T.T.T.T.T.T.T.T.T.T.T.T.T.T.T.",
"T.T.T.T.T.T.T.T.T.T.T.T.: X X X o : : 3 ,.,.0.e.s.s.s.u.0.0.0.0.0.p.2 : T.T.T.T.T.T.T.T.T.T.T.T.T.T.T.T.T.T.T.T.T.T.T.T.",
"T.T.T.T.T.T.T.T.T.T.T.: o o o . o o 2 3 ,.0.w.e.l.l.l.l.l.l.s.s.s.s.w., T.T.T.T.T.T.T.T.T.T.T.T.T.T.T.T.T.T.T.T.T.T.T.T.",
"T.T.T.T.T.T.T.T.T.T.T.: X . % + X o % 3 0.w.s.s.x.U.U.U.U.x.s.s.s.s.C., T.T.T.T.T.T.T.T.T.T.T.T.T.T.T.T.T.T.T.T.T.T.T.T.",
"T.T.T.T.T.T.T.T.T.T.T.: o o + : X o : z 0.>.o.o.d.U.U.U.U.x.s.s.s.+.M., T.T.T.T.T.T.T.T.T.T.T.T.T.T.T.T.T.T.T.T.T.T.T.T.",
"T.T.T.T.T.T.T.T.T.T.T.: C C J : X o : D e.;.C z J $.$.f.n.l.-.o.o.< c., T.T.T.T.T.T.T.T.T.T.T.T.T.T.T.T.T.T.T.T.T.T.T.T.",
"T.T.T.T.T.T.T.T.T.T.: C s.x.m.J o X 3 0.w.s.2.m : : : o.s.;.2 : > B m., T.T.T.T.T.T.T.T.T.T.T.T.T.T.T.T.T.T.T.T.T.T.T.T.",
"T.T.T.T.T.T.T.T.T.T.: s.s.#.$.c.: X 3 0.e.s.9.A.E m o.4.l.-.2 ) 6 6.$., T.T.T.T.T.T.T.T.T.T.T.T.T.T.T.T.T.T.T.T.T.T.T.T.",
"T.T.T.T.T.T.T.T.: . : s.s.: > ^ : 2 S 0.w.s.I.Y.9.<.s.N.x.s.z 8.@.g.$.: T.T.T.T.T.T.T.T.T.T.T.o * * %   T.T.T.T.T.T.T.T.",
"T.T.T.T.T.T.T.: + * : s.s.o.Z , K 3 0.0.a.s.s.s.s.s.l.x.N.l.z -.s.l.$.. T.T.T.T.T.T.T.T.T.T.. % & e = > T.T.T.T.T.T.T.T.",
"T.T.T.T.T.T.T.: 2 z : s.s.n.z.3.6.: n n O.s.s.s.s.s.s.N.U.U.z -.s.0., : : T.T.T.T.T.T.T.+ : @ @ O % % > T.T.T.T.T.T.T.T.",
"T.T.T.T.T.T.: % z @ : C s.U.U.U.6.: .   C s.s.s.s.s.s.x.3.! : -.s.w., o + : T.T.: : T.: + @ O O @ < 1 : : T.T.T.: T.T.T.",
"T.T.T.T.T.T.: 2 z . o + z l.l.i.7 : X o A s.-.@.x.s.l.x.g.6.-.j.l.w.@ X : : : : : : : : + O @ + 1 I Y 0 : : : : : T.T.T.",
"T.T.T.T.T.T.: 2 @ + + o : z z 7 : : X : A s.o.#.U.x.s.k.l.l.s.N.M.q.: X 2 : : : -.-.o.> @ y + 1 I Y E I : : : E I T.T.T.",
"T.T.T.T.T.: > o . + . o 2 @ o * : : X o C s.o.1 N z z z z N z d.i.,.@ . 2 : : : b s.p.L > + < I Y Y E I U ] A.J.E T.T.T.",
"T.T.T.T.T.: > + + + . * 2 * X - 2 : X X : D i.q.f.h.g.I.h.h.h.U.q.,., . 2 : : q., s.s.p.o.< U Y Y R ( I W J.P.P.E T.T.T.",
"T.T.T.T.T.: : T.T.: o 2 z + X z 2 : o X X @ :  .s.l.s.s.l.s.s.w.0.,.: o 2 : : s.<.2 s.n.-.1 T Y Y R ( I E D.K.W > T.T.T.",
"T.T.T.T.T.T.T.T.T.: o c v + o 2 3 : : . X @ @ + : : : : : : : : : : : o : s.: s.U.U.U.N.-.1 W Y R ( ( { S.S.K.E : T.T.T.",
"T.T.T.T.T.T.T.T.: : o 2 > + X X 4 : : + X @ 2 @ : 3 2 o X @ z : . @ : o : s.s.U.U.U.U.z...: 1 ( ( ) I R D.J.P.E T.T.T.T.",
"T.T.T.T.T.T.T., % : o : , , X X 2 $ a O : : 7 # O z z % X O 3 : + # : o : s.s.U.U.C.b.,...: < w > > W S.J.P.K.Y T.T.T.T.",
"T.T.T.T.T.T.: %.0.,.: : 0.&.X X 2 $ r # @ : 2 2 o @ 3 O X X @ : o @ : : : &.0.B.B.p.0.=.S : : : U S.D.D.K.P.R : T.T.T.T.",
"T.T.T.T.T.T.3 &.0.w.w.q.0.&.: X , + $ t @ @ : : o o o X X X + : . + : : O + ..a.a.,.=.A : : : U D.S.S.J.P.J.I T.T.T.T.T.",
"T.T.T.T.T.: ..,.l.l.l.s.0.S : X 2 : z 2 @ @ 3 e @ : + o o X X X o : @ # O & : ,.,.,.&.+ : : : I S.S.F.K.P.` : T.T.T.T.T.",
"T.T.T.T.T.: ..,.B.U.U.l.l.3 + o , z l.-.: : # e # : : : : : o o + : O # @ y : ......S : T.T.: U S.D.K.P.J.R T.T.T.T.T.T.",
"T.T.T.T.T.: ..w.B.U.U.U.U.t.: : C ~ N.-.$ y r O @ * & O * * $ $ @ @ & y : - * @ + + : T.T.T.< / G.L.P.G.Y : T.T.T.T.T.T.",
"T.T.T.T.T.: O.a.B.U.U.U.U.m.! K -.l.h.A - i & O + @ O O = = $ $ O = y + * p p O # O : T.T.. 9 F.L.P.G.Y : T.T.T.T.T.T.T.",
"T.T.T.T.T.: A >.M.U.U.U.U.U.U.c.2 @.5.$ t r O @ + O O @ $ + % u r y + * i d p O O @ : T.T.< ) L.G.] Y : T.T.T.T.T.T.T.T.",
"T.T.T.T.T.: : &.x.C.U.U.U.m.#.^ $ 1 Q $ = * @ + @ # @ + $ @ u y = $ + = p p e O @ o T.T.  q J.` Y : T.T.T.T.T.T.T.T.T.T.",
"T.T.T.T.T.T.: &.s.x.U.U.U.^ : : g g s > - g g ; + + + @ @ & = $ + * > @ e e # @ : T.T.T.: 1 R > T.T.T.T.T.T.T.T.T.T.T.T.",
"T.T.T.T.T.T.: x 1.s.U.U.! : g j | | F % F | | g : * * O O * > + - a t @ + @ + : T.T.T.T.: T.T.T.T.T.T.T.T.T.T.T.T.T.T.T.",
"T.T.T.T.T.T.T.: x 1.U.U.: , | k G | H y } G F - : * # O O + $ $ y p d : + T.T.T.T.T.T.T.T.T.T.T.T.T.T.T.T.T.T.T.T.T.T.T.",
"T.T.T.T.T.T.T.T.> &.i.x.: u d d d h u e h a V o.o.n O O + % % + % - = + > : T.T.T.T.T.T.T.T.T.T.T.T.T.T.T.T.T.T.T.T.T.T.",
"T.T.T.T.T.T.T.T.T.7 =.z : & # p # # # e y x >.s.s. .+ + - a & + : : @ @ O @ : T.T.T.T.T.T.T.T.T.T.T.T.T.T.T.T.T.T.T.T.T.",
"T.T.T.T.T.T.T.T.T.T.3 : : O O & # @ # y x *.p.s.s. .: - a r # + @ O O O O O : : T.T.T.T.T.T.T.T.T.T.T.T.T.T.T.T.T.T.T.T.",
"T.T.T.T.T.T.T.T.T.T.: : O O O O @ + : 3 *.w.s.s. .: @ # # @ + @ O r p # O O : : T.T.T.T.T.T.T.T.T.T.T.T.T.T.T.T.T.T.T.T.",
"T.T.T.T.T.T.T.T.T.: O O O O : + : : : t 0.0.e.o.: @ O O + + @ O r d d # O + : : : T.T.T.T.T.T.T.T.T.T.T.T.T.T.T.T.T.T.T.",
"T.T.T.T.T.T.T.T.T.: O O O O : + O O O @ n 0.S > : : : : @ t a i d d & O + : U U 9 T.T.T.T.T.T.T.T.T.T.T.T.T.T.T.T.T.T.T.",
"T.T.T.T.T.T.T.T.: > + : O : : O O O O @ : : : : : @ # O r d p d d & O + > T { ' 9 : T.T.T.T.T.T.T.T.T.T.T.T.T.T.T.T.T.T.",
"T.T.T.T.T.T.T.: : 9 0 : > + O # p u : : @ O e p d p p p p d d d & @ $ > U Y { ] U : T.T.T.T.T.T.T.T.T.T.T.T.T.T.T.T.T.T.",
"T.T.T.T.T.T.: : 9 9 9 : : O # O : : : + O e d d d d d p p e O O O + + U Y T { ] U : T.T.T.T.T.T.T.T.T.T.T.T.T.T.T.T.T.T.",
"T.T.T.T.T.T.: 9 0 > > $ O O y $ : : $ @ O & i i p i p & O O O + + > 9 U Y { { { Y 8 : T.T.T.T.T.T.T.T.T.T.T.T.T.T.T.T.T.",
"T.T.T.T.T.T.+ 9 0 > y d @ > : > > > > > @ @ @ @ @ @ O @ @ O + > > 8 0 U Y { { _ I 8 : T.T.T.T.T.T.T.T.T.T.T.T.T.T.T.T.T.",
"T.T.T.T.T.T.: 1 0 > > y + > . 1 U q 9 > : : @ $ : : : : : : : 1 0 0 0 I Y { { Y 0 9 : T.T.T.T.T.T.T.T.T.T.T.T.T.T.T.T.T.",
"T.T.T.T.: , + > 9 0 < 6 1 9 9 R T U 0 1 : > > . : : T.T.T.T.T.: 1 9 0 0 I _ _ U 0 6 : T.T.T.T.T.T.T.T.T.T.T.T.T.T.T.T.T.",
"T.T.T.T.: u r @ 1 9 Y ) { { ] / Y w 9 < : T.T.T.T.T.T.T.T.T.T.T.+ < 9 0 0 I I 0 1 : : T.T.T.T.T.T.T.T.T.T.T.T.T.T.T.T.T.",
"T.T.T.: + = i e + 1 I Y ( ) / I w 1 < > T.T.T.T.T.T.T.T.T.T.T.T.T.: 1 9 0 0 1 6 + : T.T.T.T.T.T.T.T.T.T.T.T.T.T.T.T.T.T.",
"T.T.T.: + @ = e > : 0 M I I M 1 < > T.T.T.T.T.T.T.T.T.T.T.T.T.T.T.T.: 1 1 4 ; e O : T.T.T.T.T.T.T.T.T.T.T.T.T.T.T.T.T.T.",
"T.T.T.: + @ @ @ + : 6 1 1 1 1 : T.T.T.T.T.T.T.T.T.T.T.T.T.T.T.T.T.T.: @ @ e d = + : : T.T.T.T.T.T.T.T.T.T.T.T.T.T.T.T.T.",
"T.T.T.: @ O # @ @ : T.T.T.T.T.T.T.T.T.T.T.T.T.T.T.T.T.T.T.T.T.T.T.T.> O O e t > @ + @ : T.T.T.T.T.T.T.T.T.T.T.T.T.T.T.T.",
"T.T.T.: + @ + O O + : T.T.T.T.T.T.T.T.T.T.T.T.T.T.T.T.T.T.T.T.T.T.T.T.+ + @ @ @ O O + : : T.T.T.T.T.T.T.T.T.T.T.T.T.T.T.",
"T.T.T.T.T.T.: + + : : T.T.T.T.T.T.T.T.T.T.T.T.T.T.T.T.T.T.T.T.T.T.T.T.T.T.: @ + @ + : T.T.T.T.T.T.T.T.T.T.T.T.T.T.T.T.T.",
"T.T.T.T.T.T.T.T.T.T.T.T.T.T.T.T.T.T.T.T.T.T.T.T.T.T.T.T.T.T.T.T.T.T.T.T.T.T.T.T.T.T.T.T.T.T.T.T.T.T.T.T.T.T.T.T.T.T.T.T."
};
