/* XPM */
static char *result[] = {
/* columns rows colors chars-per-pixel */
"60 60 102 2 ",
"   c #1A1726",
".  c #211C27",
"X  c #231E29",
"o  c #2A1F28",
"O  c #27202D",
"+  c #28212E",
"@  c #35222A",
"#  c #3C252B",
"$  c #272031",
"%  c #2B2433",
"&  c #2F2836",
"*  c #2E243A",
"=  c #302837",
"-  c #31263B",
";  c #342C3C",
":  c #3C2C3F",
">  c #41262C",
",  c #4C2A2D",
"<  c #532C2E",
"1  c #5A2E2F",
"2  c #412D3F",
"3  c #653131",
"4  c #6F3532",
"5  c #713532",
"6  c #793834",
"7  c #322542",
"8  c #372C42",
"9  c #3A2E44",
"0  c #372948",
"q  c #3A2D4B",
"w  c #3B3046",
"e  c #3E314A",
"r  c #3C2B51",
"t  c #3E2B59",
"y  c #432F41",
"u  c #4A3040",
"i  c #40334E",
"p  c #543443",
"a  c #412C5F",
"s  c #443654",
"d  c #473857",
"f  c #45345A",
"g  c #473858",
"h  c #4B3B5D",
"j  c #653946",
"k  c #463260",
"l  c #4A3563",
"z  c #4E3B63",
"x  c #4A326B",
"c  c #4D3868",
"v  c #523C6D",
"b  c #4D3570",
"n  c #513776",
"m  c #543C73",
"M  c #53357D",
"N  c #55387E",
"B  c #593D7D",
"V  c #565256",
"C  c #6B6F60",
"Z  c #727766",
"A  c #757A68",
"S  c #797E6B",
"D  c #AA483B",
"F  c #B64C3E",
"G  c #B84D3E",
"H  c #89454C",
"J  c #7F8571",
"K  c #868C76",
"L  c #8D947C",
"P  c #91977E",
"I  c #91987F",
"U  c #573686",
"Y  c #5B3D86",
"T  c #5D3B8D",
"R  c #5F3C91",
"E  c #603F8F",
"W  c #613D95",
"Q  c #643E9A",
"!  c #663FA1",
"~  c #683DA9",
"^  c #66409D",
"/  c #6740A2",
"(  c #6A41A6",
")  c #6D42AC",
"_  c #969E83",
"`  c #99A086",
"'  c #9CA588",
"]  c #A3AB8D",
"[  c #ABB495",
"{  c #B9C39F",
"}  c #BDC8A4",
"|  c #C4CFA9",
" . c #CAD5AE",
".. c #CCD7B1",
"X. c #CDD9B0",
"o. c #D2DEB4",
"O. c #D6E3B8",
"+. c #DAE6BB",
"@. c #DDEABE",
"#. c #DFECC0",
"$. c #E1EEC1",
"%. c None",
/* pixels */
"%.%.%.%.%.%.%.%.%.%.%.%.%.%.%.%.%.%.%.%.%.%.%.%.%.%.%.%.%.%.%.%.%.%.%.%.%.%.%.%.%.%.%.%.%.%.%.%.%.%.%.%.%.%.%.%.%.%.%.%.",
"%.%.%.%.%.%.%.%.%.%.%.%.%.%.%.%.%.%.%.%.%.%.%.%.%.%.%.%.%.%.%.d d g T T ^ %.%.%.%.%.%.%.%.%.%.%.%.%.%.%.%.%.%.%.%.%.%.%.",
"%.%.%.%.%.%.%.%.%.%.%.%.%.%.%.%.%.%.%.%.%.%.%.%.%.%.%.%.%.g g e ; ; ; ; b / ! %.%.%.%.%.%.%.%.%.%.%.%.%.%.%.%.%.%.%.%.%.",
"%.%.%.%.%.%.%.%.%.%.%.%.%.%.%.%.%.%.%.%.%.%.%.%.%.%.h h g ; 8 ; ; ; ; ; 8 9 q / %.%.%.%.%.%.%.%.%.%.%.%.%.%.%.%.%.%.%.%.",
"%.%.%.%.%.%.%.%.%.%.%.%.%.%.%.%.%.%.%.%.%.%.%.%.h h 9 ; ; ; ; ; ; ; ; ; ; ; ; f R %.%.%.%.%.%.%.%.%.%.%.%.%.%.%.%.%.%.%.",
"%.%.%.%.%.%.%.%.%.%.%.%.%.%.%.%.%.%.%.%.%.%.%.8 i q % + % ; ; ; ; ; ; ; ; ; ; ; m Y %.%.%.%.%.%.%.%.%.%.%.%.%.%.%.%.%.%.",
"%.%.%.%.%.%.%.%.%.%.%.%.%.%.%.%.%.%.%.%.%.%.- ; - + + % ; ; ; ; ; ; = = = = = ; e h %.%.%.%.%.%.%.%.%.%.%.%.%.%.%.%.%.%.",
"%.%.%.%.%.%.%.%.%.%.%.%.%.%.%.%.%.%.%.%.%.- ; & + + % % ; ; ; ; w d O X X X X & ; e z %.%.%.%.%.%.%.%.%.%.%.%.%.%.%.%.%.",
"%.%.%.%.%.%.%.%.%.%.%.%.%.%.%.%.%.%.%.%.; % + + O O % ; ; ; ; i 9 % X . X X X X & i h %.%.%.%.%.%.%.%.%.%.%.%.%.%.%.%.%.",
"%.%.%.%.%.%.%.%.%.%.%.%.%.%.%.%.%.%.%.; % + + + O % = ; ; ; ; i i O o X X X X . + 9 z %.%.%.%.%.%.%.%.%.%.%.%.%.%.%.%.%.",
"%.%.%.%.%.%.%.%.%.%.%.%.%.%.%.%.%.%.%.& + + + + O = ; ; ; ; w e 2 @ @ o X . o # # 2 z %.%.%.%.%.%.%.%.%.%.%.%.%.%.%.%.%.",
"%.%.%.%.%.%.%.%.%.%.%.%.%.%.%.%.%.%.%.O O + + + O ; ; ; ; ; s : # 1 1 # o X @ < 1 p h %.%.%.%.%.%.%.%.%.%.%.%.%.%.%.%.%.",
"%.%.%.%.%.%.%.%.%.%.%.%.%.%.%.%.%.%.& O + + + + O ; ; ; ; ; h 2 4 G F 3 # @ , D G H h %.%.%.%.%.%.%.%.%.%.%.%.%.%.%.%.%.",
"%.%.%.%.%.%.%.%.%.%.%.%.%.%.%.%.%.% + + + + + + & ; ; ; ; ; h 2 , 6 6 , o o # 4 6 j h %.%.%.%.%.%.%.%.%.%.%.%.%.%.%.%.%.",
"%.%.%.%.%.%.%.%.%.%.%.%.%.%.%.%.%.O + + + + + + ; ; ; ; ; i h : @ # > o X X @ # > 2 z %.%.%.%.%.%.%.%.%.%.%.%.%.%.%.%.%.",
"%.%.%.%.%.%.%.%.%.%.%.%.%.%.%.%.O O + + + + + + ; ; ; ; : h s = . @ @ o . X X + @ : z %.%.%.%.%.%.%.%.%.%.%.%.%.%.%.%.%.",
"%.%.%.%.%.%.%.%.%.%.%.%.%.%.%.%.O + O + + + O + ; ; ; ; ; z % O   O O O O . X . O ; V %.%.%.%.%.%.%.%.%.%.%.%.%.%.%.%.%.",
"%.%.%.%.%.%.%.%.%.%.%.%.%.%.%.O O + + + + + + % ; ; ; ; e W * X X X O   . O X X . ; z %.%.%.%.%.%.%.%.$.$.$.$.@.$.%.%.%.",
"%.%.%.%.%.%.%.%.%.%.%.%.%.%.%.O O O + + + + + + % % = ; 9 B * X X X X X . . . . X 8 h %.%.%.%.%.%.%.$.$.$.$.$.$.$.%.%.%.",
"%.%.%.%.%.%.%.%.%.%.%.%.%.%.%.+ + O O O + + + + O + & & 8 h $ X X X X X . O O . $ 9 h %.%.%.%.%.%.$.$.+.| @. .X.$.$.%.%.",
"%.%.%.%.%.%.%.%.%.%.%.%.%.%.%.O O %.%.%.O + + + + O O $ % z $ O X X X X X X X X e h %.%.%.%.%.%.%.$.@.} J X.P _ +.$.%.%.",
"%.%.%.%.%.%.%.%.%.%.%.%.%.%.%.%.%.%.%.%.O + $ $ % + + $ 7 ^ * O X X X X X X X X q h %.%.%.%.%.%.%.$.[ S A X.L Z L @.%.%.",
"%.%.%.%.%.%.%.%.%.%.%.%.%.%.%.%.%.%.%.O + 8 l M M - % % 7 ) U U a   X X X X X % s h %.%.%.%.%.%.%.$.] C Z O.L C J @.%.%.",
"%.%.%.%.%.%.%.%.%.%.%.%.%.%.%.%.%.%.%.+ + s m W E x 9 & 7 M M R T t t 8 * 8 t e d %.%.%.%.%.%.%.%.$.{ _ ' +.[ ` ] @.%.%.",
"%.%.%.%.%.%.%.%.%.%.%.%.%.%.%.%.%.%.%.O % s V h h ( k ; - + % x W Q Q c g m ( c %.%.%.%.%.%.%.%.%.$.$.@.$.$.#.#.$.$.%.%.",
"%.%.%.%.%.%.%.%.%.%.%.%.%.%.%.%.%.O O % f l l h h ( k ; ; - & & * * c ; % %.%.%.%.%.%.%.%.%.%.%.%.%.@.$.$.+.+.@.$.%.%.%.",
"%.%.%.%.%.%.%.%.%.%.%.%.%.%.%.%.%.O + % h h z d w ( f ; ; ; ; - = = h ; %.%.%.%.%.%.%.%.%.%.%.%.%.%.%.%.O._ L [ $.%.%.%.",
"%.%.%.%.%.%.%.%.%.%.%.%.%.%.%.%.%.O O % h z h s ; ( k ; ; ; ; ; ; ; h w e %.%.%.%.%.%.%.%.%.%.%.%.%.%.%.O.J C ` $.%.%.%.",
"%.%.%.%.%.%.%.%.%.%.%.%.%.%.%.%.O + + % h V l s ; ( l ; ; ; ; ; ; ; h 9 i h %.%.%.%.%.%.%.%.%.%.%.%.%.%.O.P K [ $.%.%.%.",
"%.%.%.%.%.%.%.%.%.%.%.%.%.%.%.%.O + O % h h l s ; ( l ; ; ; ; ; ; ; z e e h %.%.%.%.%.%.%.%.%.%.%.%.%.%.@...O.@.$.%.%.%.",
"%.%.%.%.%.%.%.%.%.%.%.%.%.%.%.%.+ + + % h w s s ; ( f ; ; ; d w ; ; Q s ; f ) %.%.%.%.%.%.%.%.%.%.%.%.%.%.V %.%.%.%.%.%.",
"%.%.%.%.%.%.%.%.%.%.%.%.%.%.%.%.+ + + $ h w e h e ( l ; ; ; d e ; 8 ~ r & q B %.%.%.%.%.%.%.%.%.%.%.%.%.%.; %.%.%.%.%.%.",
"%.%.%.%.%.%.%.%.%.%.%.%.%.%.%.%.$ + + $ h i f h h ~ k ; ; ; h e ; ; ) q - 9 d %.%.%.%.%.%.%.%.%.%.%.%.%.%.; %.%.%.%.%.%.",
"%.%.%.%.%.%.%.%.%.%.%.%.%.%.%.%.O + O % h h V z c Q f ; ; ; d e ; ; ) q 9 d 8 T %.%.%.%.%.%.%.%.%.%.%.%.%.; %.%.%.%.%.%.",
"%.%.%.%.%.%.%.%.%.%.%.%.%.%.%.%.$ + + % h z h m ( q ; ; ; ; d e ; ; ) 0 9 d ; q T ~ %.%.%.%.%.%.%.%.%.. O & +   %.%.%.%.",
"%.%.%.%.%.%.%.%.%.%.%.%.%.%.%.%.o + + % h h h m ) 9 ; ; ; ; w ; ; 8 ~ r % - ; i f N ) ) %.%.%.%.%.%.  . %.; + O %.%.%.%.",
"%.%.%.%.%.%.%.%.%.%.%.%.%.%.%.%.$ $ % 9 V i s m ) 9 ; ; ; ; ; ; ; 8 Y 0 O + = d w d ^ Y / %.%.%.%.%.O . O + O O %.%.%.%.",
"%.%.%.%.%.%.%.%.%.%.%.%.%.%.%.%.X + ; z l w i m ) 8 ; ; ; ; 8 ; ; ; h %.% % % d w w i z W ^ Q E + . . O . O   . O %.%.%.",
"%.%.%.%.%.%.%.%.%.%.%.%.%.%.%.%.$ O ; h h 9 i m ) 8 ; ; ; ; g e ; ; z %.d i $ s ; ; 8 h z h z g O . . . O . %.%.O %.%.%.",
"%.%.%.%.%.%.%.%.%.%.%.%.%.%.%.%.$ o ; z h 9 i m ) 9 ; ; ; ; g e ; ; ^ %.% % $ * + & ; 8 g i e d O . O . O . O   . %.%.%.",
"%.%.%.%.%.%.%.%.%.%.%.%.%.%.%.%.$ O ; h h w i m ) 9 ; ; ; ; w 9 ; ; B %.%.+ $ + + + % ; d e : w %.%.%.%.%.% O O X %.%.%.",
"%.%.%.%.%.%.%.%.%.%.%.%.%.%.%.%.O O ; z h w i m ) 9 ; ; ; ; ; ; ; ; h %.%.%.+ X + + + ; h e ; ; %.%.%.%.%.; %.%.. %.%.%.",
"%.%.%.%.%.%.%.%.%.%.%.%.%.%.%.%.O O ; h h e i m ) 9 ; ; ; ; ; ; ; ; h %.%.%.+ %.+ + + - s w = %.%.%.%.%.%.; %.%.%.%.%.%.",
"%.%.%.%.%.%.%.%.%.%.%.%.%.%.%.%.$ O ; z h g h m ) 8 ; ; ; ; ; ; ; ; h %.%.%.%.%.+ + + + ; ; ; %.%.%.%.%.%.; %.%.%.%.%.%.",
"%.%.%.%.%.%.%.%.%.%.%.%.%.%.X %.$ O ; h z e e m ) 8 ; ; ; ; e w ; ; e T %.%.%.%.+ X %.+ e w ; %.%.%.%.%.%.; %.%.%.%.%.%.",
"%.%.%.%.%.%.%.%.%.%.%.%.%.%.X %.$ & e z z e e c m 8 ; ; ; ; h e ; ; ; W %.%.%.%.%.%.%.$ d 8 % %.%.%.%.%.%.; %.%.%.%.%.%.",
"%.%.%.%.%.%.%.%.%.%.%.X %.%.X %.X 8 d z V 0 e g ; ; ; ; ; ; s w ; ; ; W %.%.%.%.%.%.%.+ e ; + %.%.%.%.%.%.; %.%.%.%.%.%.",
"%.%.%.%.%.%.%.%.%.%.%.X %.%.. X X X & g z l t V ; ; ; ; ; ; ; ; ; ; ; T %.%.%.%.%.%.%.+ $ O O %.%.%.%.%.%.; %.%.%.%.%.%.",
"%.%.%.%.%.%.%.%.%.%.%.X . X X X X X O % z h h d ; ; ; ; ; ; s w ; ; ; h %.%.%.%.%.%.%.O + X %.%.%.%.%.%.; ; %.%.%.%.%.%.",
"%.%.%.%.%.%.%.%.%.%.%.%.%.%.%.%.X X X O h w e d ; ; ; ; ; ; g w ; ; ; e m %.%.%.%.%.%.%.+ %.%.%.%.%.%.%.; ; %.%.%.%.%.%.",
"%.%.%.%.%.%.%.%.%.%.%.%.%.%.%.%.O O + % h - w d ; ; ; ; ; ; V 8 ; ; ; ; n ) %.%.%.%.%.%.X %.%.%.%.%.%.%.; ; %.%.%.%.%.%.",
"%.%.%.%.%.%.%.%.%.%.%.%.%.%.%.%.O O + % g * 9 s ; ; ; ; ; ; & - ; ; ; ; n ) %.%.%.%.%.%.%.%.%.%.%.%.%.%.; ; %.%.%.%.%.%.",
"%.%.%.%.%.%.%.%.%.%.%.%.%.%.%.O + $ + + % + w d ; ; ; e d ; ; ; ; ; ; ; n ) %.%.%.%.%.%.%.%.%.%.%.%.%.%.; %.%.%.%.%.%.%.",
"%.%.%.%.%.%.%.%.%.%.%.%.%.%.%.O + O + + O O 9 s ; ; ; e g ; e w ; ; ; ; n ) %.%.%.%.%.%.%.%.%.%.%.%.%.%.- %.%.%.%.%.%.%.",
"%.%.%.%.%.%.%.%.%.%.%.%.%.%.O O + + O + O % ; w ; ; ; w w ; e w ; ; e ; k U %.%.%.%.%.%.%.%.%.%.%.%.%.%.; %.%.%.%.%.%.%.",
"%.%.%.%.%.%.%.%.%.%.%.%.O + + $ O + + O + - ; ; ; ; ; ; ; ; ; ; ; ; h w ; f ) %.%.%.%.%.%.%.%.%.%.%.%.%.; %.%.%.%.%.%.%.",
"%.%.%.%.%.%.%.%.%.%.O O O O + + + + + + & ; ; ; & ; ; & & ; ; & ; ; h w ; s ) %.%.%.%.%.%.%.%.%.%.%.%.%.; %.%.%.%.%.%.%.",
"%.%.%.%.%.%.X + + + + + + + + + + + + + % % % + % % % % % % % & ; ; w ; ; w v z %.%.%.%.%.%.%.%.%.%.%.%.- %.%.%.%.%.%.%.",
"%.%.%.X O O + $ O + + + + + + + + + + + + + + + + + + + + + O % & % % % & % 8 h %.%.%.%.%.%.%.%.%.%.%.%.; %.%.%.%.%.%.%.",
"%.%.%.+ + + + + $ + + + + + + + + + + + + + + + + + + + O + + + + + + + + + + d %.%.%.%.%.%.%.%.%.%.%.%.%.%.%.%.%.%.%.%."
};
