/* XPM */
static char *result[] = {
/* columns rows colors chars-per-pixel */
"60 60 116 2 ",
"   c #020102",
".  c #090807",
"X  c #070508",
"o  c #09060B",
"O  c #0C090E",
"+  c #100F0C",
"@  c #11100C",
"#  c #0E0A10",
"$  c #110C14",
"%  c #140F18",
"&  c #151416",
"*  c #191613",
"=  c #16111B",
"-  c #18121D",
";  c #1A1919",
":  c #1D1623",
">  c #201727",
",  c #211A26",
"<  c #251B2C",
"1  c #281E2E",
"2  c #291E31",
"3  c #232123",
"4  c #292223",
"5  c #2B2824",
"6  c #2B252B",
"7  c #363028",
"8  c #3D372C",
"9  c #3E382E",
"0  c #2D2135",
"q  c #2F2339",
"w  c #342935",
"e  c #33253E",
"r  c #473E38",
"t  c #4B413D",
"y  c #352740",
"u  c #362841",
"i  c #423346",
"p  c #4E404A",
"a  c #594F41",
"s  c #5A5043",
"d  c #5E5448",
"f  c #61574A",
"g  c #675D4C",
"h  c #6B5F4E",
"j  c #6D6455",
"k  c #6D645C",
"l  c #726656",
"z  c #74645C",
"x  c #766B5B",
"c  c #7C6E5F",
"v  c #5C5363",
"b  c #7C6C61",
"n  c #7B7362",
"m  c #837663",
"M  c #8B7C66",
"N  c #8E7E6A",
"B  c #94836D",
"V  c #938570",
"C  c #9A8972",
"Z  c #9C8A7E",
"A  c #9F9079",
"S  c #A18E79",
"D  c #A5937B",
"F  c #A9957D",
"G  c #AE9A7F",
"H  c #82768D",
"J  c #8B7E96",
"K  c #89759D",
"L  c #8D8197",
"P  c #AF9C80",
"I  c #B29E82",
"U  c #AB999D",
"Y  c #B5A185",
"T  c #B9A487",
"R  c #B7AB8E",
"E  c #BDA88A",
"W  c #B7A493",
"Q  c #BEA893",
"!  c #BBA79B",
"~  c #C3AF90",
"^  c #C4B395",
"/  c #CEBA9F",
"(  c #D3BC9B",
")  c #DEC5A2",
"_  c #E5CEAA",
"`  c #E9CFAB",
"'  c #E3D3AD",
"]  c #EBD1AC",
"[  c #F4DAB3",
"{  c #FBDFB7",
"}  c #FBDFB8",
"|  c #FCE0B7",
" . c #FCE1B9",
".. c #AD97C3",
"X. c #B29DC8",
"o. c #C1AFC6",
"O. c #CAB7C9",
"+. c #C0ACD5",
"@. c #C4AFD8",
"#. c #C7B5DA",
"$. c #C8B7DA",
"%. c #CEBADB",
"&. c #CDBAE1",
"*. c #D2BFE6",
"=. c #D3C0E6",
"-. c #D6C3E9",
";. c #D8C5EB",
":. c #DCCCEC",
">. c #DFD0ED",
",. c #E1D2EE",
"<. c #E4D8EF",
"1. c #E3D6F0",
"2. c #E6DAF0",
"3. c #E9DEF2",
"4. c #EBE2F3",
"5. c None",
/* pixels */
"5.5.5.5.5.5.5.5.5.5.5.5.5.5.5.5.5.5.5.5.5.5.5.5.5.5.5.5.5.5.5.5.5.5.5.5.5.5.5.5.5.5.5.5.5.5.5.5.5.5.5.5.5.5.5.5.5.5.5.5.",
"5.5.5.5.5.5.5.5.5.5.5.5.5.5.5.5.5.5.5.5.5.5.5.-.2.5.5.5.5.5.5.5.5.5.5.5.5.5.5.5.5.5.5.5.5.5.5.5.5.5.5.5.5.5.5.5.5.5.5.5.",
"5.5.5.5.5.5.5.5.5.5.5.5.5.5.5.5.5.5.5.5.5.5.5.-.,.2.5.5.5.5.5.5.5.5.5.5.5.5.5.5.5.5.5.5.5.5.5.5.5.5.5.5.5.5.5.5.5.5.5.5.",
"5.5.5.5.5.5.5.5.5.5.5.5.5.5.5.5.5.5.5.5.5.5.5.5.-.,.2.5.5.5.5.=.5.5.5.5.5.5.5.5.5.5.5.5.5.5.5.5.5.5.5.5.5.5.5.5.5.5.5.5.",
"5.5.5.5.5.5.5.5.5.5.5.5.5.5.5.5.5.5.5.5.5.:.4.5.=.;.:.4.4.5.5.5.=.5.5.-.5.5.5.5.5.5.5.5.5.5.5.5.5.5.5.5.5.5.5.5.5.5.5.5.",
"5.5.5.5.5.5.5.5.5.5.5.5.5.5.5.5.5.5.5.-.-.-.5.5.5.=.>.4.4.4.5.5.:.4.5.5.;.;.5.5.5.5.5.5.5.5.5.5.5.5.5.5.5.5.5.5.5.5.5.5.",
"5.5.5.5.5.5.5.5.5.5.5.5.5.5.5.5.4.5.-.-.:.3.4.5.4.3.3.4.4.4.4.3.2.4.4.5.;.:.4.5.5.5.5.5.5.5.5.5.5.5.5.5.5.5.5.5.5.5.5.5.",
"5.5.5.5.5.5.5.5.5.5.5.5.5.5.5.5.5.5.-.-.>.4.4.4.4.4.4.4.4.4.4.4.4.4.4.4.2.<.4.4.5.5.5.5.5.5.5.5.5.5.5.5.5.5.5.5.5.5.5.5.",
"5.5.5.5.5.5.5.5.5.5.5.5.5.5.-.=.5.5.-.-.1.4.4.4.4.4.4.4.4.4.4.4.4.4.4.4.4.4.4.4.5.5.5.5.5.5.5.5.5.5.5.5.5.5.5.5.5.5.5.5.",
"5.5.5.5.5.5.5.5.5.5.5.5.5.5.-.-.-.-.-.-.:.3.4.3.4.4.4.4.4.4.4.4.4.4.4.4.4.4.4.4.5.*.-.5.5.5.5.5.5.5.5.5.5.5.5.5.5.5.5.5.",
"5.5.5.5.5.5.5.5.5.5.5.5.5.5.5.5.-.-.-.-.;.:.4.4.4.4.4.4.4.4.4.4.4.4.4.4.4.4.4.4.:.5.5.5.5.5.5.5.5.5.5.5.5.5.5.5.5.5.5.5.",
"5.5.5.5.5.5.5.5.5.5.5.5.5.5.5.@...-.-.-.-.:.4.3.4.4.4.4.4.4.4.4.4.4.4.4.4.4.4.4.:.5.5.5.-.5.5.5.5.5.5.5.5.5.5.5.5.5.5.5.",
"5.5.5.5.5.5.5.5.5.5.5.5.5.5.-.&.+.-.-.-.*.;.1.3.4.4.4.4.4.4.4.4.4.4.4.4.4.4.4.4.<.2.,.=.5.5.5.5.5.5.5.5.5.5.5.5.5.5.5.5.",
"5.5.5.5.5.5.5.5.5.5.5.5.5.5.5.-.-.-.-.-.;.;.;.1.4.4.4.4.4.4.4.4.4.4.4.4.4.4.4.4.4.2.,.5.5.5.5.5.5.5.5.5.5.5.5.5.5.5.5.5.",
"5.5.5.5.5.5.5.5.5.5.5.5.5.5.5.5.-.-.-.-.-.*.;.*.1.3.3.4.4.4.4.4.4.4.4.4.4.4.4.4.4.,.:.5.5.5.5.5.5.5.5.5.5.5.5.5.5.5.5.5.",
"5.5.5.5.5.5.5.5.5.5.5.5.5.5.5.5.5.-.-.-.;.-.;.-.;.;.1.4.4.4.4.4.4.4.4.4.4.4.4.4.4.4.3.3.5.5.5.5.5.5.5.5.5.5.5.5.5.5.5.5.",
"5.5.5.5.5.5.5.5.5.5.5.5.5.5.5.5.-.-.-.-.;.;.;.;.;.=.-.;.:.;.<.4.4.4.4.4.4.4.4.4.4.,.;.:.4.5.5.5.5.5.5.5.5.5.5.5.5.5.5.5.",
"5.5.5.5.5.5.5.5.5.5.5.5.5.5.5.,.&.X.=.-.;.;.;.;.;.;.;.;.-.;.:.>.,.,.>.,.,.>.>.>.>.:.=.=.>.4.5.5.5.5.5.5.5.5.5.5.5.5.5.5.",
"5.5.5.5.5.5.5.5.5.5.5.5.5.5.<.<.#.K H H H H H H J J L J L L J L L L L L L L L L L L L 5.;.4.5.5.5.5.5.5.5.5.5.5.5.5.5.5.",
"5.5.5.5.5.5.5.5.5.5.5.5.5.;.5.5.5.5.            & ; ; ; ; ; ; ; ; ; ; ; ; ; ; ; ; ; ; 5.5.5.5.5.5.5.5.5.5.5.5.5.5.5.5.5.",
"5.5.5.5.5.5.5.5.5.5.5.5.5.5.5.5.5.5.= = & & @   & ; ; & ; ; ; ; ; ; ; ; ; ; ; ; ; 3 5 5.5.5.5.5.5.5.5.5.5.5.5.5.5.5.5.5.",
"5.5.5.5.5.5.5.5.5.5.5.5.5.5.5.5.5.5.#.#.$.o.C . & & & ; ; ; ; ; ; ; ; ; ; ; ; ; & H %.5.5.5.5.5.5.5.5.5.5.5.5.5.5.5.5.5.",
"5.5.5.5.5.5.5.5.5.5.5.5.5.5.5.5.5.5.;.;.O.W G M N B f & ; ; ; ; & & ; ; ; ; ; & A k : 5.5.5.5.5.5.5.5.5.5.5.5.5.5.5.5.5.",
"5.5.5.5.5.5.5.5.5.5.5.5.5.5.5.5.5.5.v U ! Y Y I ( ) I f & ; & ; 5 j ; & & ; ; V ` g   5.5.5.5.5.5.5.5.5.5.5.5.5.5.5.5.5.",
"5.5.5.5.5.5.5.5.5.5.5.5.5.5.5.5.5.5.. M I I I I ] | ] E l j j j m ^ x j j j x [  .g   5.5.5.5.5.5.5.5.5.5.5.5.5.5.5.5.5.",
"5.5.5.5.5.5.5.5.5.5.5.5.5.5.5.5.5.5.. M I I I I ` | | |  . . . . . . . . . . .{  .g   5.5.5.5.5.5.5.5.5.5.5.5.5.5.5.5.5.",
"5.5.5.5.5.5.5.5.5.5.5.5.5.5.5.5.5.5.X M I I I I ` | | |  . . . .{ } } }  . . . . .g X 5.5.5.5.5.5.5.5.5.5.5.5.5.5.5.5.5.",
"5.5.5.5.5.5.5.5.5.5.5.5.5.5.5.5.5.5.X M I I I I ] | | |  . . . . .{  .|  . . . . .g   5.5.5.5.5.5.5.5.5.5.5.5.5.5.5.5.5.",
"5.5.5.5.5.5.5.5.5.5.5.5.5.5.5.5.5.5.. M I I I I ]  .}  . . . .| { | | | {  .{ { | g   5.5.5.5.5.5.5.5.5.5.5.5.5.5.5.5.5.",
"5.5.5.5.5.5.5.5.5.5.5.5.5.5.5.5.5.5.. a l c b G ( ] }  . .| { { { { { { { { { { Q r   5.5.5.5.5.5.5.5.5.5.5.5.5.5.5.5.5.",
"5.5.5.5.5.5.5.5.5.5.5.5.5.5.5.5.5.5.5.X $ : < N B ^ ] ] ] ] ] ] ] ] ] ] ] ] ` / p $ 5.5.5.5.5.5.5.5.5.5.5.5.5.5.5.5.5.5.",
"5.5.5.5.5.5.5.5.5.5.5.5.5.5.5.5.5.5.5.5.5.o + 1 1 z F F D D D D D S D F D D D i # 5.5.5.5.5.5.5.5.5.5.5.5.5.5.5.5.5.5.5.",
"5.5.5.5.5.5.5.5.5.5.5.5.5.5.5.5.5.5.5.  % e q < < 0 w w w w w 6 * * * 6 e 0 w e + 5.5.5.5.5.5.5.5.5.5.5.5.5.5.5.5.5.5.5.",
"5.5.5.5.5.5.5.5.5.5.5.5.5.5.5.5.5.5.  , 2 q 2 < < < 1 1 < 1 1 %       < y q e e 2 % 5.5.5.5.5.5.5.5.5.5.5.5.5.5.5.5.5.5.",
"5.5.5.5.5.5.5.5.5.5.5.5.5.5.5.5.5.5.% 2 e 2 - < < 1 < < < 2 2 > $   % 2 y y y : e < # 5.5.5.5.5.5.5.5.5.5.5.5.5.5.5.5.5.",
"5.5.5.5.5.5.5.5.5.5.5.5.5.5.5.5.5.$ e e 2 :   < < < < < 2 e u e 2 o e u y y q O > q < # 5.5.5.5.5.5.5.5.5.5.5.5.5.5.5.5.",
"5.5.5.5.5.5.5.5.5.5.5.5.5.5.5.5.O e e 1 < :   , < < < 2 e u e y 2 O y y y y y y # : q 0   5.5.5.5.5.5.5.5.5.5.5.5.5.5.5.",
"5.5.5.5.5.5.5.5.5.5.5.5.5.5.5.5.o e < < < >   < < < 2 e u e e u 1 X 2 y y y y y # : q 0   5.5.5.5.5.5.5.5.5.5.5.5.5.5.5.",
"5.5.5.5.5.5.5.5.5.5.5.5.5.5.5.5.O e < < - O : , < 2 e u e e u e 2 o q y y y y q # n / D + 5.5.5.5.5.5.5.5.5.5.5.5.5.5.5.",
"5.5.5.5.5.5.5.5.5.5.5.5.5.5.5.5., Z b c r o < < < 0 u e u u u e 2 o q y y y y y : t D Q & 5.5.5.5.5.5.5.5.5.5.5.5.5.5.5.",
"5.5.5.5.5.5.5.5.5.5.5.5.5.5.5.5.r _ Y T h . < < 2 q e y u e u e 2 o e e u e e u u = 9 n + 5.5.5.5.5.5.5.5.5.5.5.5.5.5.5.",
"5.5.5.5.5.5.5.5.5.5.5.5.5.5.5.5.7 R B B s O < < e y y y u u u e 2 X q e u u u e y =     5.5.5.5.5.5.5.5.5.5.5.5.5.5.5.5.",
"5.5.5.5.5.5.5.5.5.5.5.5.5.5.5.5.5.@ . O & < < < q e e y e e e u 2 X e e e e u e y %   5.5.5.5.5.5.5.5.5.5.5.5.5.5.5.5.5.",
"5.5.5.5.5.5.5.5.5.5.5.5.5.5.5.5.5.5.  % > < < < e y y e y e e u 1 O q e u e e e y %   5.5.5.5.5.5.5.5.5.5.5.5.5.5.5.5.5.",
"5.5.5.5.5.5.5.5.5.5.5.5.5.5.5.5.5.5.  O # # # # $ % % % % % % % % % % % % % % % % X   5.5.5.5.5.5.5.5.5.5.5.5.5.5.5.5.5.",
"5.5.5.5.5.5.5.5.5.5.5.5.5.5.5.5.5.5.  O # # # # # # # O # # # O % 1 % # # O # #       5.5.5.5.5.5.5.5.5.5.5.5.5.5.5.5.5.",
"5.5.5.5.5.5.5.5.5.5.5.5.5.5.5.5.5.5.  - > < < < < 2 2 2 2 1 2 2 2 2 2 1 2 2 1 : X   5.5.5.5.5.5.5.5.5.5.5.5.5.5.5.5.5.5.",
"5.5.5.5.5.5.5.5.5.5.5.5.5.5.5.5.5.5.5.  $ > < < < 2 e e e e e e u y y y e e 0     5.5.5.5.5.5.5.5.5.5.5.5.5.5.5.5.5.5.5.",
"5.5.5.5.5.5.5.5.5.5.5.5.5.5.5.5.5.5.5.5.5.O < < < < 0 u u y y e y u u y u 2 X   5.5.5.5.5.5.5.5.5.5.5.5.5.5.5.5.5.5.5.5.",
"5.5.5.5.5.5.5.5.5.5.5.5.5.5.5.5.5.5.5.5.5.5.O < 1 1 < 2 e y e e y y u u : O   5.5.5.5.5.5.5.5.5.5.5.5.5.5.5.5.5.5.5.5.5.",
"5.5.5.5.5.5.5.5.5.5.5.5.5.5.5.5.5.5.5.5.5.5.5.$ # # - 1 2 e e u 2 - % % o   5.5.5.5.5.5.5.5.5.5.5.5.5.5.5.5.5.5.5.5.5.5.",
"5.5.5.5.5.5.5.5.5.5.5.5.5.5.5.5.5.5.5.5.5.5.5.      # : < e e q < X         5.5.5.5.5.5.5.5.5.5.5.5.5.5.5.5.5.5.5.5.5.5.",
"5.5.5.5.5.5.5.5.5.5.5.5.5.5.5.5.5.5.5.5.5.5.5.5.5.5.5.o < q e :   5.5.5.5.5.5.5.5.5.5.5.5.5.5.5.5.5.5.5.5.5.5.5.5.5.5.5.",
"5.5.5.5.5.5.5.5.5.5.5.5.5.5.5.5.5.5.5.5.5.5.5.5.5.5.5.o < e =   5.5.5.5.5.5.5.5.5.5.5.5.5.5.5.5.5.5.5.5.5.5.5.5.5.5.5.5.",
"5.5.5.5.5.5.5.5.5.5.5.5.5.5.5.5.5.5.5.5.5.5.5.5.5.5.5.X < e %   5.5.5.5.5.5.5.5.5.5.5.5.5.5.5.5.5.5.5.5.5.5.5.5.5.5.5.5.",
"5.5.5.5.5.5.5.5.5.5.5.5.5.5.5.5.5.5.5.5.5.5.5.5.5.5.5.o < % o 5.5.5.5.5.5.5.5.5.5.5.5.5.5.5.5.5.5.5.5.5.5.5.5.5.5.5.5.5.",
"5.5.5.5.5.5.5.5.5.5.5.5.5.5.5.5.5.5.5.5.5.5.5.5.5.5.5.o , o 5.5.5.5.5.5.5.5.5.5.5.5.5.5.5.5.5.5.5.5.5.5.5.5.5.5.5.5.5.5.",
"5.5.5.5.5.5.5.5.5.5.5.5.5.5.5.5.5.5.5.5.5.5.5.5.5.5.5.X : o 5.5.5.5.5.5.5.5.5.5.5.5.5.5.5.5.5.5.5.5.5.5.5.5.5.5.5.5.5.5.",
"5.5.5.5.5.5.5.5.5.5.5.5.5.5.5.5.5.5.5.5.5.5.5.5.5.5.5.5.  5.5.5.5.5.5.5.5.5.5.5.5.5.5.5.5.5.5.5.5.5.5.5.5.5.5.5.5.5.5.5.",
"5.5.5.5.5.5.5.5.5.5.5.5.5.5.5.5.5.5.5.5.5.5.5.5.5.5.5.5.5.5.5.5.5.5.5.5.5.5.5.5.5.5.5.5.5.5.5.5.5.5.5.5.5.5.5.5.5.5.5.5."
};
