/* XPM */
static char *result[] = {
/* columns rows colors chars-per-pixel */
"60 60 130 2 ",
"   c #0D2C3C",
".  c #152F3E",
"X  c #2F3437",
"o  c #21313B",
"O  c #2C3338",
"+  c #2E393E",
"@  c #333334",
"#  c #3C3B36",
"$  c #30373F",
"%  c #343A3D",
"&  c #3A3A3B",
"*  c #0C2E42",
"=  c #0C3244",
"-  c #0E354B",
";  c #0D384E",
":  c #143546",
">  c #1B3646",
",  c #1F3945",
"<  c #133549",
"1  c #1A3648",
"2  c #10384F",
"3  c #1E3B4C",
"4  c #0E3750",
"5  c #0C3953",
"6  c #073F5B",
"7  c #0B3E5A",
"8  c #103750",
"9  c #113951",
"0  c #123F5A",
"q  c #243742",
"w  c #283743",
"e  c #233843",
"r  c #2D3B43",
"t  c #243B4A",
"y  c #2C3F49",
"u  c #313740",
"i  c #313B42",
"p  c #303D48",
"a  c #06425E",
"s  c #0C415D",
"d  c #11415C",
"f  c #1A435E",
"g  c #2D4047",
"h  c #24414E",
"j  c #29404B",
"k  c #034264",
"l  c #0B4362",
"z  c #0F4967",
"x  c #0F4768",
"c  c #024A6E",
"v  c #0D4A6B",
"b  c #134765",
"n  c #134867",
"m  c #144D6F",
"M  c #024B72",
"N  c #034F79",
"B  c #164E71",
"V  c #035076",
"C  c #04537C",
"Z  c #0F5478",
"A  c #135073",
"S  c #17587E",
"D  c #19587E",
"F  c #214E69",
"G  c #055682",
"H  c #085781",
"J  c #065A84",
"K  c #095A85",
"L  c #075D8A",
"P  c #095E8B",
"I  c #115981",
"U  c #185880",
"Y  c #07618B",
"T  c #09618D",
"R  c #076190",
"E  c #0B6494",
"W  c #0C6996",
"Q  c #0D6699",
"!  c #0D6B9B",
"~  c #126693",
"^  c #106B96",
"/  c #13679A",
"(  c #116B9D",
")  c #0F709D",
"_  c #0E6EA2",
"`  c #136CA1",
"'  c #0F72A4",
"]  c #0F76AB",
"[  c #0F79AD",
"{  c #1173A5",
"}  c #1871A4",
"|  c #1178A6",
" . c #1176AC",
".. c #1977AD",
"X. c #1179AE",
"o. c #0F7AB1",
"O. c #1277B0",
"+. c #137BB2",
"@. c #1A7DB6",
"#. c #167FB9",
"$. c #1A7FB9",
"%. c #1681BB",
"&. c #1982BD",
"*. c #2081BB",
"=. c #2882BE",
"-. c #1786C1",
";. c #1B86C3",
":. c #1D89C6",
">. c #1E8AC9",
",. c #2784C3",
"<. c #2985C3",
"1. c #218DCD",
"2. c #2B8BCB",
"3. c #238ED2",
"4. c #2A8FD5",
"5. c #2592D5",
"6. c #2C91D5",
"7. c #2694D9",
"8. c #2996DB",
"9. c #2A99DE",
"0. c #2C97E1",
"q. c #2D9BE4",
"w. c #2E9EE9",
"e. c #309CE5",
"r. c #309FEB",
"t. c #2EA0E6",
"y. c #2FA2ED",
"u. c #31A2EE",
"i. c #2EA1F1",
"p. c #31A3F1",
/* pixels */
"  * * * @ @ @ @ @ o = * * * * * * * * * = * * * * * * * * * * * * * * * * . @ @ @ @ @ o * * * * * * * * * * * * = * * * ",
"  - < 1 & & & & & w 2 : - < < - - - - - - < < - - - < < < - < - - < - - - , & & & & & w < 2 - < - - - < - < - - - < < - ",
"X % % % & & & & & & u % % % % % % & % % % % % % % i % i i % % i i & i u % % & & & & & & & & & i % % & % i % % % i % % % ",
"@ i % % % & i & % % % % % % % & & & & & & i % % % % % % % % % % % % & % i % % % % u u & i & & & & & & $ % % % % % % % % ",
"* - 4 - 2 2 < - - - - ; - ; < r & & % & % < - - - - - - 2 - - 4 - - 4 - - 4 4 - 2 < < - < q # & & & % < 2 < - - ; - < - ",
"- 5 4 5 4 4 5 5 5 4 5 7 d d l r % & # % + 4 5 5 4 5 5 5 4 4 5 4 5 5 4 5 5 4 5 5 4 7 l d d h g i & % % 4 4 4 5 5 4 5 5 4 ",
"k M M M M M M M M M M E  .X.+.l : % i < 5 M M M M M M M M M M M M M M M M M M M M P X. .+.L c g % < - c M M M M M M M M ",
"N J J J J J J J J C c E  .X.O.s - % % < ; M M M M M M M M c G J J J J J K G J C M L O.O.[ J M g & < - M M M M M M M M M ",
"! O.O.X.[ o.X.O.X.E M E X.X.X.l - % % - ; M M M M M M M M M ! O.X.X.X.X.X.X.X.! M T X.X.X.K M g % < - c M V M M M M M M ",
"K Q ] ] W ! X.] X.! P !  .&.>.n - % % < 5 M M M M V C L Y L ' X.! Q  . .! Q  ._ L / X.X.X.L c g & : - c M M M M C T L T ",
"k M ' { c C X.[  .X.[ X.X.8.p.B - # % < 5 M M M M c T X.O.X.X.X.C M ' { M C ] X.X.[ X.X.X.Y c p % < - c M M M c L O.O.o.",
"K Q ]  .W !  .X.+.X.O.X.X.8.p.B - % % - 5 c V M G W ' X.! L ' X.W ! X.X.Q ! X.#.6.;.X.-.5.~ c y & < - c M M C W R T ! [ ",
"( O.X.X.+.X.X.X.X.X.X.X.[ 7.u.A = % % < 4 c M M P X.o.] T c ! o.X.O.O.X.X.X.X.-.i.5.[ 3.p.} M p & : ; c c M G o./ M T O.",
"( X.O.X.X.X.X.X.X.&.9.&.O.7.u.B = % # < 4 M C ! ' X.O.X.{ ! ' X.[ X.X.X.X.X.X.+.;.%.X.1.p.( V p % < ; c M M G X.{ ! ' o.",
"W X.X.X.X.X.X.X.X.>.p.>.o.7.p.m = % % = 5 M H X.X.X.[ X.X.X.[ X.X.[ [ X.[ [ X.X.[ X.[ 3.p.` M y & : - c M M J [ +.X.X.X.",
"^ X.X.X.X. .X.X.O.1.y.>.X.7.i.A < % % < 5 M C X.! C Q X.X.[ [ X.X.X.X.+.9.q.q.1.X.X. .1.p.( M g & < - c C ! ] X.[ [ O.X.",
"^ X.X.X.X.[ +.X. .1.u.>.o.7.p.B - % & < 5 M G X.W c T [ O.X.X.X. .X.+.%.w.t.r.5.X.X. .1.p.} M g & < - c C { X.{  .X.O.X.",
"( X.X.X.X.%.q.3.X.X.%.+.%.7.u.B = % & - 4 M C +.W M R X.X.X.X.X. .#.9.9.%.%.%.:.w.1.X.1.p.( M p & < - c M C C C T [ O.X.",
"^ X.X.X.%.&.u.8.%.X.X.+.%.5.u.B = % & - 5 M G X.! V Q X.X.X.X.[  .+.9.8.+.X.[ -.t.1.X.1.p.` M y % < - M M M M C R X.X.X.",
"( X. .%.t.t.u.u.u.1.[ 5.t.t.u.B - % & - 5 c G [ X. .] [ X.X.+.[ X.X.O.O.]  .X.X.X.X.X.1.p.` M g & < - M M M G  .X.O.X.X.",
"( [ %.-.9.9.u.t.9.>.| 3.u.p.p.B = % # - 5 M C { { X.X.X.X.X.[ X.%.%.X.X.%.#.X.X.&.%.X.1.p.) M g & < - c M H L [ X.X.X.X.",
"^ %.w.9.%.%.u.5.%.[  .5.u.p.y.A < % % < 5 M M M T X.X.X.X.X.[ +.9.w.+.#.e.9.O.;.u.>.X.1.p.` M g & 2 - c C { O.o.X.X.X.X.",
"..-.7.5.X.%.7.1.X.%.&.7.p.u.u.A < % # ; 5 c V J E ] X.X.X.X.%.;.5.7.;.:.7.5.;.1.9.1.-.7.p.( M g & < - M N ! _ X.X.[ X.X.",
"6.t.%. .[ X.X.X.X.>.p.y.u.u.u.B ; % % = ; c J X.X.X. .X.O.[ 7.y.%.+.w.t.+.%.y.7.X.>.u.u.p.} c g & < < c M M J X.X.X.X.O.",
"*.3.X.+.>.-.X.@.:.7.p.u.u.u.i.B = % % < 5 L T E ) X.&.>.%.X.>.3.#.+.3.3.+.@.3.1.,.7.u.u.p.( M g % < ; K L T Q [ #.:.&.X.",
"W [ ] #.u.q.X.;.p.u.u.u.y.u.y.B - % # - 7 X.! c T X.1.u.:.X.]  .O.{  . . .'  .;.i.u.u.u.p.( V p & < 4 { X.O. .] >.p.3.] ",
"&.5.5.6.u.w.5.7.p.u.i.i.u.i.u.B - % % - s  .{ Q ! X.&.>.%. .:.5.4.3.3.4.5.5.5.8.u.y.u.r.p.( c g & < 9 { X.X.X.X.$.>.>.5.",
"2.u.u.u.u.u.y.u.r.i.r.w.u.y.u.A - % % : d { X.X.X.X.X.X. .] 7.u.i.i.i.i.u.u.u.u.u.u.p.r.u.} V j i < 9 { X.X.X.X.] O.1.i.",
"m U U U D S S S U U U U U U D j + & & r y H J K J J H P G C ~ / ` / / / / ` / / / ( / / ( F j & & + w n m v v v z z A U ",
"* - - = - - - - = < - - - - - + & # # # g c M M M M M M V V M M M M M M M M M M M M M M M h & & & & % : - - = - - - - - ",
"O + + + + $ + + $ + + + + $ u & & # & & & p i p y p i p y y g p p u p u p p y p p p y i p % & & & & & % u % + + + + + % ",
"@ & % & & % & & % & & & & & & % & & & % & & & & & # & & & & & & & & & & % % & & & % & & & & & & & & & & & # & & # & & % ",
"* < < < < < < < < 1 < < < < < < < < 1 < < < , % & & & & e < < < < < 1 < < < < < < < < < < < < : 1 < : & & & & # + < 1 < ",
"* 4 9 4 4 4 9 4 4 4 4 4 9 - 9 9 4 ; ; 4 4 0 3 % & & & % , 4 ; - 4 5 4 4 ; 4 9 4 9 8 4 - 4 9 - 0 9 7 s % % & & % e ; 5 ; ",
"k M M M M M M M M M M c M M M M M c c c C { ~ 2 e & q < l M c M M c M M M c c M M M M M M M M ( {  .{ 9 : % r - s M M M ",
"k M c M C V M V C V M M M V C M M C C C K X.~ - t & q - k M M c M M C C C C M M M M C C C C C { X.$.+.5 1 & % - 7 M M c ",
"k M M C X.! M J  .E M M M ! [ G M ' ] X.X.O.W - , & q - k M M V M N ] ] [ _ M M c T ]  .X. . .X.X.q.9.0 : & + - 6 c M M ",
"k M H L ! W J T / R H J J ) X.( Q  .X.;.&.;.} - , & q - l M M M H P ! ! ! Q J J J W X.%.-.#.X.X.X.w.9.f 1 & + < a c M M ",
"k N ] ' M H ] / M P o.X.X.X.X.7.t.%.#.r.u.u.<.- e & q - a M M M ! ] M M c C [ [ X.X.[ 1.p.:. .X.+.w.9.d 1 % + = 7 c M M ",
"C T  .' T T Q T J ! O.$.>.#.X.1.5.+.+.5.7.p.,.; , & q - a M H T { X.P P L E  .[ X.#.:.1.5.&.X.-.:.e.e.s 1 & + - 6 c M M ",
"( [ X.X.O.` M H +.o.] 5.u.;. .O. .X.X. .+.y.<.- e & e - k M ! #.O.X.[ X.+.X.X.X.X.>.p.1. .X. .q.t.u.q.0 1 & + - 7 M M M ",
"! X.X. .X.' E ! X.O. .5.u.-.X.X.X.1.3.3.7.u.<.; e & e - a M J T ] O.X.+.1.>.O.X.X.#.:.&. .:.3.q.u.u.q.0 : & % - 7 M G W ",
"W X. .X.X.o...X.X.[  .5.u.;.X.+.#.q.u.p.u.u.<.- > & e - a M M V ' X.O.#.t.9.+.X.X.X. .X.] 7.p.u.u.u.9.0 : & + - 7 c T +.",
"( X.[ #.7.1.O.%.7.;.X.%.:.3.5.8.7.w.u.u.u.u.<.- t # q < k M T !  .X.X.+.-.>.5.7.7.7.5.5.5.w.u.1.,.t.0.d 1 % + - s M T O.",
"( X.X.%.r.0.X.;.y.3.] X.] 5.u.p.u.u.u.u.u.u.<.; q & w - k M ! O.X. . .X.' &.u.y.t.u.u.u.u.y.r.&.X.q.0.d : & r = 6 M T X.",
"^ X. .#.w.r.0.q.y.w.0.9.9.w.u.u.u.u.u.u.y.u.<.- , & q - Z ' ] O.5.q.9.9.8.q.y.u.u.y.u.u.u.u.u.q.8.u.e.d : % $ - z ! { [ ",
"W { { +.e.e.q.e.q.q.e.e.w.e.e.e.e.e.e.e.w.w.=.< t # q - I [ { ..6.w.q.q.e.e.w.e.e.e.e.e.e.9.q.w.t.t.6.d > & u < m {  . .",
"4 d d d n n n b b n b b b n n b n b n n b b f % % # i % 3 0 s s b b n b b n b n n n n n n b b b b n b i % & & % t d s 7 ",
": : : : < : : < : : : : : : : : : : : : : < , & & & & & e : : : < < : : : < < < : : : : : : < < : < : & & & & & + - : < ",
"@ % & % % & # % & % & % % % % % % & % % % & & & # & & & % # % % & & % & % & & & & & % % & % # % & % & % & & & & & % % & ",
"X % % % & & & & & # r u % $ % % @ % r % u i $ % u u % % % u % % u $ u % % % & & & & % # % % + $ @ u i % % r i i % % u % ",
"= - - : & & & & & w - - - - - - - - - - < = - < - - - - - : - - - - < - - 1 & & # # & q - - - - - - - < - - : < < - - - ",
"; 5 b b w $ & % r 3 6 5 6 6 7 5 6 5 7 9 7 x l 7 5 7 s x s 6 5 7 5 7 n z z f w % & % w 3 6 7 6 7 5 7 ; 7 s z l 5 7 7 d n ",
"k N { ( < 1 & + < 6 M M c M M M c M M M C  .! M M M E  .L M c c M C { O. .W ; > & q : a c M c M M M M M V  .( M M M L X.",
"C T &.@.2 : & + - a M M M H L ( ` L L K E X.' L L K ! X.{ ( E T L T | X.>...2 > & + - a c M M K Y J L L T X.' T L L ! X.",
"/ #.r.6.8 : & w - a M M c ! X.q.u.%.X.X.X.[ X.+.+.X.X.X.7.p.;.X.X.X.[ +.y.2.9 > # q - a M M M _ +.[ X.O.O.X.X.X.X.X.O.X.",
"&.5.u.7.9 : & + - 6 M K E {  .;.>.+.+.1.>.+.X.[ &.5.&.+.&.>.%.X.>.3.3.5.u.2.; , & q - a M L Q { [ X.X.5.1. .%.5.:.[ +.[ ",
"2.u.u.6.9 : & r - 6 M Q X.] O.O.X.X.+.u.q.O.O.X.>.u.1.[ +.+.] X.q.y.y.u.u.2.9 1 & + - 6 M ! X.X.X.+.+.e.w.X.&.u.5.X.X.X.",
"4.r.p.6.9 1 & + - v Q ' O.1.7.7.7.7.8.t.y.7.7.7.q.p.q.7.7.7.%.O.q.y.u.u.u.2.- , & w - A ! { X.3.7.7.7.u.y.7.9.u.w.8.7.7.",
"4.u.p.6.8 < & r - Z +.o.X.7.u.p.u.i.p.i.u.u.u.y.y.y.t.y.t.y.;.o.9.p.u.p.p.2.8 1 # q - H O.O.O.9.y.i.p.y.y.y.u.y.y.i.u.u."
};
