/* XPM */
static char *result[] = {
/* columns rows colors chars-per-pixel */
"60 60 26 1 ",
"  c #240A01",
". c #2A0C02",
"X c #2E0D02",
"o c #300F03",
"O c #381103",
"+ c #3C1304",
"@ c #3D1405",
"# c #401404",
"$ c #471705",
"% c #4D1906",
"& c #541C07",
"* c #5C1E07",
"= c #6B2409",
"- c #6F250B",
"; c #77280B",
": c #792F13",
"> c #832D0E",
", c #8F3111",
"< c #8D3617",
"1 c #9C3614",
"2 c #993B1A",
"3 c #A63F1C",
"4 c #974020",
"5 c #B04925",
"6 c #BA532E",
"7 c #C45D37",
/* pixels */
"%%*======================%%O  %%*======================%%O  ",
"%%*======================%%O  %%*======================%%O  ",
"**:44444444444444<>>>>>>>**#  **:44444444444444<>>>>>>>**#  ",
"==47777777777777751111111==$  ==47777777777777751111111==$  ",
"==47777777777777751111111==$  ==47777777777777751111111==$  ",
"==47777777775111157711>====$  ==47777777775111157711>====$  ",
"==47777777775111157711>====$  ==47777777775111157711>====$  ",
"==477776557751111355>>>>>==$  ==477776555555511355>>>>>==$  ",
"==477775117751111111==>11==$  ==477775111157711111==>11==$  ",
"==477775117751111111==>11==$  ==477775111157711111==>11==$  ",
"==47711111115771111111>====$  ==47711577111111111111>====$  ",
"==47711111115771111111>====$  ==47711577111111111111>====$  ",
"==477553115555511,>>11>====$  ==477555555531111,>>11>====$  ",
"==477775117751111>==11>====$  ==477775117751111>==11>====$  ",
"==477775117751111>==11>====$  ==477775117751111>==11>====$  ",
"==4771111111111==>11=======$  ==4771111111111==>11=======$  ",
"==4771111111111==>11=======$  ==4771111111111==>11=======$  ",
"==<5511111>>,11>>,11=======$  ==<5511111>>,11>>,11=======$  ",
"==>1111111==>1111111=======$  ==>1111111==>1111111=======$  ",
"==>1111111==>1111111=======$  ==>1111111==>1111111=======$  ",
"==>117751111>==11>=========$  ==>117751111>==11>=========$  ",
"==>117751111>==11>=========$  ==>117751111>==11>=========$  ",
"==>1155311>>;==>>;=========$  ==>1155311>>;==>>;=========$  ",
"==>1111111=================$  ==>1111111=================$  ",
"==>1111111=================$  ==>1111111=================$  ",
"%%*======================@@o  %%*======================@@o  ",
"%%*======================@@o  %%*======================@@o  ",
"OO#$$$$$$$$$$$$$$$$$$$$$$oo.  OO#$$$$$$$$$$$$$$$$$$$$$$oo.  ",
"                                                            ",
"                                                            ",
"==*%%  O%%======================*%%  O%%====================",
"==*%%  O%%======================*%%  O%%====================",
">>-**  #**444444444444444>>>>>>>-**  #**444444444444444>>>>>",
"11>==  $==7777777777777771111111>==  $==77777777777777711111",
"11>==  $==7777777777777771111111>==  $==77777777777777711111",
"=====  $==77777777771111177511=====  $==77777777771111177511",
"=====  $==77777777771111177511=====  $==77777777771111177511",
">>;==  $==777775555511355552>>>>;==  $==777777765555311552>>",
"11>==  $==77777111111157711>==11>==  $==77777775117751111>==",
"11>==  $==77777111111157711>==11>==  $==77777775117751111>==",
"=====  $==77777115771111111111=====  $==77777115771111111111",
"=====  $==77777115771111111111=====  $==77777115771111111111",
"=====  $==776555555511111>>,11=====  $==777771135511111>>,11",
"=====  $==775117751111111==>11=====  $==777771111111111==>11",
"=====  $==775117751111111==>11=====  $==777771111111111==>11",
"=====  $==775111111111>==11>=======  $==775117751111>==11>==",
"=====  $==775111111111>==11>=======  $==775117751111>==11>==",
"=====  $==5531111,>>11,>>11>=======  $==55311552>>11,>>11>==",
"=====  $==1111111>==1111111>=======  $==1111111>==1111111>==",
"=====  $==1111111>==1111111>=======  $==1111111>==1111111>==",
"=====  $==1157711111==>11==========  $==1157711111==>11=====",
"=====  $==1157711111==>11==========  $==1157711111==>11=====",
"=====  $==1135511,>>==;>>==========  $==1135511,>>==;>>=====",
"=====  $==1111111>=================  $==1111111>============",
"=====  $==1111111>=================  $==1111111>============",
"==&@@  O%%======================&@@  O%%====================",
"==&@@  O%%======================&@@  O%%====================",
"$$+oo  XOO$$$$$$$$$$$$$$$$$$$$$$+oo  XOO$$$$$$$$$$$$$$$$$$$$",
"                                                            ",
"                                                            "
};
